%TF.GenerationSoftware,KiCad,Pcbnew,7.0.5*%
%TF.CreationDate,2024-01-07T17:07:27+01:00*%
%TF.ProjectId,37c3PCBLEDC100R_Rev.2,33376333-5043-4424-9c45-444331303052,rev?*%
%TF.SameCoordinates,Original*%
%TF.FileFunction,Copper,L2,Bot*%
%TF.FilePolarity,Positive*%
%FSLAX46Y46*%
G04 Gerber Fmt 4.6, Leading zero omitted, Abs format (unit mm)*
G04 Created by KiCad (PCBNEW 7.0.5) date 2024-01-07 17:07:27*
%MOMM*%
%LPD*%
G01*
G04 APERTURE LIST*
G04 Aperture macros list*
%AMRoundRect*
0 Rectangle with rounded corners*
0 $1 Rounding radius*
0 $2 $3 $4 $5 $6 $7 $8 $9 X,Y pos of 4 corners*
0 Add a 4 corners polygon primitive as box body*
4,1,4,$2,$3,$4,$5,$6,$7,$8,$9,$2,$3,0*
0 Add four circle primitives for the rounded corners*
1,1,$1+$1,$2,$3*
1,1,$1+$1,$4,$5*
1,1,$1+$1,$6,$7*
1,1,$1+$1,$8,$9*
0 Add four rect primitives between the rounded corners*
20,1,$1+$1,$2,$3,$4,$5,0*
20,1,$1+$1,$4,$5,$6,$7,0*
20,1,$1+$1,$6,$7,$8,$9,0*
20,1,$1+$1,$8,$9,$2,$3,0*%
%AMRotRect*
0 Rectangle, with rotation*
0 The origin of the aperture is its center*
0 $1 length*
0 $2 width*
0 $3 Rotation angle, in degrees counterclockwise*
0 Add horizontal line*
21,1,$1,$2,0,0,$3*%
%AMOutline5P*
0 Free polygon, 5 corners , with rotation*
0 The origin of the aperture is its center*
0 number of corners: always 5*
0 $1 to $10 corner X, Y*
0 $11 Rotation angle, in degrees counterclockwise*
0 create outline with 5 corners*
4,1,5,$1,$2,$3,$4,$5,$6,$7,$8,$9,$10,$1,$2,$11*%
%AMOutline6P*
0 Free polygon, 6 corners , with rotation*
0 The origin of the aperture is its center*
0 number of corners: always 6*
0 $1 to $12 corner X, Y*
0 $13 Rotation angle, in degrees counterclockwise*
0 create outline with 6 corners*
4,1,6,$1,$2,$3,$4,$5,$6,$7,$8,$9,$10,$11,$12,$1,$2,$13*%
%AMOutline7P*
0 Free polygon, 7 corners , with rotation*
0 The origin of the aperture is its center*
0 number of corners: always 7*
0 $1 to $14 corner X, Y*
0 $15 Rotation angle, in degrees counterclockwise*
0 create outline with 7 corners*
4,1,7,$1,$2,$3,$4,$5,$6,$7,$8,$9,$10,$11,$12,$13,$14,$1,$2,$15*%
%AMOutline8P*
0 Free polygon, 8 corners , with rotation*
0 The origin of the aperture is its center*
0 number of corners: always 8*
0 $1 to $16 corner X, Y*
0 $17 Rotation angle, in degrees counterclockwise*
0 create outline with 8 corners*
4,1,8,$1,$2,$3,$4,$5,$6,$7,$8,$9,$10,$11,$12,$13,$14,$15,$16,$1,$2,$17*%
G04 Aperture macros list end*
%TA.AperFunction,ComponentPad*%
%ADD10C,2.000000*%
%TD*%
%TA.AperFunction,ComponentPad*%
%ADD11RotRect,2.000000X2.000000X225.000000*%
%TD*%
%TA.AperFunction,ComponentPad*%
%ADD12C,5.600000*%
%TD*%
%TA.AperFunction,ComponentPad*%
%ADD13R,2.000000X2.000000*%
%TD*%
%TA.AperFunction,ComponentPad*%
%ADD14O,1.600000X2.000000*%
%TD*%
%TA.AperFunction,ComponentPad*%
%ADD15RotRect,2.000000X2.000000X45.000000*%
%TD*%
%TA.AperFunction,ComponentPad*%
%ADD16C,2.500000*%
%TD*%
%TA.AperFunction,ComponentPad*%
%ADD17RotRect,2.000000X2.000000X315.000000*%
%TD*%
%TA.AperFunction,ComponentPad*%
%ADD18Outline5P,-1.000000X0.600000X-0.600000X1.000000X1.000000X1.000000X1.000000X-1.000000X-1.000000X-1.000000X0.000000*%
%TD*%
%TA.AperFunction,ComponentPad*%
%ADD19RoundRect,0.500000X-0.500000X-0.500000X0.500000X-0.500000X0.500000X0.500000X-0.500000X0.500000X0*%
%TD*%
%TA.AperFunction,ComponentPad*%
%ADD20RotRect,2.000000X2.000000X135.000000*%
%TD*%
G04 APERTURE END LIST*
D10*
%TO.P,R1,1*%
%TO.N,/Din*%
X141000000Y-64000000D03*
%TO.P,R1,2*%
%TO.N,Net-(D1-DIN)*%
X153500000Y-64000000D03*
%TD*%
%TO.P,R2,1*%
%TO.N,Net-(A1-Vin)*%
X128750000Y-78750000D03*
%TO.P,R2,2*%
%TO.N,Net-(Q1-S)*%
X128750000Y-91250000D03*
%TD*%
%TO.P,D4,1,VDD*%
%TO.N,+5V*%
X180901974Y-132698026D03*
D11*
%TO.P,D4,2,DOUT*%
%TO.N,Net-(D4-DOUT)*%
X179105923Y-134494077D03*
D10*
%TO.P,D4,3,VSS*%
%TO.N,GND*%
X182698026Y-130901974D03*
%TO.P,D4,4,DIN*%
%TO.N,Net-(D3-DOUT)*%
X184494077Y-129105923D03*
%TD*%
D12*
%TO.P,H2,1,1*%
%TO.N,+5V*%
X167200000Y-58400000D03*
%TD*%
D10*
%TO.P,D7,1,VDD*%
%TO.N,+5V*%
X105000000Y-98730000D03*
D13*
%TO.P,D7,2,DOUT*%
%TO.N,Net-(D7-DOUT)*%
X105000000Y-96190000D03*
D10*
%TO.P,D7,3,VSS*%
%TO.N,GND*%
X105000000Y-101270000D03*
%TO.P,D7,4,DIN*%
%TO.N,Net-(D6-DOUT)*%
X105000000Y-103810000D03*
%TD*%
D13*
%TO.P,U1,1,~{RST}*%
%TO.N,unconnected-(U1-~{RST}-Pad1)*%
X158870000Y-88580000D03*
D14*
%TO.P,U1,2,A0*%
%TO.N,Net-(U1-A0)*%
X156330000Y-88580000D03*
%TO.P,U1,3,D0*%
%TO.N,Net-(U1-D0)*%
X153790000Y-88580000D03*
%TO.P,U1,4,SCK/D5*%
%TO.N,Net-(U1-SCK{slash}D5)*%
X151250000Y-88580000D03*
%TO.P,U1,5,MISO/D6*%
%TO.N,Net-(U1-MISO{slash}D6)*%
X148710000Y-88580000D03*
%TO.P,U1,6,MOSI/D7*%
%TO.N,Net-(U1-MOSI{slash}D7)*%
X146170000Y-88580000D03*
%TO.P,U1,7,CS/D8*%
%TO.N,unconnected-(U1-CS{slash}D8-Pad7)*%
X143630000Y-88580000D03*
%TO.P,U1,8,3V3*%
%TO.N,Net-(A1-Vin)*%
X141090000Y-88580000D03*
%TO.P,U1,9,5V*%
%TO.N,+5V*%
X141090000Y-111440000D03*
%TO.P,U1,10,GND*%
%TO.N,GND*%
X143630000Y-111440000D03*
%TO.P,U1,11,D4*%
%TO.N,Net-(Q1-S)*%
X146170000Y-111440000D03*
%TO.P,U1,12,D3*%
%TO.N,unconnected-(U1-D3-Pad12)*%
X148710000Y-111440000D03*
%TO.P,U1,13,SDA/D2*%
%TO.N,unconnected-(U1-SDA{slash}D2-Pad13)*%
X151250000Y-111440000D03*
%TO.P,U1,14,SCL/D1*%
%TO.N,unconnected-(U1-SCL{slash}D1-Pad14)*%
X153790000Y-111440000D03*
%TO.P,U1,15,RX*%
%TO.N,unconnected-(U1-RX-Pad15)*%
X156330000Y-111440000D03*
%TO.P,U1,16,TX*%
%TO.N,unconnected-(U1-TX-Pad16)*%
X158870000Y-111440000D03*
%TD*%
D10*
%TO.P,D5,1,VDD*%
%TO.N,+5V*%
X148730000Y-145000000D03*
D13*
%TO.P,D5,2,DOUT*%
%TO.N,Net-(D5-DOUT)*%
X146190000Y-145000000D03*
D10*
%TO.P,D5,3,VSS*%
%TO.N,GND*%
X151270000Y-145000000D03*
%TO.P,D5,4,DIN*%
%TO.N,Net-(D4-DOUT)*%
X153810000Y-145000000D03*
%TD*%
D12*
%TO.P,H3,1,1*%
%TO.N,GND*%
X108400000Y-82800000D03*
%TD*%
D10*
%TO.P,D8,1,VDD*%
%TO.N,+5V*%
X119098026Y-67301974D03*
D15*
%TO.P,D8,2,DOUT*%
%TO.N,/Dout*%
X120894077Y-65505923D03*
D10*
%TO.P,D8,3,VSS*%
%TO.N,GND*%
X117301974Y-69098026D03*
%TO.P,D8,4,DIN*%
%TO.N,Net-(D7-DOUT)*%
X115505923Y-70894077D03*
%TD*%
D16*
%TO.P,TP2,1,1*%
%TO.N,/Dout*%
X132000000Y-64000000D03*
%TD*%
D10*
%TO.P,D3,1,VDD*%
%TO.N,+5V*%
X195000000Y-101270000D03*
D13*
%TO.P,D3,2,DOUT*%
%TO.N,Net-(D3-DOUT)*%
X195000000Y-103810000D03*
D10*
%TO.P,D3,3,VSS*%
%TO.N,GND*%
X195000000Y-98730000D03*
%TO.P,D3,4,DIN*%
%TO.N,Net-(D2-DOUT)*%
X195000000Y-96190000D03*
%TD*%
%TO.P,D1,1,VDD*%
%TO.N,+5V*%
X151270000Y-55000000D03*
D13*
%TO.P,D1,2,DOUT*%
%TO.N,Net-(D1-DOUT)*%
X153810000Y-55000000D03*
D10*
%TO.P,D1,3,VSS*%
%TO.N,GND*%
X148730000Y-55000000D03*
%TO.P,D1,4,DIN*%
%TO.N,Net-(D1-DIN)*%
X146190000Y-55000000D03*
%TD*%
%TO.P,D2,1,VDD*%
%TO.N,+5V*%
X182698026Y-69098026D03*
D17*
%TO.P,D2,2,DOUT*%
%TO.N,Net-(D2-DOUT)*%
X184494077Y-70894077D03*
D10*
%TO.P,D2,3,VSS*%
%TO.N,GND*%
X180901974Y-67301974D03*
%TO.P,D2,4,DIN*%
%TO.N,Net-(D1-DOUT)*%
X179105923Y-65505923D03*
%TD*%
%TO.P,R3,1*%
%TO.N,+5V*%
X124750000Y-91250000D03*
%TO.P,R3,2*%
%TO.N,/Din*%
X124750000Y-78750000D03*
%TD*%
D12*
%TO.P,H1,1,1*%
%TO.N,+5V*%
X132800000Y-141600000D03*
%TD*%
D16*
%TO.P,TP1,1,1*%
%TO.N,/Din*%
X137000000Y-64000000D03*
%TD*%
D10*
%TO.P,A1,*%
%TO.N,*%
X146170000Y-73070000D03*
X146170000Y-75610000D03*
X146170000Y-78150000D03*
X146170000Y-80690000D03*
X148710000Y-73070000D03*
X148710000Y-75610000D03*
X148710000Y-78150000D03*
X148710000Y-80690000D03*
X151250000Y-73070000D03*
X151250000Y-75610000D03*
X151250000Y-78150000D03*
X151250000Y-80690000D03*
X153790000Y-73070000D03*
X153790000Y-75610000D03*
X153790000Y-78150000D03*
X153790000Y-80690000D03*
X156330000Y-73070000D03*
X156330000Y-75610000D03*
X156330000Y-78150000D03*
X156330000Y-80690000D03*
%TO.P,A1,2*%
%TO.N,Net-(U1-A0)*%
X156330000Y-83230000D03*
%TO.P,A1,3*%
%TO.N,Net-(U1-D0)*%
X153790000Y-83230000D03*
%TO.P,A1,4*%
%TO.N,Net-(U1-SCK{slash}D5)*%
X151250000Y-83230000D03*
%TO.P,A1,5*%
%TO.N,Net-(U1-MISO{slash}D6)*%
X148710000Y-83230000D03*
%TO.P,A1,6*%
%TO.N,Net-(U1-MOSI{slash}D7)*%
X146170000Y-83230000D03*
D18*
%TO.P,A1,7,Vin*%
%TO.N,Net-(A1-Vin)*%
X158870000Y-73070000D03*
X158870000Y-75610000D03*
X158870000Y-78150000D03*
X158870000Y-80690000D03*
X158870000Y-83230000D03*
D19*
%TO.P,A1,8,GND*%
%TO.N,GND*%
X143630000Y-73070000D03*
X143630000Y-75610000D03*
X143630000Y-78150000D03*
X143630000Y-80690000D03*
X143630000Y-83230000D03*
%TD*%
D12*
%TO.P,H4,1,1*%
%TO.N,GND*%
X191600000Y-117200000D03*
%TD*%
D10*
%TO.P,D6,1,VDD*%
%TO.N,+5V*%
X117301974Y-130901974D03*
D20*
%TO.P,D6,2,DOUT*%
%TO.N,Net-(D6-DOUT)*%
X115505923Y-129105923D03*
D10*
%TO.P,D6,3,VSS*%
%TO.N,GND*%
X119098026Y-132698026D03*
%TO.P,D6,4,DIN*%
%TO.N,Net-(D5-DOUT)*%
X120894077Y-134494077D03*
%TD*%
%TA.AperFunction,Conductor*%
%TO.N,+5V*%
G36*
X150704167Y-50305500D02*
G01*
X152108516Y-50345258D01*
X152110130Y-50345327D01*
X153512829Y-50424812D01*
X153514430Y-50424925D01*
X154914293Y-50544072D01*
X154916015Y-50544244D01*
X155202614Y-50576829D01*
X156311911Y-50702951D01*
X156313533Y-50703159D01*
X157704422Y-50901313D01*
X157706058Y-50901570D01*
X159090796Y-51139007D01*
X159092379Y-51139301D01*
X160469868Y-51415835D01*
X160471458Y-51416178D01*
X161840497Y-51731566D01*
X161842160Y-51731974D01*
X163201713Y-52085974D01*
X163203320Y-52086416D01*
X164140146Y-52358877D01*
X164552319Y-52478751D01*
X164553986Y-52479261D01*
X164672899Y-52517527D01*
X165891267Y-52909591D01*
X165892930Y-52910152D01*
X166144331Y-52998977D01*
X167217576Y-53378178D01*
X167219101Y-53378741D01*
X168352799Y-53815769D01*
X168529969Y-53884066D01*
X168531573Y-53884710D01*
X169827591Y-54426918D01*
X169829151Y-54427597D01*
X171109290Y-55006256D01*
X171110857Y-55006991D01*
X172083252Y-55480125D01*
X172374108Y-55621645D01*
X172375675Y-55622435D01*
X173621017Y-56272588D01*
X173622561Y-56273422D01*
X174565180Y-56800000D01*
X174848995Y-56958548D01*
X174850502Y-56959418D01*
X176057116Y-57679014D01*
X176058496Y-57679864D01*
X176629496Y-58042685D01*
X177244262Y-58433316D01*
X177245694Y-58434254D01*
X178409690Y-59220977D01*
X178411012Y-59221898D01*
X179342197Y-59890423D01*
X179552256Y-60041231D01*
X179553649Y-60042261D01*
X180671262Y-60893570D01*
X180672534Y-60894568D01*
X181765631Y-61777182D01*
X181766904Y-61778240D01*
X182834542Y-62691396D01*
X182835831Y-62692531D01*
X183877186Y-63635521D01*
X183878458Y-63636706D01*
X184892686Y-64608764D01*
X184893935Y-64609996D01*
X185777266Y-65505917D01*
X185880234Y-65610352D01*
X185881434Y-65611603D01*
X186171675Y-65923143D01*
X186839064Y-66639508D01*
X186840242Y-66640809D01*
X187048136Y-66877022D01*
X187713279Y-67632772D01*
X187768371Y-67695368D01*
X187769499Y-67696687D01*
X188667429Y-68777107D01*
X188668489Y-68778419D01*
X189535557Y-69883909D01*
X189536545Y-69885207D01*
X190033481Y-70557109D01*
X190371933Y-71014727D01*
X190372934Y-71016120D01*
X190938339Y-71827669D01*
X191176021Y-72168824D01*
X191177003Y-72170278D01*
X191521627Y-72696052D01*
X191875469Y-73235889D01*
X191947099Y-73345170D01*
X191948041Y-73346651D01*
X192684622Y-74542936D01*
X192685520Y-74544443D01*
X192978539Y-75051966D01*
X193387937Y-75761065D01*
X193388777Y-75762567D01*
X194056486Y-76998586D01*
X194057292Y-77000129D01*
X194105928Y-77096593D01*
X194689755Y-78254544D01*
X194690523Y-78256122D01*
X195287221Y-79527908D01*
X195287944Y-79529507D01*
X195848435Y-80817715D01*
X195849112Y-80819334D01*
X196372890Y-82122807D01*
X196373522Y-82124444D01*
X196860234Y-83442300D01*
X196860819Y-83443955D01*
X197310031Y-84775021D01*
X197310566Y-84776682D01*
X197317805Y-84800319D01*
X197721934Y-86119938D01*
X197722424Y-86121623D01*
X198095613Y-87475978D01*
X198096055Y-87477676D01*
X198430762Y-88842032D01*
X198431156Y-88843742D01*
X198727124Y-90217033D01*
X198727469Y-90218754D01*
X198984456Y-91599878D01*
X198984753Y-91601608D01*
X199202553Y-92989451D01*
X199202800Y-92991188D01*
X199381240Y-94384649D01*
X199381438Y-94386393D01*
X199520368Y-95784299D01*
X199520517Y-95786047D01*
X199619838Y-97187393D01*
X199619937Y-97189145D01*
X199630268Y-97432335D01*
X199679407Y-98589121D01*
X199679558Y-98592660D01*
X199679607Y-98594414D01*
X199699487Y-99999120D01*
X199699487Y-100000878D01*
X199679607Y-101405585D01*
X199679558Y-101407323D01*
X199664152Y-101770000D01*
X199619937Y-102810854D01*
X199619838Y-102812606D01*
X199520517Y-104213952D01*
X199520368Y-104215700D01*
X199381438Y-105613606D01*
X199381240Y-105615350D01*
X199202800Y-107008811D01*
X199202553Y-107010548D01*
X198984753Y-108398391D01*
X198984456Y-108400121D01*
X198727469Y-109781245D01*
X198727124Y-109782966D01*
X198431156Y-111156257D01*
X198430762Y-111157967D01*
X198096055Y-112522323D01*
X198095613Y-112524021D01*
X197722424Y-113878376D01*
X197721934Y-113880061D01*
X197310569Y-115223308D01*
X197310031Y-115224978D01*
X196860819Y-116556044D01*
X196860234Y-116557699D01*
X196373522Y-117875555D01*
X196372890Y-117877192D01*
X195849112Y-119180665D01*
X195848435Y-119182284D01*
X195287944Y-120470492D01*
X195287221Y-120472091D01*
X194690523Y-121743877D01*
X194689755Y-121745455D01*
X194057298Y-122999858D01*
X194056486Y-123001413D01*
X193388777Y-124237432D01*
X193387921Y-124238964D01*
X192685520Y-125455556D01*
X192684622Y-125457063D01*
X191948041Y-126653348D01*
X191947099Y-126654829D01*
X191177003Y-127829721D01*
X191176021Y-127831175D01*
X190372957Y-128983847D01*
X190371933Y-128985272D01*
X189536572Y-130114757D01*
X189535531Y-130116123D01*
X188685838Y-131199462D01*
X188668532Y-131221527D01*
X188667429Y-131222892D01*
X187769512Y-132303297D01*
X187768371Y-132304631D01*
X186840242Y-133359190D01*
X186839064Y-133360491D01*
X185881449Y-134388380D01*
X185880234Y-134389647D01*
X184893935Y-135390003D01*
X184892686Y-135391235D01*
X183878470Y-136363282D01*
X183877186Y-136364478D01*
X182835831Y-137307468D01*
X182834514Y-137308627D01*
X181766942Y-138221727D01*
X181765593Y-138222848D01*
X180672577Y-139105396D01*
X180671221Y-139106461D01*
X179553667Y-139957725D01*
X179552256Y-139958768D01*
X178846949Y-140465130D01*
X178411058Y-140778068D01*
X178409641Y-140779056D01*
X177245730Y-141565722D01*
X177244262Y-141566683D01*
X176058540Y-142320108D01*
X176057064Y-142321016D01*
X176044297Y-142328631D01*
X174850515Y-143040573D01*
X174848995Y-143041451D01*
X173622561Y-143726577D01*
X173621017Y-143727411D01*
X172375675Y-144377564D01*
X172374108Y-144378354D01*
X171110865Y-144993004D01*
X171109276Y-144993749D01*
X169829173Y-145572392D01*
X169827564Y-145573092D01*
X168531597Y-146115279D01*
X168529969Y-146115933D01*
X167219165Y-146621234D01*
X167217519Y-146621842D01*
X165892930Y-147089847D01*
X165891267Y-147090408D01*
X164553997Y-147520734D01*
X164552319Y-147521248D01*
X163203354Y-147913573D01*
X163201662Y-147914039D01*
X161842179Y-148268020D01*
X161840475Y-148268438D01*
X160471494Y-148583813D01*
X160469801Y-148584178D01*
X159092451Y-148860684D01*
X159090726Y-148861005D01*
X157706102Y-149098422D01*
X157704369Y-149098694D01*
X156313599Y-149296831D01*
X156311858Y-149297054D01*
X154916015Y-149455755D01*
X154914269Y-149455929D01*
X153612284Y-149566745D01*
X153514500Y-149575068D01*
X153512758Y-149575191D01*
X153178005Y-149594160D01*
X152110185Y-149654669D01*
X152108447Y-149654743D01*
X150704167Y-149694499D01*
X150702424Y-149694524D01*
X149297576Y-149694524D01*
X149295832Y-149694499D01*
X147891549Y-149654743D01*
X147889814Y-149654669D01*
X147066351Y-149608007D01*
X146487236Y-149575191D01*
X146485504Y-149575068D01*
X146215685Y-149552103D01*
X145085730Y-149455929D01*
X145083984Y-149455755D01*
X143688141Y-149297054D01*
X143686405Y-149296831D01*
X143002079Y-149199338D01*
X142295630Y-149098694D01*
X142293897Y-149098422D01*
X141601585Y-148979713D01*
X140909259Y-148861002D01*
X140907564Y-148860687D01*
X139530183Y-148584175D01*
X139528505Y-148583813D01*
X138159524Y-148268438D01*
X138157820Y-148268020D01*
X136887327Y-147937210D01*
X136798334Y-147914038D01*
X136796645Y-147913573D01*
X135447680Y-147521248D01*
X135446002Y-147520734D01*
X134108732Y-147090408D01*
X134107069Y-147089847D01*
X133103618Y-146735306D01*
X132782462Y-146621835D01*
X132780859Y-146621243D01*
X132152007Y-146378828D01*
X131470030Y-146115933D01*
X131468402Y-146115279D01*
X131307277Y-146047870D01*
X144689500Y-146047870D01*
X144689501Y-146047876D01*
X144695908Y-146107483D01*
X144746202Y-146242328D01*
X144746206Y-146242335D01*
X144832452Y-146357544D01*
X144832455Y-146357547D01*
X144947664Y-146443793D01*
X144947671Y-146443797D01*
X145082517Y-146494091D01*
X145082516Y-146494091D01*
X145089444Y-146494835D01*
X145142127Y-146500500D01*
X147237872Y-146500499D01*
X147297483Y-146494091D01*
X147432331Y-146443796D01*
X147547546Y-146357546D01*
X147633796Y-146242331D01*
X147633797Y-146242326D01*
X147638047Y-146234546D01*
X147641135Y-146236232D01*
X147672873Y-146193790D01*
X147738324Y-146169339D01*
X147806605Y-146184155D01*
X147823398Y-146195165D01*
X147906768Y-146260055D01*
X147906771Y-146260057D01*
X148125385Y-146378364D01*
X148125396Y-146378369D01*
X148360506Y-146459083D01*
X148605707Y-146500000D01*
X148854293Y-146500000D01*
X149099493Y-146459083D01*
X149334603Y-146378369D01*
X149334614Y-146378364D01*
X149553228Y-146260057D01*
X149553231Y-146260055D01*
X149600056Y-146223609D01*
X148862533Y-145486086D01*
X148872315Y-145484680D01*
X149003100Y-145424952D01*
X149111761Y-145330798D01*
X149189493Y-145209844D01*
X149213076Y-145129524D01*
X149953434Y-145869882D01*
X149964861Y-145868697D01*
X150033573Y-145881360D01*
X150078092Y-145921194D01*
X150078683Y-145920735D01*
X150081218Y-145923992D01*
X150081456Y-145924205D01*
X150081831Y-145924780D01*
X150081836Y-145924785D01*
X150250256Y-146107738D01*
X150446491Y-146260474D01*
X150446493Y-146260475D01*
X150664332Y-146378364D01*
X150665190Y-146378828D01*
X150854426Y-146443793D01*
X150898964Y-146459083D01*
X150900386Y-146459571D01*
X151145665Y-146500500D01*
X151394335Y-146500500D01*
X151639614Y-146459571D01*
X151874810Y-146378828D01*
X152093509Y-146260474D01*
X152289744Y-146107738D01*
X152448771Y-145934988D01*
X152508657Y-145898999D01*
X152578495Y-145901099D01*
X152631228Y-145934988D01*
X152790256Y-146107738D01*
X152986491Y-146260474D01*
X152986493Y-146260475D01*
X153204332Y-146378364D01*
X153205190Y-146378828D01*
X153394426Y-146443793D01*
X153438964Y-146459083D01*
X153440386Y-146459571D01*
X153685665Y-146500500D01*
X153934335Y-146500500D01*
X154179614Y-146459571D01*
X154414810Y-146378828D01*
X154633509Y-146260474D01*
X154829744Y-146107738D01*
X154998164Y-145924785D01*
X155134173Y-145716607D01*
X155234063Y-145488881D01*
X155295108Y-145247821D01*
X155315643Y-145000000D01*
X155315125Y-144993749D01*
X155295109Y-144752187D01*
X155295107Y-144752175D01*
X155234063Y-144511118D01*
X155134173Y-144283393D01*
X154998166Y-144075217D01*
X154955164Y-144028505D01*
X154829744Y-143892262D01*
X154633509Y-143739526D01*
X154633507Y-143739525D01*
X154633506Y-143739524D01*
X154414811Y-143621172D01*
X154414802Y-143621169D01*
X154179616Y-143540429D01*
X153934335Y-143499500D01*
X153685665Y-143499500D01*
X153440383Y-143540429D01*
X153205197Y-143621169D01*
X153205188Y-143621172D01*
X152986493Y-143739524D01*
X152790255Y-143892262D01*
X152790252Y-143892265D01*
X152631228Y-144065010D01*
X152571341Y-144101001D01*
X152501503Y-144098900D01*
X152448770Y-144065011D01*
X152289744Y-143892262D01*
X152093509Y-143739526D01*
X152093507Y-143739525D01*
X152093506Y-143739524D01*
X151874811Y-143621172D01*
X151874802Y-143621169D01*
X151639616Y-143540429D01*
X151394335Y-143499500D01*
X151145665Y-143499500D01*
X150900383Y-143540429D01*
X150665197Y-143621169D01*
X150665188Y-143621172D01*
X150446493Y-143739524D01*
X150250257Y-143892261D01*
X150081837Y-144075213D01*
X150081829Y-144075224D01*
X150081455Y-144075797D01*
X150081242Y-144075978D01*
X150078690Y-144079258D01*
X150078014Y-144078732D01*
X150028304Y-144121147D01*
X149964865Y-144131302D01*
X149953434Y-144130116D01*
X149213076Y-144870475D01*
X149189493Y-144790156D01*
X149111761Y-144669202D01*
X149003100Y-144575048D01*
X148872315Y-144515320D01*
X148862533Y-144513913D01*
X149600057Y-143776389D01*
X149553229Y-143739943D01*
X149334614Y-143621635D01*
X149334603Y-143621630D01*
X149099493Y-143540916D01*
X148854293Y-143500000D01*
X148605707Y-143500000D01*
X148360506Y-143540916D01*
X148125396Y-143621630D01*
X148125385Y-143621635D01*
X147906771Y-143739942D01*
X147906769Y-143739943D01*
X147823397Y-143804835D01*
X147758403Y-143830477D01*
X147689863Y-143816910D01*
X147639538Y-143768442D01*
X147638120Y-143765413D01*
X147638047Y-143765454D01*
X147633793Y-143757664D01*
X147547547Y-143642455D01*
X147547544Y-143642452D01*
X147432335Y-143556206D01*
X147432328Y-143556202D01*
X147297482Y-143505908D01*
X147297483Y-143505908D01*
X147237883Y-143499501D01*
X147237881Y-143499500D01*
X147237873Y-143499500D01*
X147237864Y-143499500D01*
X145142129Y-143499500D01*
X145142123Y-143499501D01*
X145082516Y-143505908D01*
X144947671Y-143556202D01*
X144947664Y-143556206D01*
X144832455Y-143642452D01*
X144832452Y-143642455D01*
X144746206Y-143757664D01*
X144746202Y-143757671D01*
X144695908Y-143892517D01*
X144689501Y-143952116D01*
X144689500Y-143952135D01*
X144689500Y-146047870D01*
X131307277Y-146047870D01*
X130172435Y-145573092D01*
X130170826Y-145572392D01*
X128890723Y-144993749D01*
X128889134Y-144993004D01*
X127625891Y-144378354D01*
X127624324Y-144377564D01*
X126378982Y-143727411D01*
X126377438Y-143726577D01*
X125151004Y-143041451D01*
X125149484Y-143040573D01*
X124911139Y-142898430D01*
X123942903Y-142320997D01*
X123941483Y-142320123D01*
X123370529Y-141957331D01*
X122808174Y-141600002D01*
X129495153Y-141600002D01*
X129514526Y-141957314D01*
X129514527Y-141957331D01*
X129572415Y-142310431D01*
X129572421Y-142310457D01*
X129661031Y-142629605D01*
X131244277Y-141973801D01*
X131273604Y-142095956D01*
X131369981Y-142328631D01*
X131435618Y-142435742D01*
X129855079Y-143090423D01*
X129855079Y-143090424D01*
X129968218Y-143303827D01*
X130169033Y-143600007D01*
X130400697Y-143872742D01*
X130400702Y-143872747D01*
X130660486Y-144118828D01*
X130660496Y-144118836D01*
X130945367Y-144335388D01*
X130945370Y-144335390D01*
X131251990Y-144519876D01*
X131576739Y-144670122D01*
X131576744Y-144670123D01*
X131915855Y-144784383D01*
X132265339Y-144861311D01*
X132621075Y-144899999D01*
X132621085Y-144900000D01*
X132978915Y-144900000D01*
X132978924Y-144899999D01*
X133334660Y-144861311D01*
X133684136Y-144784385D01*
X133828297Y-144735812D01*
X133173802Y-143155722D01*
X133295956Y-143126396D01*
X133528631Y-143030019D01*
X133635742Y-142964381D01*
X134290978Y-144546259D01*
X134290979Y-144546260D01*
X134348006Y-144519878D01*
X134654629Y-144335390D01*
X134654632Y-144335388D01*
X134939503Y-144118836D01*
X134939513Y-144118828D01*
X135199297Y-143872747D01*
X135199302Y-143872742D01*
X135430966Y-143600007D01*
X135631781Y-143303827D01*
X135799393Y-142987677D01*
X135799402Y-142987659D01*
X135931850Y-142655239D01*
X135931852Y-142655232D01*
X136027578Y-142310457D01*
X136027584Y-142310431D01*
X136085472Y-141957331D01*
X136085473Y-141957314D01*
X136104846Y-141600002D01*
X136104846Y-141599997D01*
X136085473Y-141242685D01*
X136085472Y-141242668D01*
X136027584Y-140889568D01*
X136027578Y-140889542D01*
X135938967Y-140570394D01*
X135938967Y-140570393D01*
X134355721Y-141226195D01*
X134326396Y-141104044D01*
X134230019Y-140871369D01*
X134164380Y-140764256D01*
X135744919Y-140109575D01*
X135631773Y-139896158D01*
X135430966Y-139599992D01*
X135199302Y-139327257D01*
X135199297Y-139327252D01*
X134939513Y-139081171D01*
X134939503Y-139081163D01*
X134654632Y-138864611D01*
X134654629Y-138864609D01*
X134348009Y-138680123D01*
X134023260Y-138529877D01*
X134023255Y-138529876D01*
X133684144Y-138415616D01*
X133334660Y-138338688D01*
X132978924Y-138300000D01*
X132621075Y-138300000D01*
X132265339Y-138338688D01*
X131915855Y-138415616D01*
X131771701Y-138464186D01*
X132426196Y-140044277D01*
X132304044Y-140073604D01*
X132071369Y-140169981D01*
X131964256Y-140235619D01*
X131309019Y-138653739D01*
X131251987Y-138680125D01*
X130945370Y-138864609D01*
X130945367Y-138864611D01*
X130660496Y-139081163D01*
X130660486Y-139081171D01*
X130400702Y-139327252D01*
X130400697Y-139327257D01*
X130169033Y-139599992D01*
X129968218Y-139896172D01*
X129800606Y-140212322D01*
X129800597Y-140212340D01*
X129668149Y-140544760D01*
X129668147Y-140544767D01*
X129572421Y-140889542D01*
X129572415Y-140889568D01*
X129514527Y-141242668D01*
X129514526Y-141242685D01*
X129495153Y-141599997D01*
X129495153Y-141600002D01*
X122808174Y-141600002D01*
X122755737Y-141566683D01*
X122754288Y-141565734D01*
X121590324Y-140779032D01*
X121588973Y-140778091D01*
X120525806Y-140014812D01*
X120447743Y-139958768D01*
X120446332Y-139957725D01*
X119976694Y-139599992D01*
X119328746Y-139106436D01*
X119327455Y-139105424D01*
X118234375Y-138222823D01*
X118233088Y-138221753D01*
X117165462Y-137308607D01*
X117164168Y-137307468D01*
X116122813Y-136364478D01*
X116121529Y-136363282D01*
X116090631Y-136333669D01*
X115107306Y-135391228D01*
X115106064Y-135390003D01*
X114287416Y-134559687D01*
X114119760Y-134389642D01*
X114118550Y-134388380D01*
X114084304Y-134351621D01*
X113405035Y-133622504D01*
X113160935Y-133360491D01*
X113159757Y-133359190D01*
X112539539Y-132654486D01*
X112231615Y-132304616D01*
X112230505Y-132303318D01*
X111332552Y-131222870D01*
X111331516Y-131221588D01*
X110464434Y-130116079D01*
X110463462Y-130114803D01*
X109717298Y-129105922D01*
X113586063Y-129105922D01*
X113606543Y-129248378D01*
X113606544Y-129248382D01*
X113666330Y-129379293D01*
X113666331Y-129379294D01*
X113666332Y-129379296D01*
X113703951Y-129425979D01*
X113703954Y-129425982D01*
X113703959Y-129425988D01*
X114941154Y-130663180D01*
X115185867Y-130907893D01*
X115185871Y-130907896D01*
X115185873Y-130907898D01*
X115232549Y-130945514D01*
X115363463Y-131005301D01*
X115363464Y-131005301D01*
X115363466Y-131005302D01*
X115505923Y-131025783D01*
X115648380Y-131005302D01*
X115648381Y-131005301D01*
X115655712Y-131003149D01*
X115725581Y-131003147D01*
X115784361Y-131040920D01*
X115813387Y-131104474D01*
X115814226Y-131111885D01*
X115817359Y-131149703D01*
X115817361Y-131149712D01*
X115878386Y-131390691D01*
X115978241Y-131618341D01*
X116114206Y-131826452D01*
X116282566Y-132009338D01*
X116282576Y-132009347D01*
X116478736Y-132162025D01*
X116478745Y-132162031D01*
X116697359Y-132280338D01*
X116697370Y-132280343D01*
X116932481Y-132361057D01*
X117051973Y-132380997D01*
X117051974Y-132380996D01*
X117051974Y-131337475D01*
X117159659Y-131386654D01*
X117266211Y-131401974D01*
X117337737Y-131401974D01*
X117444289Y-131386654D01*
X117551974Y-131337475D01*
X117551974Y-132380996D01*
X117565573Y-132392514D01*
X117604008Y-132450863D01*
X117609009Y-132497376D01*
X117592384Y-132698020D01*
X117592383Y-132698030D01*
X117592383Y-132698031D01*
X117612916Y-132945838D01*
X117612918Y-132945850D01*
X117673962Y-133186907D01*
X117773852Y-133414632D01*
X117909859Y-133622808D01*
X117909862Y-133622811D01*
X118078282Y-133805764D01*
X118274517Y-133958500D01*
X118274519Y-133958501D01*
X118492358Y-134076390D01*
X118493216Y-134076854D01*
X118712167Y-134152020D01*
X118726990Y-134157109D01*
X118728412Y-134157597D01*
X118973691Y-134198526D01*
X119222360Y-134198526D01*
X119222361Y-134198526D01*
X119258454Y-134192503D01*
X119327818Y-134200885D01*
X119381640Y-134245437D01*
X119402831Y-134312016D01*
X119402439Y-134325052D01*
X119388434Y-134494070D01*
X119388434Y-134494082D01*
X119408967Y-134741889D01*
X119408969Y-134741901D01*
X119470013Y-134982958D01*
X119569903Y-135210683D01*
X119705910Y-135418859D01*
X119705913Y-135418862D01*
X119874333Y-135601815D01*
X120070568Y-135754551D01*
X120289267Y-135872905D01*
X120524463Y-135953648D01*
X120769742Y-135994577D01*
X121018412Y-135994577D01*
X121263691Y-135953648D01*
X121498887Y-135872905D01*
X121717586Y-135754551D01*
X121913821Y-135601815D01*
X122082241Y-135418862D01*
X122218250Y-135210684D01*
X122318140Y-134982958D01*
X122379185Y-134741898D01*
X122387916Y-134636532D01*
X122399720Y-134494082D01*
X122399720Y-134494076D01*
X177186063Y-134494076D01*
X177206543Y-134636532D01*
X177206544Y-134636536D01*
X177266330Y-134767447D01*
X177266331Y-134767448D01*
X177266332Y-134767450D01*
X177303951Y-134814133D01*
X177303954Y-134814136D01*
X177303959Y-134814142D01*
X178785855Y-136296034D01*
X178785867Y-136296047D01*
X178785871Y-136296050D01*
X178785873Y-136296052D01*
X178832549Y-136333668D01*
X178963463Y-136393455D01*
X178963464Y-136393455D01*
X178963466Y-136393456D01*
X179105923Y-136413937D01*
X179248380Y-136393456D01*
X179379296Y-136333668D01*
X179425979Y-136296049D01*
X180907893Y-134814133D01*
X180945514Y-134767450D01*
X181005302Y-134636534D01*
X181025783Y-134494077D01*
X181005302Y-134351620D01*
X181005301Y-134351617D01*
X181002803Y-134343109D01*
X181006347Y-134342068D01*
X180998881Y-134290202D01*
X181027895Y-134226642D01*
X181086666Y-134188857D01*
X181101213Y-134185519D01*
X181271466Y-134157109D01*
X181506577Y-134076395D01*
X181506588Y-134076390D01*
X181725202Y-133958083D01*
X181725211Y-133958077D01*
X181921371Y-133805399D01*
X181921381Y-133805390D01*
X182089741Y-133622504D01*
X182225706Y-133414393D01*
X182325562Y-133186742D01*
X182386014Y-132948026D01*
X181335660Y-132948026D01*
X181361467Y-132907870D01*
X181401974Y-132769915D01*
X181401974Y-132626137D01*
X181361467Y-132488182D01*
X181335660Y-132448026D01*
X182386015Y-132448026D01*
X182393584Y-132438301D01*
X182450294Y-132397488D01*
X182511845Y-132392154D01*
X182573691Y-132402474D01*
X182822361Y-132402474D01*
X183067640Y-132361545D01*
X183302836Y-132280802D01*
X183521535Y-132162448D01*
X183717770Y-132009712D01*
X183886190Y-131826759D01*
X184022199Y-131618581D01*
X184122089Y-131390855D01*
X184183134Y-131149795D01*
X184183134Y-131149791D01*
X184183136Y-131149783D01*
X184203669Y-130901979D01*
X184203669Y-130901968D01*
X184189663Y-130732949D01*
X184203744Y-130664513D01*
X184252589Y-130614554D01*
X184320690Y-130598933D01*
X184333645Y-130600399D01*
X184369742Y-130606423D01*
X184369743Y-130606423D01*
X184618412Y-130606423D01*
X184863691Y-130565494D01*
X185098887Y-130484751D01*
X185317586Y-130366397D01*
X185513821Y-130213661D01*
X185682241Y-130030708D01*
X185818250Y-129822530D01*
X185918140Y-129594804D01*
X185979185Y-129353744D01*
X185980044Y-129343383D01*
X185999720Y-129105928D01*
X185999720Y-129105917D01*
X185979186Y-128858110D01*
X185979184Y-128858098D01*
X185918140Y-128617041D01*
X185818250Y-128389316D01*
X185682243Y-128181140D01*
X185660634Y-128157667D01*
X185513821Y-127998185D01*
X185317586Y-127845449D01*
X185317584Y-127845448D01*
X185317583Y-127845447D01*
X185098888Y-127727095D01*
X185098879Y-127727092D01*
X184863693Y-127646352D01*
X184618412Y-127605423D01*
X184369742Y-127605423D01*
X184124460Y-127646352D01*
X183889274Y-127727092D01*
X183889265Y-127727095D01*
X183670570Y-127845447D01*
X183474334Y-127998184D01*
X183305910Y-128181140D01*
X183169903Y-128389316D01*
X183070013Y-128617041D01*
X183008969Y-128858098D01*
X183008967Y-128858110D01*
X182988434Y-129105917D01*
X182988434Y-129105929D01*
X183002439Y-129274947D01*
X182988358Y-129343383D01*
X182939513Y-129393342D01*
X182871412Y-129408963D01*
X182858456Y-129407496D01*
X182822363Y-129401474D01*
X182822361Y-129401474D01*
X182573691Y-129401474D01*
X182328409Y-129442403D01*
X182093223Y-129523143D01*
X182093214Y-129523146D01*
X181874519Y-129641498D01*
X181678283Y-129794235D01*
X181509859Y-129977191D01*
X181373852Y-130185367D01*
X181273962Y-130413092D01*
X181212918Y-130654149D01*
X181212916Y-130654161D01*
X181192382Y-130901968D01*
X181192383Y-130901969D01*
X181192383Y-130901974D01*
X181200767Y-131003149D01*
X181209009Y-131102622D01*
X181194927Y-131171058D01*
X181165574Y-131207483D01*
X181151974Y-131219001D01*
X181151974Y-132262524D01*
X181044289Y-132213346D01*
X180937737Y-132198026D01*
X180866211Y-132198026D01*
X180759659Y-132213346D01*
X180651974Y-132262524D01*
X180651974Y-131219002D01*
X180651973Y-131219002D01*
X180532481Y-131238942D01*
X180297370Y-131319656D01*
X180297359Y-131319661D01*
X180078745Y-131437968D01*
X180078736Y-131437974D01*
X179882576Y-131590652D01*
X179882566Y-131590661D01*
X179714206Y-131773547D01*
X179578241Y-131981658D01*
X179478386Y-132209308D01*
X179417361Y-132450287D01*
X179417359Y-132450296D01*
X179414226Y-132488114D01*
X179389073Y-132553299D01*
X179332671Y-132594537D01*
X179262927Y-132598735D01*
X179255719Y-132596852D01*
X179248383Y-132594698D01*
X179105923Y-132574217D01*
X178963467Y-132594697D01*
X178963463Y-132594698D01*
X178832552Y-132654484D01*
X178785857Y-132692113D01*
X177303956Y-134174017D01*
X177303947Y-134174027D01*
X177266331Y-134220703D01*
X177206544Y-134351617D01*
X177206543Y-134351621D01*
X177186063Y-134494076D01*
X122399720Y-134494076D01*
X122399720Y-134494071D01*
X122379186Y-134246264D01*
X122379184Y-134246252D01*
X122318140Y-134005195D01*
X122218250Y-133777470D01*
X122082243Y-133569294D01*
X121939867Y-133414633D01*
X121913821Y-133386339D01*
X121717586Y-133233603D01*
X121717584Y-133233602D01*
X121717583Y-133233601D01*
X121498888Y-133115249D01*
X121498879Y-133115246D01*
X121263693Y-133034506D01*
X121018412Y-132993577D01*
X120769742Y-132993577D01*
X120769739Y-132993577D01*
X120733645Y-132999599D01*
X120664280Y-132991216D01*
X120610460Y-132946661D01*
X120589270Y-132880082D01*
X120589663Y-132867050D01*
X120603669Y-132698031D01*
X120603669Y-132698020D01*
X120583135Y-132450213D01*
X120583133Y-132450201D01*
X120522089Y-132209144D01*
X120422199Y-131981419D01*
X120286192Y-131773243D01*
X120264583Y-131749770D01*
X120117770Y-131590288D01*
X119921535Y-131437552D01*
X119921533Y-131437551D01*
X119921532Y-131437550D01*
X119702837Y-131319198D01*
X119702828Y-131319195D01*
X119467642Y-131238455D01*
X119222361Y-131197526D01*
X118973691Y-131197526D01*
X118973690Y-131197526D01*
X118911843Y-131207845D01*
X118842478Y-131199462D01*
X118793582Y-131161698D01*
X118786014Y-131151974D01*
X117735660Y-131151974D01*
X117761467Y-131111818D01*
X117801974Y-130973863D01*
X117801974Y-130830085D01*
X117761467Y-130692130D01*
X117735660Y-130651974D01*
X118786014Y-130651974D01*
X118725562Y-130413257D01*
X118625706Y-130185606D01*
X118489741Y-129977495D01*
X118321381Y-129794609D01*
X118321371Y-129794600D01*
X118125211Y-129641922D01*
X118125202Y-129641916D01*
X117906588Y-129523609D01*
X117906577Y-129523604D01*
X117671467Y-129442890D01*
X117501212Y-129414480D01*
X117438327Y-129384029D01*
X117401888Y-129324415D01*
X117403406Y-129257068D01*
X117402803Y-129256891D01*
X117403461Y-129254649D01*
X117403463Y-129254563D01*
X117403560Y-129254309D01*
X117405301Y-129248382D01*
X117405302Y-129248380D01*
X117425783Y-129105923D01*
X117405302Y-128963466D01*
X117345514Y-128832550D01*
X117307895Y-128785867D01*
X117307890Y-128785862D01*
X117307886Y-128785857D01*
X115825982Y-127303956D01*
X115825976Y-127303951D01*
X115825972Y-127303947D01*
X115779296Y-127266331D01*
X115648382Y-127206544D01*
X115648378Y-127206543D01*
X115505923Y-127186063D01*
X115363467Y-127206543D01*
X115363463Y-127206544D01*
X115232552Y-127266330D01*
X115185857Y-127303959D01*
X113703956Y-128785863D01*
X113703947Y-128785873D01*
X113666331Y-128832549D01*
X113606544Y-128963463D01*
X113606543Y-128963467D01*
X113586063Y-129105922D01*
X109717298Y-129105922D01*
X109628066Y-128985272D01*
X109627074Y-128983891D01*
X108823969Y-127831162D01*
X108822996Y-127829721D01*
X108702805Y-127646352D01*
X108052882Y-126654801D01*
X108051976Y-126653377D01*
X107315377Y-125457063D01*
X107314479Y-125455556D01*
X107153635Y-125176967D01*
X106612048Y-124238911D01*
X106611246Y-124237476D01*
X105943503Y-123001394D01*
X105942721Y-122999896D01*
X105310236Y-121745439D01*
X105309492Y-121743910D01*
X104712778Y-120472091D01*
X104712055Y-120470492D01*
X104261342Y-119434593D01*
X104151561Y-119182277D01*
X104150887Y-119180665D01*
X104039748Y-118904085D01*
X103627100Y-117877170D01*
X103626477Y-117875555D01*
X103376981Y-117200002D01*
X188294652Y-117200002D01*
X188314028Y-117557368D01*
X188314029Y-117557385D01*
X188371926Y-117910539D01*
X188371932Y-117910565D01*
X188467672Y-118255392D01*
X188467674Y-118255399D01*
X188600142Y-118587870D01*
X188600151Y-118587888D01*
X188767784Y-118904077D01*
X188767787Y-118904082D01*
X188767789Y-118904085D01*
X188956412Y-119182284D01*
X188968634Y-119200309D01*
X188968641Y-119200319D01*
X189011742Y-119251061D01*
X189200332Y-119473086D01*
X189460163Y-119719211D01*
X189745081Y-119935800D01*
X190051747Y-120120315D01*
X190051749Y-120120316D01*
X190051751Y-120120317D01*
X190051755Y-120120319D01*
X190376552Y-120270585D01*
X190376565Y-120270591D01*
X190715726Y-120384868D01*
X191065254Y-120461805D01*
X191421052Y-120500500D01*
X191778942Y-120500500D01*
X191778948Y-120500500D01*
X192134746Y-120461805D01*
X192484274Y-120384868D01*
X192823435Y-120270591D01*
X193148253Y-120120315D01*
X193454919Y-119935800D01*
X193739837Y-119719211D01*
X193999668Y-119473086D01*
X194231365Y-119200311D01*
X194432211Y-118904085D01*
X194599853Y-118587880D01*
X194732324Y-118255403D01*
X194828071Y-117910552D01*
X194885972Y-117557371D01*
X194905348Y-117200000D01*
X194885972Y-116842629D01*
X194828071Y-116489448D01*
X194732324Y-116144597D01*
X194599853Y-115812120D01*
X194432211Y-115495915D01*
X194231365Y-115199689D01*
X194231361Y-115199684D01*
X194231358Y-115199680D01*
X193999668Y-114926914D01*
X193999668Y-114926913D01*
X193739837Y-114680789D01*
X193739830Y-114680783D01*
X193739827Y-114680781D01*
X193672245Y-114629407D01*
X193454919Y-114464200D01*
X193148253Y-114279685D01*
X193148252Y-114279684D01*
X193148248Y-114279682D01*
X193148244Y-114279680D01*
X192823447Y-114129414D01*
X192823441Y-114129411D01*
X192823435Y-114129409D01*
X192653854Y-114072270D01*
X192484273Y-114015131D01*
X192134744Y-113938194D01*
X191778949Y-113899500D01*
X191778948Y-113899500D01*
X191421052Y-113899500D01*
X191421050Y-113899500D01*
X191065255Y-113938194D01*
X190715726Y-114015131D01*
X190459969Y-114101306D01*
X190376565Y-114129409D01*
X190376562Y-114129410D01*
X190376563Y-114129410D01*
X190376552Y-114129414D01*
X190051755Y-114279680D01*
X190051751Y-114279682D01*
X189823367Y-114417096D01*
X189745081Y-114464200D01*
X189656768Y-114531333D01*
X189460172Y-114680781D01*
X189460163Y-114680789D01*
X189200331Y-114926914D01*
X188968641Y-115199680D01*
X188968634Y-115199690D01*
X188767790Y-115495913D01*
X188767784Y-115495922D01*
X188600151Y-115812111D01*
X188600142Y-115812129D01*
X188467674Y-116144600D01*
X188467672Y-116144607D01*
X188371932Y-116489434D01*
X188371926Y-116489460D01*
X188314029Y-116842614D01*
X188314028Y-116842631D01*
X188294652Y-117199997D01*
X188294652Y-117200002D01*
X103376981Y-117200002D01*
X103139765Y-116557699D01*
X103139180Y-116556044D01*
X102689968Y-115224978D01*
X102689446Y-115223360D01*
X102278051Y-113880014D01*
X102277589Y-113878427D01*
X101904375Y-112523979D01*
X101903957Y-112522374D01*
X101569237Y-111157967D01*
X101568843Y-111156257D01*
X101490700Y-110793673D01*
X101272869Y-109782937D01*
X101272530Y-109781245D01*
X101015543Y-108400121D01*
X101015246Y-108398391D01*
X100797440Y-107010507D01*
X100797199Y-107008811D01*
X100618756Y-105615325D01*
X100618565Y-105613644D01*
X100479629Y-104215682D01*
X100479482Y-104213952D01*
X100450852Y-103810005D01*
X103494357Y-103810005D01*
X103514890Y-104057812D01*
X103514892Y-104057824D01*
X103575936Y-104298881D01*
X103675826Y-104526606D01*
X103811833Y-104734782D01*
X103811836Y-104734785D01*
X103980256Y-104917738D01*
X104176491Y-105070474D01*
X104395190Y-105188828D01*
X104630386Y-105269571D01*
X104875665Y-105310500D01*
X105124335Y-105310500D01*
X105369614Y-105269571D01*
X105604810Y-105188828D01*
X105823509Y-105070474D01*
X106019744Y-104917738D01*
X106188164Y-104734785D01*
X106324173Y-104526607D01*
X106424063Y-104298881D01*
X106485108Y-104057821D01*
X106505643Y-103810000D01*
X106485108Y-103562179D01*
X106424063Y-103321119D01*
X106324173Y-103093393D01*
X106188166Y-102885217D01*
X106128727Y-102820649D01*
X106019744Y-102702262D01*
X105992525Y-102681077D01*
X105936991Y-102637852D01*
X105896178Y-102581141D01*
X105892505Y-102511368D01*
X105927136Y-102450685D01*
X105936974Y-102442160D01*
X106019744Y-102377738D01*
X106188164Y-102194785D01*
X106324173Y-101986607D01*
X106424063Y-101758881D01*
X106485108Y-101517821D01*
X106488255Y-101479844D01*
X106505643Y-101270005D01*
X106505643Y-101269994D01*
X106485109Y-101022187D01*
X106485107Y-101022175D01*
X106424063Y-100781118D01*
X106324173Y-100553393D01*
X106188166Y-100345217D01*
X106082561Y-100230500D01*
X106019744Y-100162262D01*
X105916253Y-100081712D01*
X105875442Y-100025003D01*
X105868655Y-99976176D01*
X105870056Y-99953609D01*
X105132533Y-99216086D01*
X105142315Y-99214680D01*
X105273100Y-99154952D01*
X105381761Y-99060798D01*
X105459493Y-98939844D01*
X105483076Y-98859524D01*
X106223434Y-99599882D01*
X106323731Y-99446369D01*
X106423587Y-99218717D01*
X106484612Y-98977738D01*
X106484614Y-98977729D01*
X106505141Y-98730005D01*
X106505141Y-98729994D01*
X106484614Y-98482270D01*
X106484612Y-98482261D01*
X106423587Y-98241282D01*
X106323733Y-98013635D01*
X106192817Y-97813252D01*
X106172630Y-97746362D01*
X106191810Y-97679176D01*
X106237203Y-97636595D01*
X106242321Y-97633799D01*
X106242331Y-97633796D01*
X106357546Y-97547546D01*
X106443796Y-97432331D01*
X106494091Y-97297483D01*
X106500500Y-97237873D01*
X106500499Y-95142128D01*
X106494091Y-95082517D01*
X106443796Y-94947669D01*
X106443795Y-94947668D01*
X106443793Y-94947664D01*
X106357547Y-94832455D01*
X106357544Y-94832452D01*
X106242335Y-94746206D01*
X106242328Y-94746202D01*
X106107482Y-94695908D01*
X106107483Y-94695908D01*
X106047883Y-94689501D01*
X106047881Y-94689500D01*
X106047873Y-94689500D01*
X106047864Y-94689500D01*
X103952129Y-94689500D01*
X103952123Y-94689501D01*
X103892516Y-94695908D01*
X103757671Y-94746202D01*
X103757664Y-94746206D01*
X103642455Y-94832452D01*
X103642452Y-94832455D01*
X103556206Y-94947664D01*
X103556202Y-94947671D01*
X103505908Y-95082517D01*
X103499501Y-95142116D01*
X103499501Y-95142123D01*
X103499500Y-95142135D01*
X103499500Y-97237870D01*
X103499501Y-97237876D01*
X103505908Y-97297483D01*
X103556202Y-97432328D01*
X103556206Y-97432335D01*
X103642452Y-97547544D01*
X103642455Y-97547547D01*
X103757663Y-97633793D01*
X103762799Y-97636597D01*
X103812205Y-97686002D01*
X103827057Y-97754275D01*
X103807182Y-97813251D01*
X103676267Y-98013632D01*
X103576412Y-98241282D01*
X103515387Y-98482261D01*
X103515385Y-98482270D01*
X103494858Y-98729994D01*
X103494858Y-98730005D01*
X103515385Y-98977729D01*
X103515387Y-98977738D01*
X103576412Y-99218717D01*
X103676266Y-99446364D01*
X103776564Y-99599882D01*
X104516922Y-98859523D01*
X104540507Y-98939844D01*
X104618239Y-99060798D01*
X104726900Y-99154952D01*
X104857685Y-99214680D01*
X104867466Y-99216086D01*
X104129942Y-99953609D01*
X104131343Y-99976177D01*
X104115850Y-100044307D01*
X104083744Y-100081713D01*
X103980258Y-100162260D01*
X103811833Y-100345217D01*
X103675826Y-100553393D01*
X103575936Y-100781118D01*
X103514892Y-101022175D01*
X103514890Y-101022187D01*
X103494357Y-101269994D01*
X103494357Y-101270005D01*
X103514890Y-101517812D01*
X103514892Y-101517824D01*
X103575936Y-101758881D01*
X103675826Y-101986606D01*
X103811833Y-102194782D01*
X103811836Y-102194785D01*
X103980256Y-102377738D01*
X104063008Y-102442146D01*
X104103820Y-102498856D01*
X104107495Y-102568629D01*
X104072864Y-102629312D01*
X104063009Y-102637852D01*
X103980255Y-102702262D01*
X103811833Y-102885217D01*
X103675826Y-103093393D01*
X103575936Y-103321118D01*
X103514892Y-103562175D01*
X103514890Y-103562187D01*
X103494357Y-103809994D01*
X103494357Y-103810005D01*
X100450852Y-103810005D01*
X100433288Y-103562187D01*
X100380158Y-102812569D01*
X100380065Y-102810914D01*
X100320438Y-101407254D01*
X100320392Y-101405585D01*
X100308335Y-100553630D01*
X100300512Y-100000847D01*
X100300512Y-99999124D01*
X100300635Y-99990474D01*
X100318473Y-98729994D01*
X100320392Y-98594414D01*
X100320438Y-98592747D01*
X100380065Y-97189081D01*
X100380158Y-97187434D01*
X100479482Y-95786038D01*
X100479631Y-95784299D01*
X100487898Y-95701118D01*
X100618566Y-94386347D01*
X100618759Y-94384649D01*
X100620946Y-94367577D01*
X100797202Y-92991164D01*
X100797438Y-92989501D01*
X101015250Y-91601580D01*
X101015543Y-91599878D01*
X101015871Y-91598118D01*
X101080645Y-91250005D01*
X123244858Y-91250005D01*
X123265385Y-91497729D01*
X123265387Y-91497738D01*
X123326412Y-91738717D01*
X123426266Y-91966364D01*
X123526564Y-92119882D01*
X124330195Y-91316251D01*
X124340762Y-91382969D01*
X124401882Y-91502923D01*
X124497077Y-91598118D01*
X124617031Y-91659238D01*
X124683747Y-91669804D01*
X123879942Y-92473609D01*
X123926768Y-92510055D01*
X123926770Y-92510056D01*
X124145385Y-92628364D01*
X124145396Y-92628369D01*
X124380506Y-92709083D01*
X124625707Y-92750000D01*
X124874293Y-92750000D01*
X125119493Y-92709083D01*
X125354603Y-92628369D01*
X125354614Y-92628364D01*
X125573228Y-92510057D01*
X125573231Y-92510055D01*
X125620056Y-92473609D01*
X124816251Y-91669804D01*
X124882969Y-91659238D01*
X125002923Y-91598118D01*
X125098118Y-91502923D01*
X125159238Y-91382969D01*
X125169804Y-91316251D01*
X125973434Y-92119882D01*
X126073731Y-91966369D01*
X126173587Y-91738717D01*
X126234612Y-91497738D01*
X126234614Y-91497729D01*
X126255141Y-91250005D01*
X127244357Y-91250005D01*
X127264890Y-91497812D01*
X127264892Y-91497824D01*
X127325936Y-91738881D01*
X127425826Y-91966606D01*
X127561833Y-92174782D01*
X127561836Y-92174785D01*
X127730256Y-92357738D01*
X127926491Y-92510474D01*
X127926493Y-92510475D01*
X128144332Y-92628364D01*
X128145190Y-92628828D01*
X128364141Y-92703994D01*
X128378964Y-92709083D01*
X128380386Y-92709571D01*
X128625665Y-92750500D01*
X128874335Y-92750500D01*
X129119614Y-92709571D01*
X129354810Y-92628828D01*
X129573509Y-92510474D01*
X129769744Y-92357738D01*
X129938164Y-92174785D01*
X130074173Y-91966607D01*
X130174063Y-91738881D01*
X130235108Y-91497821D01*
X130255643Y-91250000D01*
X130235108Y-91002179D01*
X130208333Y-90896447D01*
X130174063Y-90761118D01*
X130074173Y-90533393D01*
X129938166Y-90325217D01*
X129916557Y-90301744D01*
X129769744Y-90142262D01*
X129573509Y-89989526D01*
X129573507Y-89989525D01*
X129573506Y-89989524D01*
X129354811Y-89871172D01*
X129354802Y-89871169D01*
X129119616Y-89790429D01*
X128874335Y-89749500D01*
X128625665Y-89749500D01*
X128380383Y-89790429D01*
X128145197Y-89871169D01*
X128145188Y-89871172D01*
X127926493Y-89989524D01*
X127730257Y-90142261D01*
X127561833Y-90325217D01*
X127425826Y-90533393D01*
X127325936Y-90761118D01*
X127264892Y-91002175D01*
X127264890Y-91002187D01*
X127244357Y-91249994D01*
X127244357Y-91250005D01*
X126255141Y-91250005D01*
X126255141Y-91249994D01*
X126234614Y-91002270D01*
X126234612Y-91002261D01*
X126173587Y-90761282D01*
X126073731Y-90533630D01*
X125973434Y-90380116D01*
X125169804Y-91183746D01*
X125159238Y-91117031D01*
X125098118Y-90997077D01*
X125002923Y-90901882D01*
X124882969Y-90840762D01*
X124816252Y-90830195D01*
X125620057Y-90026390D01*
X125620056Y-90026389D01*
X125573229Y-89989943D01*
X125354614Y-89871635D01*
X125354603Y-89871630D01*
X125119493Y-89790916D01*
X124874293Y-89750000D01*
X124625707Y-89750000D01*
X124380506Y-89790916D01*
X124145396Y-89871630D01*
X124145390Y-89871632D01*
X123926761Y-89989949D01*
X123879942Y-90026388D01*
X123879942Y-90026390D01*
X124683748Y-90830195D01*
X124617031Y-90840762D01*
X124497077Y-90901882D01*
X124401882Y-90997077D01*
X124340762Y-91117031D01*
X124330195Y-91183747D01*
X123526564Y-90380116D01*
X123426267Y-90533632D01*
X123326412Y-90761282D01*
X123265387Y-91002261D01*
X123265385Y-91002270D01*
X123244858Y-91249994D01*
X123244858Y-91250005D01*
X101080645Y-91250005D01*
X101272530Y-90218754D01*
X101272866Y-90217075D01*
X101568845Y-88843730D01*
X101569237Y-88842032D01*
X101570524Y-88836785D01*
X139789500Y-88836785D01*
X139804364Y-89006687D01*
X139804366Y-89006697D01*
X139863258Y-89226488D01*
X139863261Y-89226497D01*
X139959431Y-89432732D01*
X139959432Y-89432734D01*
X140089954Y-89619141D01*
X140250858Y-89780045D01*
X140265688Y-89790429D01*
X140437266Y-89910568D01*
X140643504Y-90006739D01*
X140863308Y-90065635D01*
X141025230Y-90079801D01*
X141089998Y-90085468D01*
X141090000Y-90085468D01*
X141090002Y-90085468D01*
X141146807Y-90080498D01*
X141316692Y-90065635D01*
X141536496Y-90006739D01*
X141742734Y-89910568D01*
X141929139Y-89780047D01*
X142090047Y-89619139D01*
X142220568Y-89432734D01*
X142247618Y-89374724D01*
X142293790Y-89322285D01*
X142360983Y-89303133D01*
X142427865Y-89323348D01*
X142472382Y-89374725D01*
X142499429Y-89432728D01*
X142499432Y-89432734D01*
X142629954Y-89619141D01*
X142790858Y-89780045D01*
X142805688Y-89790429D01*
X142977266Y-89910568D01*
X143183504Y-90006739D01*
X143403308Y-90065635D01*
X143565230Y-90079801D01*
X143629998Y-90085468D01*
X143630000Y-90085468D01*
X143630002Y-90085468D01*
X143686807Y-90080498D01*
X143856692Y-90065635D01*
X144076496Y-90006739D01*
X144282734Y-89910568D01*
X144469139Y-89780047D01*
X144630047Y-89619139D01*
X144760568Y-89432734D01*
X144787618Y-89374724D01*
X144833790Y-89322285D01*
X144900983Y-89303133D01*
X144967865Y-89323348D01*
X145012382Y-89374725D01*
X145039429Y-89432728D01*
X145039432Y-89432734D01*
X145169954Y-89619141D01*
X145330858Y-89780045D01*
X145345688Y-89790429D01*
X145517266Y-89910568D01*
X145723504Y-90006739D01*
X145943308Y-90065635D01*
X146105230Y-90079801D01*
X146169998Y-90085468D01*
X146170000Y-90085468D01*
X146170002Y-90085468D01*
X146226807Y-90080498D01*
X146396692Y-90065635D01*
X146616496Y-90006739D01*
X146822734Y-89910568D01*
X147009139Y-89780047D01*
X147170047Y-89619139D01*
X147300568Y-89432734D01*
X147327619Y-89374721D01*
X147373788Y-89322286D01*
X147440981Y-89303133D01*
X147507862Y-89323348D01*
X147552380Y-89374722D01*
X147579432Y-89432734D01*
X147579433Y-89432735D01*
X147709954Y-89619141D01*
X147870858Y-89780045D01*
X147885688Y-89790429D01*
X148057266Y-89910568D01*
X148263504Y-90006739D01*
X148483308Y-90065635D01*
X148645230Y-90079801D01*
X148709998Y-90085468D01*
X148710000Y-90085468D01*
X148710002Y-90085468D01*
X148766807Y-90080498D01*
X148936692Y-90065635D01*
X149156496Y-90006739D01*
X149362734Y-89910568D01*
X149549139Y-89780047D01*
X149710047Y-89619139D01*
X149840568Y-89432734D01*
X149867619Y-89374721D01*
X149913788Y-89322286D01*
X149980981Y-89303133D01*
X150047862Y-89323348D01*
X150092380Y-89374722D01*
X150119432Y-89432734D01*
X150119433Y-89432735D01*
X150249954Y-89619141D01*
X150410858Y-89780045D01*
X150425688Y-89790429D01*
X150597266Y-89910568D01*
X150803504Y-90006739D01*
X151023308Y-90065635D01*
X151185230Y-90079801D01*
X151249998Y-90085468D01*
X151250000Y-90085468D01*
X151250002Y-90085468D01*
X151306807Y-90080498D01*
X151476692Y-90065635D01*
X151696496Y-90006739D01*
X151902734Y-89910568D01*
X152089139Y-89780047D01*
X152250047Y-89619139D01*
X152380568Y-89432734D01*
X152407618Y-89374724D01*
X152453790Y-89322285D01*
X152520983Y-89303133D01*
X152587865Y-89323348D01*
X152632382Y-89374725D01*
X152659429Y-89432728D01*
X152659432Y-89432734D01*
X152789954Y-89619141D01*
X152950858Y-89780045D01*
X152965688Y-89790429D01*
X153137266Y-89910568D01*
X153343504Y-90006739D01*
X153563308Y-90065635D01*
X153725230Y-90079801D01*
X153789998Y-90085468D01*
X153790000Y-90085468D01*
X153790002Y-90085468D01*
X153846807Y-90080498D01*
X154016692Y-90065635D01*
X154236496Y-90006739D01*
X154442734Y-89910568D01*
X154629139Y-89780047D01*
X154790047Y-89619139D01*
X154920568Y-89432734D01*
X154947618Y-89374724D01*
X154993790Y-89322285D01*
X155060983Y-89303133D01*
X155127865Y-89323348D01*
X155172382Y-89374725D01*
X155199429Y-89432728D01*
X155199432Y-89432734D01*
X155329954Y-89619141D01*
X155490858Y-89780045D01*
X155505688Y-89790429D01*
X155677266Y-89910568D01*
X155883504Y-90006739D01*
X156103308Y-90065635D01*
X156265230Y-90079801D01*
X156329998Y-90085468D01*
X156330000Y-90085468D01*
X156330002Y-90085468D01*
X156386807Y-90080498D01*
X156556692Y-90065635D01*
X156776496Y-90006739D01*
X156982734Y-89910568D01*
X157169139Y-89780047D01*
X157208447Y-89740738D01*
X157269770Y-89707252D01*
X157339462Y-89712236D01*
X157395396Y-89754106D01*
X157412312Y-89785086D01*
X157426201Y-89822326D01*
X157426206Y-89822335D01*
X157512452Y-89937544D01*
X157512455Y-89937547D01*
X157627664Y-90023793D01*
X157627671Y-90023797D01*
X157762517Y-90074091D01*
X157762516Y-90074091D01*
X157769444Y-90074835D01*
X157822127Y-90080500D01*
X159917872Y-90080499D01*
X159977483Y-90074091D01*
X160082666Y-90034860D01*
X160152359Y-90029876D01*
X160213682Y-90063361D01*
X160247166Y-90124684D01*
X160250000Y-90151042D01*
X160250000Y-110562847D01*
X160230315Y-110629886D01*
X160177511Y-110675641D01*
X160108353Y-110685585D01*
X160044797Y-110656560D01*
X160013618Y-110615252D01*
X160000686Y-110587520D01*
X160000568Y-110587266D01*
X159870047Y-110400861D01*
X159870045Y-110400858D01*
X159709141Y-110239954D01*
X159522734Y-110109432D01*
X159522732Y-110109431D01*
X159316497Y-110013261D01*
X159316488Y-110013258D01*
X159096697Y-109954366D01*
X159096693Y-109954365D01*
X159096692Y-109954365D01*
X159096691Y-109954364D01*
X159096686Y-109954364D01*
X158870002Y-109934532D01*
X158869998Y-109934532D01*
X158643313Y-109954364D01*
X158643302Y-109954366D01*
X158423511Y-110013258D01*
X158423502Y-110013261D01*
X158217267Y-110109431D01*
X158217265Y-110109432D01*
X158030858Y-110239954D01*
X157869954Y-110400858D01*
X157739432Y-110587265D01*
X157739431Y-110587267D01*
X157712382Y-110645275D01*
X157666209Y-110697714D01*
X157599016Y-110716866D01*
X157532135Y-110696650D01*
X157487618Y-110645275D01*
X157460686Y-110587520D01*
X157460568Y-110587266D01*
X157330047Y-110400861D01*
X157330045Y-110400858D01*
X157169141Y-110239954D01*
X156982734Y-110109432D01*
X156982732Y-110109431D01*
X156776497Y-110013261D01*
X156776488Y-110013258D01*
X156556697Y-109954366D01*
X156556693Y-109954365D01*
X156556692Y-109954365D01*
X156556691Y-109954364D01*
X156556686Y-109954364D01*
X156330002Y-109934532D01*
X156329998Y-109934532D01*
X156103313Y-109954364D01*
X156103302Y-109954366D01*
X155883511Y-110013258D01*
X155883502Y-110013261D01*
X155677267Y-110109431D01*
X155677265Y-110109432D01*
X155490858Y-110239954D01*
X155329954Y-110400858D01*
X155199432Y-110587265D01*
X155199431Y-110587267D01*
X155172382Y-110645275D01*
X155126209Y-110697714D01*
X155059016Y-110716866D01*
X154992135Y-110696650D01*
X154947618Y-110645275D01*
X154920686Y-110587520D01*
X154920568Y-110587266D01*
X154790047Y-110400861D01*
X154790045Y-110400858D01*
X154629141Y-110239954D01*
X154442734Y-110109432D01*
X154442732Y-110109431D01*
X154236497Y-110013261D01*
X154236488Y-110013258D01*
X154016697Y-109954366D01*
X154016693Y-109954365D01*
X154016692Y-109954365D01*
X154016691Y-109954364D01*
X154016686Y-109954364D01*
X153790002Y-109934532D01*
X153789998Y-109934532D01*
X153563313Y-109954364D01*
X153563302Y-109954366D01*
X153343511Y-110013258D01*
X153343502Y-110013261D01*
X153137267Y-110109431D01*
X153137265Y-110109432D01*
X152950858Y-110239954D01*
X152789954Y-110400858D01*
X152659432Y-110587265D01*
X152659431Y-110587267D01*
X152632382Y-110645275D01*
X152586209Y-110697714D01*
X152519016Y-110716866D01*
X152452135Y-110696650D01*
X152407618Y-110645275D01*
X152380686Y-110587520D01*
X152380568Y-110587266D01*
X152250047Y-110400861D01*
X152250045Y-110400858D01*
X152089141Y-110239954D01*
X151902734Y-110109432D01*
X151902732Y-110109431D01*
X151696497Y-110013261D01*
X151696488Y-110013258D01*
X151476697Y-109954366D01*
X151476693Y-109954365D01*
X151476692Y-109954365D01*
X151476691Y-109954364D01*
X151476686Y-109954364D01*
X151250002Y-109934532D01*
X151249998Y-109934532D01*
X151023313Y-109954364D01*
X151023302Y-109954366D01*
X150803511Y-110013258D01*
X150803502Y-110013261D01*
X150597267Y-110109431D01*
X150597265Y-110109432D01*
X150410858Y-110239954D01*
X150249954Y-110400858D01*
X150119432Y-110587265D01*
X150119431Y-110587267D01*
X150092382Y-110645275D01*
X150046209Y-110697714D01*
X149979016Y-110716866D01*
X149912135Y-110696650D01*
X149867618Y-110645275D01*
X149840686Y-110587520D01*
X149840568Y-110587266D01*
X149710047Y-110400861D01*
X149710045Y-110400858D01*
X149549141Y-110239954D01*
X149362734Y-110109432D01*
X149362732Y-110109431D01*
X149156497Y-110013261D01*
X149156488Y-110013258D01*
X148936697Y-109954366D01*
X148936693Y-109954365D01*
X148936692Y-109954365D01*
X148936691Y-109954364D01*
X148936686Y-109954364D01*
X148710002Y-109934532D01*
X148709998Y-109934532D01*
X148483313Y-109954364D01*
X148483302Y-109954366D01*
X148263511Y-110013258D01*
X148263502Y-110013261D01*
X148057267Y-110109431D01*
X148057265Y-110109432D01*
X147870858Y-110239954D01*
X147709954Y-110400858D01*
X147579432Y-110587265D01*
X147579431Y-110587267D01*
X147552382Y-110645275D01*
X147506209Y-110697714D01*
X147439016Y-110716866D01*
X147372135Y-110696650D01*
X147327618Y-110645275D01*
X147300686Y-110587520D01*
X147300568Y-110587266D01*
X147170047Y-110400861D01*
X147170045Y-110400858D01*
X147009141Y-110239954D01*
X146822734Y-110109432D01*
X146822732Y-110109431D01*
X146616497Y-110013261D01*
X146616488Y-110013258D01*
X146396697Y-109954366D01*
X146396693Y-109954365D01*
X146396692Y-109954365D01*
X146396691Y-109954364D01*
X146396686Y-109954364D01*
X146170002Y-109934532D01*
X146169998Y-109934532D01*
X145943313Y-109954364D01*
X145943302Y-109954366D01*
X145723511Y-110013258D01*
X145723502Y-110013261D01*
X145517267Y-110109431D01*
X145517265Y-110109432D01*
X145330858Y-110239954D01*
X145169954Y-110400858D01*
X145039432Y-110587265D01*
X145039431Y-110587267D01*
X145012382Y-110645275D01*
X144966209Y-110697714D01*
X144899016Y-110716866D01*
X144832135Y-110696650D01*
X144787618Y-110645275D01*
X144760686Y-110587520D01*
X144760568Y-110587266D01*
X144630047Y-110400861D01*
X144630045Y-110400858D01*
X144469141Y-110239954D01*
X144282734Y-110109432D01*
X144282732Y-110109431D01*
X144076497Y-110013261D01*
X144076488Y-110013258D01*
X143856697Y-109954366D01*
X143856693Y-109954365D01*
X143856692Y-109954365D01*
X143856691Y-109954364D01*
X143856686Y-109954364D01*
X143630002Y-109934532D01*
X143629998Y-109934532D01*
X143403313Y-109954364D01*
X143403302Y-109954366D01*
X143183511Y-110013258D01*
X143183502Y-110013261D01*
X142977267Y-110109431D01*
X142977265Y-110109432D01*
X142790858Y-110239954D01*
X142629954Y-110400858D01*
X142516530Y-110562847D01*
X142499432Y-110587266D01*
X142499315Y-110587518D01*
X142472106Y-110645867D01*
X142425933Y-110698306D01*
X142358739Y-110717457D01*
X142291858Y-110697241D01*
X142247342Y-110645865D01*
X142220135Y-110587520D01*
X142220134Y-110587518D01*
X142089657Y-110401179D01*
X141928820Y-110240342D01*
X141742482Y-110109865D01*
X141536328Y-110013734D01*
X141340000Y-109961127D01*
X141340000Y-111004498D01*
X141232315Y-110955320D01*
X141125763Y-110940000D01*
X141054237Y-110940000D01*
X140947685Y-110955320D01*
X140840000Y-111004498D01*
X140840000Y-109961127D01*
X140643671Y-110013734D01*
X140437517Y-110109865D01*
X140251179Y-110240342D01*
X140090342Y-110401179D01*
X139959865Y-110587517D01*
X139863734Y-110793673D01*
X139863730Y-110793682D01*
X139804860Y-111013389D01*
X139804858Y-111013400D01*
X139790000Y-111183233D01*
X139790000Y-111190000D01*
X140656314Y-111190000D01*
X140630507Y-111230156D01*
X140590000Y-111368111D01*
X140590000Y-111511889D01*
X140630507Y-111649844D01*
X140656314Y-111690000D01*
X139790000Y-111690000D01*
X139790000Y-111696766D01*
X139804858Y-111866599D01*
X139804860Y-111866610D01*
X139863730Y-112086317D01*
X139863734Y-112086326D01*
X139959865Y-112292482D01*
X140090342Y-112478820D01*
X140251179Y-112639657D01*
X140437517Y-112770134D01*
X140643673Y-112866265D01*
X140643682Y-112866269D01*
X140839999Y-112918872D01*
X140840000Y-112918871D01*
X140840000Y-111875501D01*
X140947685Y-111924680D01*
X141054237Y-111940000D01*
X141125763Y-111940000D01*
X141232315Y-111924680D01*
X141340000Y-111875501D01*
X141340000Y-112918872D01*
X141536317Y-112866269D01*
X141536326Y-112866265D01*
X141742482Y-112770134D01*
X141928820Y-112639657D01*
X142089657Y-112478820D01*
X142220132Y-112292484D01*
X142247341Y-112234134D01*
X142293513Y-112181695D01*
X142360707Y-112162542D01*
X142427588Y-112182757D01*
X142472105Y-112234132D01*
X142486382Y-112264748D01*
X142499431Y-112292732D01*
X142499432Y-112292734D01*
X142629954Y-112479141D01*
X142790858Y-112640045D01*
X142790861Y-112640047D01*
X142977266Y-112770568D01*
X143183504Y-112866739D01*
X143403308Y-112925635D01*
X143565230Y-112939801D01*
X143629998Y-112945468D01*
X143630000Y-112945468D01*
X143630002Y-112945468D01*
X143686672Y-112940509D01*
X143856692Y-112925635D01*
X144076496Y-112866739D01*
X144282734Y-112770568D01*
X144469139Y-112640047D01*
X144630047Y-112479139D01*
X144760568Y-112292734D01*
X144787618Y-112234724D01*
X144833790Y-112182285D01*
X144900983Y-112163133D01*
X144967865Y-112183348D01*
X145012382Y-112234725D01*
X145039429Y-112292728D01*
X145039432Y-112292734D01*
X145169954Y-112479141D01*
X145330858Y-112640045D01*
X145330861Y-112640047D01*
X145517266Y-112770568D01*
X145723504Y-112866739D01*
X145943308Y-112925635D01*
X146105230Y-112939801D01*
X146169998Y-112945468D01*
X146170000Y-112945468D01*
X146170002Y-112945468D01*
X146226673Y-112940509D01*
X146396692Y-112925635D01*
X146616496Y-112866739D01*
X146822734Y-112770568D01*
X147009139Y-112640047D01*
X147170047Y-112479139D01*
X147300568Y-112292734D01*
X147327618Y-112234724D01*
X147373790Y-112182285D01*
X147440983Y-112163133D01*
X147507865Y-112183348D01*
X147552382Y-112234725D01*
X147579429Y-112292728D01*
X147579432Y-112292734D01*
X147709954Y-112479141D01*
X147870858Y-112640045D01*
X147870861Y-112640047D01*
X148057266Y-112770568D01*
X148263504Y-112866739D01*
X148483308Y-112925635D01*
X148645230Y-112939801D01*
X148709998Y-112945468D01*
X148710000Y-112945468D01*
X148710002Y-112945468D01*
X148766673Y-112940509D01*
X148936692Y-112925635D01*
X149156496Y-112866739D01*
X149362734Y-112770568D01*
X149549139Y-112640047D01*
X149710047Y-112479139D01*
X149840568Y-112292734D01*
X149867619Y-112234721D01*
X149913788Y-112182286D01*
X149980981Y-112163133D01*
X150047862Y-112183348D01*
X150092380Y-112234722D01*
X150119432Y-112292734D01*
X150136530Y-112317152D01*
X150249954Y-112479141D01*
X150410858Y-112640045D01*
X150410861Y-112640047D01*
X150597266Y-112770568D01*
X150803504Y-112866739D01*
X151023308Y-112925635D01*
X151185230Y-112939801D01*
X151249998Y-112945468D01*
X151250000Y-112945468D01*
X151250002Y-112945468D01*
X151306673Y-112940509D01*
X151476692Y-112925635D01*
X151696496Y-112866739D01*
X151902734Y-112770568D01*
X152089139Y-112640047D01*
X152250047Y-112479139D01*
X152380568Y-112292734D01*
X152407618Y-112234724D01*
X152453790Y-112182285D01*
X152520983Y-112163133D01*
X152587865Y-112183348D01*
X152632382Y-112234725D01*
X152659429Y-112292728D01*
X152659432Y-112292734D01*
X152789954Y-112479141D01*
X152950858Y-112640045D01*
X152950861Y-112640047D01*
X153137266Y-112770568D01*
X153343504Y-112866739D01*
X153563308Y-112925635D01*
X153725230Y-112939801D01*
X153789998Y-112945468D01*
X153790000Y-112945468D01*
X153790002Y-112945468D01*
X153846672Y-112940509D01*
X154016692Y-112925635D01*
X154236496Y-112866739D01*
X154442734Y-112770568D01*
X154629139Y-112640047D01*
X154790047Y-112479139D01*
X154920568Y-112292734D01*
X154947618Y-112234724D01*
X154993790Y-112182285D01*
X155060983Y-112163133D01*
X155127865Y-112183348D01*
X155172382Y-112234725D01*
X155199429Y-112292728D01*
X155199432Y-112292734D01*
X155329954Y-112479141D01*
X155490858Y-112640045D01*
X155490861Y-112640047D01*
X155677266Y-112770568D01*
X155883504Y-112866739D01*
X156103308Y-112925635D01*
X156265230Y-112939801D01*
X156329998Y-112945468D01*
X156330000Y-112945468D01*
X156330002Y-112945468D01*
X156386672Y-112940509D01*
X156556692Y-112925635D01*
X156776496Y-112866739D01*
X156982734Y-112770568D01*
X157169139Y-112640047D01*
X157330047Y-112479139D01*
X157460568Y-112292734D01*
X157487618Y-112234724D01*
X157533790Y-112182285D01*
X157600983Y-112163133D01*
X157667865Y-112183348D01*
X157712382Y-112234725D01*
X157739429Y-112292728D01*
X157739432Y-112292734D01*
X157869954Y-112479141D01*
X158030858Y-112640045D01*
X158030861Y-112640047D01*
X158217266Y-112770568D01*
X158423504Y-112866739D01*
X158643308Y-112925635D01*
X158805230Y-112939801D01*
X158869998Y-112945468D01*
X158870000Y-112945468D01*
X158870002Y-112945468D01*
X158926672Y-112940509D01*
X159096692Y-112925635D01*
X159316496Y-112866739D01*
X159522734Y-112770568D01*
X159709139Y-112640047D01*
X159870047Y-112479139D01*
X160000568Y-112292734D01*
X160013619Y-112264745D01*
X160059790Y-112212308D01*
X160126983Y-112193156D01*
X160193864Y-112213371D01*
X160239199Y-112266536D01*
X160250000Y-112317152D01*
X160250000Y-112750000D01*
X167250000Y-112750000D01*
X167250000Y-98730005D01*
X193494357Y-98730005D01*
X193514890Y-98977812D01*
X193514892Y-98977824D01*
X193575936Y-99218881D01*
X193675826Y-99446606D01*
X193811833Y-99654782D01*
X193811836Y-99654785D01*
X193980256Y-99837738D01*
X193980259Y-99837740D01*
X193980262Y-99837743D01*
X194083743Y-99918286D01*
X194124556Y-99974996D01*
X194131343Y-100023823D01*
X194129941Y-100046389D01*
X194867466Y-100783913D01*
X194857685Y-100785320D01*
X194726900Y-100845048D01*
X194618239Y-100939202D01*
X194540507Y-101060156D01*
X194516923Y-101140475D01*
X193776564Y-100400116D01*
X193676267Y-100553632D01*
X193576412Y-100781282D01*
X193515387Y-101022261D01*
X193515385Y-101022270D01*
X193494859Y-101269994D01*
X193494859Y-101270005D01*
X193515385Y-101517729D01*
X193515387Y-101517738D01*
X193576412Y-101758717D01*
X193676267Y-101986367D01*
X193807182Y-102186748D01*
X193827369Y-102253637D01*
X193808189Y-102320823D01*
X193762806Y-102363398D01*
X193757667Y-102366204D01*
X193642455Y-102452452D01*
X193642452Y-102452455D01*
X193556206Y-102567664D01*
X193556202Y-102567671D01*
X193505908Y-102702517D01*
X193499501Y-102762116D01*
X193499501Y-102762123D01*
X193499500Y-102762135D01*
X193499500Y-104857870D01*
X193499501Y-104857876D01*
X193505908Y-104917483D01*
X193556202Y-105052328D01*
X193556206Y-105052335D01*
X193642452Y-105167544D01*
X193642455Y-105167547D01*
X193757664Y-105253793D01*
X193757671Y-105253797D01*
X193892517Y-105304091D01*
X193892516Y-105304091D01*
X193899444Y-105304835D01*
X193952127Y-105310500D01*
X196047872Y-105310499D01*
X196107483Y-105304091D01*
X196242331Y-105253796D01*
X196357546Y-105167546D01*
X196443796Y-105052331D01*
X196494091Y-104917483D01*
X196500500Y-104857873D01*
X196500499Y-102762128D01*
X196494091Y-102702517D01*
X196493995Y-102702260D01*
X196443797Y-102567671D01*
X196443793Y-102567664D01*
X196357547Y-102452455D01*
X196357544Y-102452452D01*
X196242333Y-102366204D01*
X196237197Y-102363400D01*
X196187793Y-102313994D01*
X196172942Y-102245721D01*
X196192817Y-102186747D01*
X196323733Y-101986364D01*
X196423587Y-101758717D01*
X196484612Y-101517738D01*
X196484614Y-101517729D01*
X196505141Y-101270005D01*
X196505141Y-101269994D01*
X196484614Y-101022270D01*
X196484612Y-101022261D01*
X196423587Y-100781282D01*
X196323731Y-100553630D01*
X196223434Y-100400116D01*
X195483076Y-101140474D01*
X195459493Y-101060156D01*
X195381761Y-100939202D01*
X195273100Y-100845048D01*
X195142315Y-100785320D01*
X195132534Y-100783913D01*
X195870056Y-100046390D01*
X195868655Y-100023825D01*
X195884147Y-99955694D01*
X195916250Y-99918290D01*
X196019744Y-99837738D01*
X196188164Y-99654785D01*
X196324173Y-99446607D01*
X196424063Y-99218881D01*
X196485108Y-98977821D01*
X196505643Y-98730000D01*
X196485108Y-98482179D01*
X196425127Y-98245320D01*
X196424063Y-98241118D01*
X196324173Y-98013393D01*
X196188166Y-97805217D01*
X196082561Y-97690500D01*
X196019744Y-97622262D01*
X195936991Y-97557852D01*
X195896179Y-97501143D01*
X195892504Y-97431370D01*
X195927136Y-97370687D01*
X195936985Y-97362151D01*
X196019744Y-97297738D01*
X196188164Y-97114785D01*
X196324173Y-96906607D01*
X196424063Y-96678881D01*
X196485108Y-96437821D01*
X196505643Y-96190000D01*
X196485108Y-95942179D01*
X196424063Y-95701119D01*
X196324173Y-95473393D01*
X196324172Y-95473392D01*
X196188166Y-95265217D01*
X196166557Y-95241744D01*
X196019744Y-95082262D01*
X195823509Y-94929526D01*
X195823507Y-94929525D01*
X195823506Y-94929524D01*
X195604811Y-94811172D01*
X195604802Y-94811169D01*
X195369616Y-94730429D01*
X195124335Y-94689500D01*
X194875665Y-94689500D01*
X194630383Y-94730429D01*
X194395197Y-94811169D01*
X194395188Y-94811172D01*
X194176493Y-94929524D01*
X193980257Y-95082261D01*
X193811833Y-95265217D01*
X193675826Y-95473393D01*
X193575936Y-95701118D01*
X193514892Y-95942175D01*
X193514890Y-95942187D01*
X193494357Y-96189994D01*
X193494357Y-96190005D01*
X193514890Y-96437812D01*
X193514892Y-96437824D01*
X193575936Y-96678881D01*
X193675826Y-96906606D01*
X193811833Y-97114782D01*
X193811836Y-97114785D01*
X193980256Y-97297738D01*
X194063008Y-97362147D01*
X194103821Y-97418857D01*
X194107496Y-97488630D01*
X194072864Y-97549313D01*
X194063014Y-97557848D01*
X194004400Y-97603469D01*
X193980257Y-97622261D01*
X193811833Y-97805217D01*
X193675826Y-98013393D01*
X193575936Y-98241118D01*
X193514892Y-98482175D01*
X193514890Y-98482187D01*
X193494357Y-98729994D01*
X193494357Y-98730005D01*
X167250000Y-98730005D01*
X167250000Y-87250000D01*
X160305614Y-87250000D01*
X160238575Y-87230315D01*
X160231303Y-87225266D01*
X160112335Y-87136206D01*
X160112328Y-87136202D01*
X159977482Y-87085908D01*
X159977483Y-87085908D01*
X159917883Y-87079501D01*
X159917881Y-87079500D01*
X159917873Y-87079500D01*
X159917864Y-87079500D01*
X157822129Y-87079500D01*
X157822123Y-87079501D01*
X157762516Y-87085908D01*
X157627671Y-87136202D01*
X157627664Y-87136206D01*
X157512455Y-87222452D01*
X157512452Y-87222455D01*
X157426206Y-87337664D01*
X157426202Y-87337671D01*
X157412312Y-87374914D01*
X157370441Y-87430848D01*
X157304976Y-87455265D01*
X157236703Y-87440413D01*
X157208449Y-87419262D01*
X157169141Y-87379954D01*
X156982734Y-87249432D01*
X156982732Y-87249431D01*
X156776497Y-87153261D01*
X156776488Y-87153258D01*
X156556697Y-87094366D01*
X156556693Y-87094365D01*
X156556692Y-87094365D01*
X156556691Y-87094364D01*
X156556686Y-87094364D01*
X156330002Y-87074532D01*
X156329998Y-87074532D01*
X156103313Y-87094364D01*
X156103302Y-87094366D01*
X155883511Y-87153258D01*
X155883502Y-87153261D01*
X155677267Y-87249431D01*
X155677265Y-87249432D01*
X155490858Y-87379954D01*
X155329954Y-87540858D01*
X155199432Y-87727265D01*
X155199431Y-87727267D01*
X155172382Y-87785275D01*
X155126209Y-87837714D01*
X155059016Y-87856866D01*
X154992135Y-87836650D01*
X154947618Y-87785275D01*
X154920568Y-87727267D01*
X154920567Y-87727265D01*
X154790045Y-87540858D01*
X154629141Y-87379954D01*
X154442734Y-87249432D01*
X154442732Y-87249431D01*
X154236497Y-87153261D01*
X154236488Y-87153258D01*
X154016697Y-87094366D01*
X154016693Y-87094365D01*
X154016692Y-87094365D01*
X154016691Y-87094364D01*
X154016686Y-87094364D01*
X153790002Y-87074532D01*
X153789998Y-87074532D01*
X153563313Y-87094364D01*
X153563302Y-87094366D01*
X153343511Y-87153258D01*
X153343502Y-87153261D01*
X153137267Y-87249431D01*
X153137265Y-87249432D01*
X152950858Y-87379954D01*
X152789954Y-87540858D01*
X152659432Y-87727265D01*
X152659431Y-87727267D01*
X152632382Y-87785275D01*
X152586209Y-87837714D01*
X152519016Y-87856866D01*
X152452135Y-87836650D01*
X152407618Y-87785275D01*
X152380568Y-87727267D01*
X152380567Y-87727265D01*
X152250045Y-87540858D01*
X152089141Y-87379954D01*
X151902734Y-87249432D01*
X151902732Y-87249431D01*
X151696497Y-87153261D01*
X151696488Y-87153258D01*
X151476697Y-87094366D01*
X151476693Y-87094365D01*
X151476692Y-87094365D01*
X151476691Y-87094364D01*
X151476686Y-87094364D01*
X151250002Y-87074532D01*
X151249998Y-87074532D01*
X151023313Y-87094364D01*
X151023302Y-87094366D01*
X150803511Y-87153258D01*
X150803502Y-87153261D01*
X150597267Y-87249431D01*
X150597265Y-87249432D01*
X150410858Y-87379954D01*
X150249954Y-87540858D01*
X150119432Y-87727265D01*
X150119431Y-87727267D01*
X150092382Y-87785275D01*
X150046209Y-87837714D01*
X149979016Y-87856866D01*
X149912135Y-87836650D01*
X149867618Y-87785275D01*
X149840568Y-87727267D01*
X149840567Y-87727265D01*
X149710045Y-87540858D01*
X149549141Y-87379954D01*
X149362734Y-87249432D01*
X149362732Y-87249431D01*
X149156497Y-87153261D01*
X149156488Y-87153258D01*
X148936697Y-87094366D01*
X148936693Y-87094365D01*
X148936692Y-87094365D01*
X148936691Y-87094364D01*
X148936686Y-87094364D01*
X148710002Y-87074532D01*
X148709998Y-87074532D01*
X148483313Y-87094364D01*
X148483302Y-87094366D01*
X148263511Y-87153258D01*
X148263502Y-87153261D01*
X148057267Y-87249431D01*
X148057265Y-87249432D01*
X147870858Y-87379954D01*
X147709954Y-87540858D01*
X147579432Y-87727265D01*
X147579431Y-87727267D01*
X147552382Y-87785275D01*
X147506209Y-87837714D01*
X147439016Y-87856866D01*
X147372135Y-87836650D01*
X147327618Y-87785275D01*
X147300568Y-87727267D01*
X147300567Y-87727265D01*
X147170045Y-87540858D01*
X147009141Y-87379954D01*
X146822734Y-87249432D01*
X146822732Y-87249431D01*
X146616497Y-87153261D01*
X146616488Y-87153258D01*
X146396697Y-87094366D01*
X146396693Y-87094365D01*
X146396692Y-87094365D01*
X146396691Y-87094364D01*
X146396686Y-87094364D01*
X146170002Y-87074532D01*
X146169998Y-87074532D01*
X145943313Y-87094364D01*
X145943302Y-87094366D01*
X145723511Y-87153258D01*
X145723502Y-87153261D01*
X145517267Y-87249431D01*
X145517265Y-87249432D01*
X145330858Y-87379954D01*
X145169954Y-87540858D01*
X145039432Y-87727265D01*
X145039431Y-87727267D01*
X145012382Y-87785275D01*
X144966209Y-87837714D01*
X144899016Y-87856866D01*
X144832135Y-87836650D01*
X144787618Y-87785275D01*
X144760568Y-87727267D01*
X144760567Y-87727265D01*
X144630045Y-87540858D01*
X144469141Y-87379954D01*
X144282734Y-87249432D01*
X144282732Y-87249431D01*
X144076497Y-87153261D01*
X144076488Y-87153258D01*
X143856697Y-87094366D01*
X143856693Y-87094365D01*
X143856692Y-87094365D01*
X143856691Y-87094364D01*
X143856686Y-87094364D01*
X143630002Y-87074532D01*
X143629998Y-87074532D01*
X143403313Y-87094364D01*
X143403302Y-87094366D01*
X143183511Y-87153258D01*
X143183502Y-87153261D01*
X142977267Y-87249431D01*
X142977265Y-87249432D01*
X142790858Y-87379954D01*
X142629954Y-87540858D01*
X142499432Y-87727265D01*
X142499431Y-87727267D01*
X142472382Y-87785275D01*
X142426209Y-87837714D01*
X142359016Y-87856866D01*
X142292135Y-87836650D01*
X142247618Y-87785275D01*
X142220568Y-87727267D01*
X142220567Y-87727265D01*
X142090045Y-87540858D01*
X141929141Y-87379954D01*
X141742734Y-87249432D01*
X141742732Y-87249431D01*
X141536497Y-87153261D01*
X141536488Y-87153258D01*
X141316697Y-87094366D01*
X141316693Y-87094365D01*
X141316692Y-87094365D01*
X141316691Y-87094364D01*
X141316686Y-87094364D01*
X141090002Y-87074532D01*
X141089998Y-87074532D01*
X140863313Y-87094364D01*
X140863302Y-87094366D01*
X140643511Y-87153258D01*
X140643502Y-87153261D01*
X140437267Y-87249431D01*
X140437265Y-87249432D01*
X140250858Y-87379954D01*
X140089954Y-87540858D01*
X139959432Y-87727265D01*
X139959431Y-87727267D01*
X139863261Y-87933502D01*
X139863258Y-87933511D01*
X139804366Y-88153302D01*
X139804364Y-88153312D01*
X139789500Y-88323214D01*
X139789500Y-88836785D01*
X101570524Y-88836785D01*
X101903961Y-87477607D01*
X101904370Y-87476037D01*
X102277595Y-86121553D01*
X102278045Y-86120004D01*
X102689453Y-84776619D01*
X102689968Y-84775021D01*
X102698351Y-84750183D01*
X103139180Y-83443955D01*
X103139765Y-83442300D01*
X103376979Y-82800002D01*
X105094652Y-82800002D01*
X105114028Y-83157368D01*
X105114029Y-83157385D01*
X105171926Y-83510539D01*
X105171932Y-83510565D01*
X105267672Y-83855392D01*
X105267674Y-83855399D01*
X105400142Y-84187870D01*
X105400151Y-84187888D01*
X105567784Y-84504077D01*
X105567787Y-84504082D01*
X105567789Y-84504085D01*
X105752620Y-84776691D01*
X105768634Y-84800309D01*
X105768641Y-84800319D01*
X106000331Y-85073085D01*
X106000332Y-85073086D01*
X106260163Y-85319211D01*
X106545081Y-85535800D01*
X106851747Y-85720315D01*
X106851749Y-85720316D01*
X106851751Y-85720317D01*
X106851755Y-85720319D01*
X107176552Y-85870585D01*
X107176565Y-85870591D01*
X107515726Y-85984868D01*
X107865254Y-86061805D01*
X108221052Y-86100500D01*
X108578942Y-86100500D01*
X108578948Y-86100500D01*
X108934746Y-86061805D01*
X109284274Y-85984868D01*
X109623435Y-85870591D01*
X109948253Y-85720315D01*
X110254919Y-85535800D01*
X110539837Y-85319211D01*
X110799668Y-85073086D01*
X111031365Y-84800311D01*
X111232211Y-84504085D01*
X111399853Y-84187880D01*
X111532324Y-83855403D01*
X111551030Y-83788028D01*
X142129500Y-83788028D01*
X142129501Y-83788034D01*
X142140113Y-83907415D01*
X142196089Y-84103045D01*
X142196090Y-84103048D01*
X142196091Y-84103049D01*
X142290302Y-84283407D01*
X142290304Y-84283409D01*
X142418890Y-84441109D01*
X142496115Y-84504077D01*
X142576593Y-84569698D01*
X142756951Y-84663909D01*
X142952582Y-84719886D01*
X143071963Y-84730500D01*
X143626000Y-84730499D01*
X143693039Y-84750183D01*
X143738794Y-84802987D01*
X143750000Y-84854499D01*
X143750000Y-85500000D01*
X159000000Y-85500000D01*
X159000000Y-84854499D01*
X159019685Y-84787460D01*
X159072489Y-84741705D01*
X159124000Y-84730499D01*
X159917871Y-84730499D01*
X159917872Y-84730499D01*
X159977483Y-84724091D01*
X160112331Y-84673796D01*
X160227546Y-84587546D01*
X160313796Y-84472331D01*
X160364091Y-84337483D01*
X160370500Y-84277873D01*
X160370499Y-82182128D01*
X160364091Y-82122517D01*
X160340771Y-82059994D01*
X160319638Y-82003332D01*
X160314654Y-81933640D01*
X160319634Y-81916678D01*
X160364091Y-81797483D01*
X160370500Y-81737873D01*
X160370499Y-79642128D01*
X160364091Y-79582517D01*
X160320859Y-79466607D01*
X160319638Y-79463332D01*
X160314654Y-79393640D01*
X160319634Y-79376678D01*
X160364091Y-79257483D01*
X160370500Y-79197873D01*
X160370499Y-77102128D01*
X160364091Y-77042517D01*
X160319637Y-76923332D01*
X160314654Y-76853642D01*
X160319638Y-76836667D01*
X160364091Y-76717482D01*
X160370500Y-76657873D01*
X160370499Y-74562128D01*
X160364091Y-74502517D01*
X160319637Y-74383332D01*
X160314654Y-74313642D01*
X160319638Y-74296667D01*
X160364091Y-74177482D01*
X160370500Y-74117873D01*
X160370499Y-72022128D01*
X160364091Y-71962517D01*
X160313796Y-71827669D01*
X160313795Y-71827668D01*
X160313793Y-71827664D01*
X160227547Y-71712455D01*
X160227544Y-71712452D01*
X160112335Y-71626206D01*
X160112328Y-71626202D01*
X159977482Y-71575908D01*
X159977483Y-71575908D01*
X159917883Y-71569501D01*
X159917881Y-71569500D01*
X159917873Y-71569500D01*
X159917865Y-71569500D01*
X159124000Y-71569500D01*
X159056961Y-71549815D01*
X159011206Y-71497011D01*
X159000000Y-71445500D01*
X159000000Y-70750000D01*
X143750000Y-70750000D01*
X143750000Y-71445500D01*
X143730315Y-71512539D01*
X143677511Y-71558294D01*
X143626000Y-71569500D01*
X143071971Y-71569500D01*
X143071965Y-71569500D01*
X143071964Y-71569501D01*
X143060316Y-71570536D01*
X142952584Y-71580113D01*
X142756954Y-71636089D01*
X142666771Y-71683196D01*
X142576593Y-71730302D01*
X142576591Y-71730303D01*
X142576590Y-71730304D01*
X142418890Y-71858890D01*
X142290304Y-72016590D01*
X142290302Y-72016593D01*
X142271916Y-72051791D01*
X142196089Y-72196954D01*
X142140114Y-72392583D01*
X142140113Y-72392586D01*
X142129500Y-72511966D01*
X142129500Y-73628028D01*
X142129501Y-73628034D01*
X142140113Y-73747415D01*
X142196089Y-73943045D01*
X142196090Y-73943048D01*
X142196091Y-73943049D01*
X142290302Y-74123407D01*
X142290304Y-74123409D01*
X142403015Y-74261639D01*
X142430124Y-74326036D01*
X142418115Y-74394865D01*
X142403015Y-74418361D01*
X142301438Y-74542936D01*
X142290302Y-74556593D01*
X142243196Y-74646771D01*
X142196089Y-74736954D01*
X142140114Y-74932583D01*
X142140113Y-74932586D01*
X142129500Y-75051966D01*
X142129500Y-76168028D01*
X142129501Y-76168034D01*
X142140113Y-76287415D01*
X142196089Y-76483045D01*
X142196090Y-76483048D01*
X142196091Y-76483049D01*
X142290302Y-76663407D01*
X142290304Y-76663409D01*
X142403015Y-76801639D01*
X142430124Y-76866036D01*
X142418115Y-76934865D01*
X142403015Y-76958361D01*
X142290302Y-77096593D01*
X142243196Y-77186771D01*
X142196089Y-77276954D01*
X142140114Y-77472583D01*
X142140113Y-77472586D01*
X142129500Y-77591966D01*
X142129500Y-78708028D01*
X142129501Y-78708034D01*
X142140113Y-78827415D01*
X142196089Y-79023045D01*
X142196090Y-79023048D01*
X142196091Y-79023049D01*
X142290302Y-79203407D01*
X142403015Y-79341639D01*
X142430124Y-79406034D01*
X142418115Y-79474864D01*
X142403015Y-79498359D01*
X142290305Y-79636587D01*
X142196089Y-79816954D01*
X142140114Y-80012583D01*
X142140113Y-80012586D01*
X142129500Y-80131966D01*
X142129500Y-81248028D01*
X142129501Y-81248034D01*
X142140113Y-81367415D01*
X142196089Y-81563045D01*
X142196090Y-81563048D01*
X142196091Y-81563049D01*
X142290302Y-81743407D01*
X142334394Y-81797481D01*
X142403015Y-81881639D01*
X142430124Y-81946036D01*
X142418115Y-82014865D01*
X142403015Y-82038361D01*
X142332824Y-82124444D01*
X142290302Y-82176593D01*
X142243196Y-82266771D01*
X142196089Y-82356954D01*
X142140114Y-82552583D01*
X142140113Y-82552586D01*
X142129500Y-82671966D01*
X142129500Y-83788028D01*
X111551030Y-83788028D01*
X111628071Y-83510552D01*
X111685972Y-83157371D01*
X111705348Y-82800000D01*
X111685972Y-82442629D01*
X111671926Y-82356954D01*
X111628073Y-82089460D01*
X111628072Y-82089459D01*
X111628071Y-82089448D01*
X111532324Y-81744597D01*
X111399853Y-81412120D01*
X111232211Y-81095915D01*
X111031365Y-80799689D01*
X111031361Y-80799684D01*
X111031358Y-80799680D01*
X110799668Y-80526914D01*
X110799667Y-80526913D01*
X110539837Y-80280789D01*
X110539830Y-80280783D01*
X110539827Y-80280781D01*
X110446150Y-80209570D01*
X110254919Y-80064200D01*
X109948253Y-79879685D01*
X109948252Y-79879684D01*
X109948248Y-79879682D01*
X109948244Y-79879680D01*
X109623447Y-79729414D01*
X109623441Y-79729411D01*
X109623435Y-79729409D01*
X109453854Y-79672270D01*
X109284273Y-79615131D01*
X108934744Y-79538194D01*
X108578949Y-79499500D01*
X108578948Y-79499500D01*
X108221052Y-79499500D01*
X108221050Y-79499500D01*
X107865255Y-79538194D01*
X107515726Y-79615131D01*
X107259970Y-79701306D01*
X107176565Y-79729409D01*
X107176562Y-79729410D01*
X107176563Y-79729410D01*
X107176552Y-79729414D01*
X106851755Y-79879680D01*
X106851751Y-79879682D01*
X106634374Y-80010474D01*
X106545081Y-80064200D01*
X106460066Y-80128827D01*
X106260172Y-80280781D01*
X106260163Y-80280789D01*
X106000331Y-80526914D01*
X105768641Y-80799680D01*
X105768634Y-80799690D01*
X105567790Y-81095913D01*
X105567784Y-81095922D01*
X105400151Y-81412111D01*
X105400142Y-81412129D01*
X105267674Y-81744600D01*
X105267672Y-81744607D01*
X105171932Y-82089434D01*
X105171926Y-82089460D01*
X105114029Y-82442614D01*
X105114028Y-82442627D01*
X105114028Y-82442629D01*
X105108066Y-82552586D01*
X105094652Y-82799997D01*
X105094652Y-82800002D01*
X103376979Y-82800002D01*
X103468355Y-82552586D01*
X103626494Y-82124398D01*
X103627090Y-82122854D01*
X104150909Y-80819280D01*
X104151550Y-80817747D01*
X104712055Y-79529507D01*
X104712778Y-79527908D01*
X105077756Y-78750005D01*
X123244357Y-78750005D01*
X123264890Y-78997812D01*
X123264892Y-78997824D01*
X123325936Y-79238881D01*
X123425826Y-79466606D01*
X123561833Y-79674782D01*
X123561836Y-79674785D01*
X123730256Y-79857738D01*
X123926491Y-80010474D01*
X124145190Y-80128828D01*
X124380386Y-80209571D01*
X124625665Y-80250500D01*
X124874335Y-80250500D01*
X125119614Y-80209571D01*
X125354810Y-80128828D01*
X125573509Y-80010474D01*
X125769744Y-79857738D01*
X125938164Y-79674785D01*
X126074173Y-79466607D01*
X126174063Y-79238881D01*
X126235108Y-78997821D01*
X126249228Y-78827418D01*
X126255643Y-78750005D01*
X127244357Y-78750005D01*
X127264890Y-78997812D01*
X127264892Y-78997824D01*
X127325936Y-79238881D01*
X127425826Y-79466606D01*
X127561833Y-79674782D01*
X127561836Y-79674785D01*
X127730256Y-79857738D01*
X127926491Y-80010474D01*
X128145190Y-80128828D01*
X128380386Y-80209571D01*
X128625665Y-80250500D01*
X128874335Y-80250500D01*
X129119614Y-80209571D01*
X129354810Y-80128828D01*
X129573509Y-80010474D01*
X129769744Y-79857738D01*
X129938164Y-79674785D01*
X130074173Y-79466607D01*
X130174063Y-79238881D01*
X130235108Y-78997821D01*
X130249228Y-78827418D01*
X130255643Y-78750005D01*
X130255643Y-78749994D01*
X130235109Y-78502187D01*
X130235107Y-78502175D01*
X130174063Y-78261118D01*
X130074173Y-78033393D01*
X129938166Y-77825217D01*
X129916557Y-77801744D01*
X129769744Y-77642262D01*
X129573509Y-77489526D01*
X129573507Y-77489525D01*
X129573506Y-77489524D01*
X129354811Y-77371172D01*
X129354802Y-77371169D01*
X129119616Y-77290429D01*
X128874335Y-77249500D01*
X128625665Y-77249500D01*
X128380383Y-77290429D01*
X128145197Y-77371169D01*
X128145188Y-77371172D01*
X127926493Y-77489524D01*
X127730257Y-77642261D01*
X127561833Y-77825217D01*
X127425826Y-78033393D01*
X127325936Y-78261118D01*
X127264892Y-78502175D01*
X127264890Y-78502187D01*
X127244357Y-78749994D01*
X127244357Y-78750005D01*
X126255643Y-78750005D01*
X126255643Y-78749994D01*
X126235109Y-78502187D01*
X126235107Y-78502175D01*
X126174063Y-78261118D01*
X126074173Y-78033393D01*
X125938166Y-77825217D01*
X125916557Y-77801744D01*
X125769744Y-77642262D01*
X125573509Y-77489526D01*
X125573507Y-77489525D01*
X125573506Y-77489524D01*
X125354811Y-77371172D01*
X125354802Y-77371169D01*
X125119616Y-77290429D01*
X124874335Y-77249500D01*
X124625665Y-77249500D01*
X124380383Y-77290429D01*
X124145197Y-77371169D01*
X124145188Y-77371172D01*
X123926493Y-77489524D01*
X123730257Y-77642261D01*
X123561833Y-77825217D01*
X123425826Y-78033393D01*
X123325936Y-78261118D01*
X123264892Y-78502175D01*
X123264890Y-78502187D01*
X123244357Y-78749994D01*
X123244357Y-78750005D01*
X105077756Y-78750005D01*
X105309505Y-78256061D01*
X105310222Y-78254588D01*
X105942735Y-77000074D01*
X105943487Y-76998634D01*
X106611262Y-75762493D01*
X106612031Y-75761118D01*
X107314488Y-74544427D01*
X107315360Y-74542964D01*
X108051996Y-73346591D01*
X108052861Y-73345231D01*
X108823019Y-72170243D01*
X108823947Y-72168868D01*
X109627097Y-71016075D01*
X109628042Y-71014759D01*
X109717294Y-70894082D01*
X114000280Y-70894082D01*
X114020813Y-71141889D01*
X114020815Y-71141901D01*
X114081859Y-71382958D01*
X114181749Y-71610683D01*
X114317756Y-71818859D01*
X114317759Y-71818862D01*
X114486179Y-72001815D01*
X114682414Y-72154551D01*
X114901113Y-72272905D01*
X115136309Y-72353648D01*
X115381588Y-72394577D01*
X115630258Y-72394577D01*
X115875537Y-72353648D01*
X116110733Y-72272905D01*
X116329432Y-72154551D01*
X116525667Y-72001815D01*
X116694087Y-71818862D01*
X116830096Y-71610684D01*
X116929986Y-71382958D01*
X116991031Y-71141898D01*
X117001451Y-71016152D01*
X117011566Y-70894082D01*
X117011566Y-70894071D01*
X116997560Y-70725052D01*
X117011641Y-70656616D01*
X117060486Y-70606657D01*
X117128587Y-70591036D01*
X117141542Y-70592502D01*
X117177639Y-70598526D01*
X117426309Y-70598526D01*
X117671588Y-70557597D01*
X117906784Y-70476854D01*
X118125483Y-70358500D01*
X118321718Y-70205764D01*
X118490138Y-70022811D01*
X118626147Y-69814633D01*
X118726037Y-69586907D01*
X118787082Y-69345847D01*
X118790229Y-69307870D01*
X118807617Y-69098031D01*
X118807617Y-69098020D01*
X118790991Y-68897377D01*
X118805072Y-68828941D01*
X118834427Y-68792514D01*
X118848026Y-68780996D01*
X118848025Y-67737475D01*
X118955711Y-67786654D01*
X119062263Y-67801974D01*
X119133789Y-67801974D01*
X119240341Y-67786654D01*
X119348026Y-67737475D01*
X119348026Y-68780997D01*
X119467518Y-68761057D01*
X119702629Y-68680343D01*
X119702640Y-68680338D01*
X119921254Y-68562031D01*
X119921263Y-68562025D01*
X120117423Y-68409347D01*
X120117433Y-68409338D01*
X120285793Y-68226452D01*
X120421758Y-68018341D01*
X120521613Y-67790691D01*
X120582638Y-67549713D01*
X120585772Y-67511888D01*
X120610924Y-67446702D01*
X120667325Y-67405463D01*
X120737069Y-67401263D01*
X120744285Y-67403148D01*
X120751616Y-67405300D01*
X120751620Y-67405302D01*
X120894077Y-67425783D01*
X121036534Y-67405302D01*
X121167450Y-67345514D01*
X121214133Y-67307895D01*
X122696047Y-65825979D01*
X122733668Y-65779296D01*
X122793456Y-65648380D01*
X122813937Y-65505923D01*
X122793456Y-65363466D01*
X122733668Y-65232550D01*
X122696049Y-65185867D01*
X122696044Y-65185862D01*
X122696040Y-65185857D01*
X121510185Y-64000004D01*
X130244592Y-64000004D01*
X130264196Y-64261620D01*
X130264197Y-64261625D01*
X130322576Y-64517402D01*
X130322578Y-64517411D01*
X130322580Y-64517416D01*
X130418432Y-64761643D01*
X130549614Y-64988857D01*
X130681736Y-65154533D01*
X130713198Y-65193985D01*
X130894753Y-65362441D01*
X130905521Y-65372433D01*
X131122296Y-65520228D01*
X131122301Y-65520230D01*
X131122302Y-65520231D01*
X131122303Y-65520232D01*
X131247843Y-65580688D01*
X131358673Y-65634061D01*
X131358674Y-65634061D01*
X131358677Y-65634063D01*
X131609385Y-65711396D01*
X131868818Y-65750500D01*
X132131182Y-65750500D01*
X132390615Y-65711396D01*
X132641323Y-65634063D01*
X132877704Y-65520228D01*
X133094479Y-65372433D01*
X133286805Y-65193981D01*
X133450386Y-64988857D01*
X133581568Y-64761643D01*
X133677420Y-64517416D01*
X133735802Y-64261630D01*
X133736837Y-64247821D01*
X133755408Y-64000004D01*
X135244592Y-64000004D01*
X135264196Y-64261620D01*
X135264197Y-64261625D01*
X135322576Y-64517402D01*
X135322578Y-64517411D01*
X135322580Y-64517416D01*
X135418432Y-64761643D01*
X135549614Y-64988857D01*
X135681736Y-65154533D01*
X135713198Y-65193985D01*
X135894753Y-65362441D01*
X135905521Y-65372433D01*
X136122296Y-65520228D01*
X136122301Y-65520230D01*
X136122302Y-65520231D01*
X136122303Y-65520232D01*
X136247843Y-65580688D01*
X136358673Y-65634061D01*
X136358674Y-65634061D01*
X136358677Y-65634063D01*
X136609385Y-65711396D01*
X136868818Y-65750500D01*
X137131182Y-65750500D01*
X137390615Y-65711396D01*
X137641323Y-65634063D01*
X137877704Y-65520228D01*
X137898678Y-65505928D01*
X177600280Y-65505928D01*
X177620813Y-65753735D01*
X177620815Y-65753747D01*
X177681859Y-65994804D01*
X177781749Y-66222529D01*
X177917756Y-66430705D01*
X177917759Y-66430708D01*
X178086179Y-66613661D01*
X178282414Y-66766397D01*
X178501113Y-66884751D01*
X178736309Y-66965494D01*
X178981588Y-67006423D01*
X179230257Y-67006423D01*
X179230258Y-67006423D01*
X179266351Y-67000400D01*
X179335715Y-67008782D01*
X179389537Y-67053334D01*
X179410728Y-67119913D01*
X179410336Y-67132949D01*
X179396331Y-67301967D01*
X179396330Y-67301979D01*
X179416864Y-67549783D01*
X179416866Y-67549798D01*
X179477910Y-67790855D01*
X179577800Y-68018580D01*
X179713807Y-68226756D01*
X179713810Y-68226759D01*
X179882230Y-68409712D01*
X180078465Y-68562448D01*
X180165055Y-68609308D01*
X180296306Y-68680338D01*
X180297164Y-68680802D01*
X180516115Y-68755968D01*
X180530938Y-68761057D01*
X180532360Y-68761545D01*
X180777639Y-68802474D01*
X181026308Y-68802474D01*
X181026309Y-68802474D01*
X181088153Y-68792154D01*
X181157517Y-68800536D01*
X181206415Y-68838300D01*
X181213985Y-68848026D01*
X182264340Y-68848026D01*
X182238533Y-68888182D01*
X182198026Y-69026137D01*
X182198026Y-69169915D01*
X182238533Y-69307870D01*
X182264340Y-69348026D01*
X181213986Y-69348026D01*
X181274437Y-69586742D01*
X181374293Y-69814393D01*
X181510258Y-70022504D01*
X181678618Y-70205390D01*
X181678628Y-70205399D01*
X181874788Y-70358077D01*
X181874797Y-70358083D01*
X182093411Y-70476390D01*
X182093422Y-70476395D01*
X182328533Y-70557109D01*
X182498786Y-70585519D01*
X182561671Y-70615969D01*
X182598111Y-70675584D01*
X182596592Y-70742931D01*
X182597197Y-70743109D01*
X182596537Y-70745353D01*
X182596536Y-70745436D01*
X182596441Y-70745680D01*
X182594697Y-70751621D01*
X182574217Y-70894076D01*
X182594697Y-71036532D01*
X182594698Y-71036536D01*
X182654484Y-71167447D01*
X182654485Y-71167448D01*
X182654486Y-71167450D01*
X182692105Y-71214133D01*
X182692108Y-71214136D01*
X182692113Y-71214142D01*
X183989937Y-72511963D01*
X184174021Y-72696047D01*
X184174025Y-72696050D01*
X184174027Y-72696052D01*
X184220703Y-72733668D01*
X184351617Y-72793455D01*
X184351618Y-72793455D01*
X184351620Y-72793456D01*
X184494077Y-72813937D01*
X184636534Y-72793456D01*
X184767450Y-72733668D01*
X184814133Y-72696049D01*
X186296047Y-71214133D01*
X186333668Y-71167450D01*
X186393456Y-71036534D01*
X186413937Y-70894077D01*
X186393456Y-70751620D01*
X186392716Y-70750000D01*
X186333669Y-70620706D01*
X186333668Y-70620705D01*
X186333668Y-70620704D01*
X186296049Y-70574021D01*
X186296044Y-70574016D01*
X186296040Y-70574011D01*
X184814136Y-69092110D01*
X184814130Y-69092105D01*
X184814126Y-69092101D01*
X184767450Y-69054485D01*
X184636536Y-68994698D01*
X184636532Y-68994697D01*
X184494077Y-68974217D01*
X184351618Y-68994698D01*
X184344278Y-68996853D01*
X184274409Y-68996849D01*
X184215632Y-68959072D01*
X184186610Y-68895515D01*
X184185772Y-68888111D01*
X184182638Y-68850286D01*
X184121613Y-68609308D01*
X184021758Y-68381658D01*
X183885793Y-68173547D01*
X183717433Y-67990661D01*
X183717423Y-67990652D01*
X183521263Y-67837974D01*
X183521254Y-67837968D01*
X183302640Y-67719661D01*
X183302629Y-67719656D01*
X183067518Y-67638942D01*
X182948026Y-67619002D01*
X182948026Y-68662524D01*
X182840341Y-68613346D01*
X182733789Y-68598026D01*
X182662263Y-68598026D01*
X182555711Y-68613346D01*
X182448026Y-68662524D01*
X182448026Y-67619002D01*
X182434426Y-67607484D01*
X182395991Y-67549135D01*
X182390991Y-67502621D01*
X182407617Y-67301979D01*
X182407617Y-67301968D01*
X182387083Y-67054161D01*
X182387081Y-67054149D01*
X182326037Y-66813092D01*
X182226147Y-66585367D01*
X182090140Y-66377191D01*
X181947764Y-66222530D01*
X181921718Y-66194236D01*
X181725483Y-66041500D01*
X181725481Y-66041499D01*
X181725480Y-66041498D01*
X181506785Y-65923146D01*
X181506776Y-65923143D01*
X181271590Y-65842403D01*
X181026309Y-65801474D01*
X180777639Y-65801474D01*
X180777636Y-65801474D01*
X180741542Y-65807496D01*
X180672177Y-65799113D01*
X180618357Y-65754558D01*
X180597167Y-65687979D01*
X180597560Y-65674947D01*
X180599762Y-65648382D01*
X180603384Y-65604664D01*
X180611566Y-65505928D01*
X180611566Y-65505917D01*
X180591032Y-65258110D01*
X180591030Y-65258098D01*
X180529986Y-65017041D01*
X180430096Y-64789316D01*
X180294089Y-64581140D01*
X180209158Y-64488881D01*
X180125667Y-64398185D01*
X179929432Y-64245449D01*
X179929430Y-64245448D01*
X179929429Y-64245447D01*
X179710734Y-64127095D01*
X179710725Y-64127092D01*
X179475539Y-64046352D01*
X179230258Y-64005423D01*
X178981588Y-64005423D01*
X178736306Y-64046352D01*
X178501120Y-64127092D01*
X178501111Y-64127095D01*
X178282416Y-64245447D01*
X178086180Y-64398184D01*
X177917756Y-64581140D01*
X177781749Y-64789316D01*
X177681859Y-65017041D01*
X177620815Y-65258098D01*
X177620813Y-65258110D01*
X177600280Y-65505917D01*
X177600280Y-65505928D01*
X137898678Y-65505928D01*
X138094479Y-65372433D01*
X138286805Y-65193981D01*
X138450386Y-64988857D01*
X138581568Y-64761643D01*
X138677420Y-64517416D01*
X138735802Y-64261630D01*
X138736837Y-64247821D01*
X138755408Y-64000005D01*
X139494357Y-64000005D01*
X139514890Y-64247812D01*
X139514892Y-64247824D01*
X139575936Y-64488881D01*
X139675826Y-64716606D01*
X139811833Y-64924782D01*
X139811836Y-64924785D01*
X139980256Y-65107738D01*
X140176491Y-65260474D01*
X140176493Y-65260475D01*
X140366803Y-65363466D01*
X140395190Y-65378828D01*
X140630386Y-65459571D01*
X140875665Y-65500500D01*
X141124335Y-65500500D01*
X141369614Y-65459571D01*
X141604810Y-65378828D01*
X141823509Y-65260474D01*
X142019744Y-65107738D01*
X142188164Y-64924785D01*
X142324173Y-64716607D01*
X142424063Y-64488881D01*
X142485108Y-64247821D01*
X142495112Y-64127092D01*
X142505643Y-64000005D01*
X151994357Y-64000005D01*
X152014890Y-64247812D01*
X152014892Y-64247824D01*
X152075936Y-64488881D01*
X152175826Y-64716606D01*
X152311833Y-64924782D01*
X152311836Y-64924785D01*
X152480256Y-65107738D01*
X152676491Y-65260474D01*
X152676493Y-65260475D01*
X152866803Y-65363466D01*
X152895190Y-65378828D01*
X153130386Y-65459571D01*
X153375665Y-65500500D01*
X153624335Y-65500500D01*
X153869614Y-65459571D01*
X154104810Y-65378828D01*
X154323509Y-65260474D01*
X154519744Y-65107738D01*
X154688164Y-64924785D01*
X154824173Y-64716607D01*
X154924063Y-64488881D01*
X154985108Y-64247821D01*
X154995112Y-64127092D01*
X155005643Y-64000005D01*
X155005643Y-63999994D01*
X154985109Y-63752187D01*
X154985107Y-63752175D01*
X154924063Y-63511118D01*
X154824173Y-63283393D01*
X154688166Y-63075217D01*
X154666557Y-63051744D01*
X154519744Y-62892262D01*
X154323509Y-62739526D01*
X154323507Y-62739525D01*
X154323506Y-62739524D01*
X154104811Y-62621172D01*
X154104802Y-62621169D01*
X153869616Y-62540429D01*
X153624335Y-62499500D01*
X153375665Y-62499500D01*
X153130383Y-62540429D01*
X152895197Y-62621169D01*
X152895188Y-62621172D01*
X152676493Y-62739524D01*
X152480257Y-62892261D01*
X152311833Y-63075217D01*
X152175826Y-63283393D01*
X152075936Y-63511118D01*
X152014892Y-63752175D01*
X152014890Y-63752187D01*
X151994357Y-63999994D01*
X151994357Y-64000005D01*
X142505643Y-64000005D01*
X142505643Y-63999994D01*
X142485109Y-63752187D01*
X142485107Y-63752175D01*
X142424063Y-63511118D01*
X142324173Y-63283393D01*
X142188166Y-63075217D01*
X142166557Y-63051744D01*
X142019744Y-62892262D01*
X141823509Y-62739526D01*
X141823507Y-62739525D01*
X141823506Y-62739524D01*
X141604811Y-62621172D01*
X141604802Y-62621169D01*
X141369616Y-62540429D01*
X141124335Y-62499500D01*
X140875665Y-62499500D01*
X140630383Y-62540429D01*
X140395197Y-62621169D01*
X140395188Y-62621172D01*
X140176493Y-62739524D01*
X139980257Y-62892261D01*
X139811833Y-63075217D01*
X139675826Y-63283393D01*
X139575936Y-63511118D01*
X139514892Y-63752175D01*
X139514890Y-63752187D01*
X139494357Y-63999994D01*
X139494357Y-64000005D01*
X138755408Y-64000005D01*
X138755408Y-64000004D01*
X138755408Y-63999995D01*
X138735803Y-63738379D01*
X138735802Y-63738374D01*
X138735802Y-63738370D01*
X138677420Y-63482584D01*
X138581568Y-63238357D01*
X138450386Y-63011143D01*
X138286805Y-62806019D01*
X138286804Y-62806018D01*
X138286801Y-62806014D01*
X138094479Y-62627567D01*
X137966671Y-62540429D01*
X137877704Y-62479772D01*
X137877700Y-62479770D01*
X137877697Y-62479768D01*
X137877696Y-62479767D01*
X137641325Y-62365938D01*
X137641327Y-62365938D01*
X137390623Y-62288606D01*
X137390619Y-62288605D01*
X137390615Y-62288604D01*
X137265823Y-62269794D01*
X137131187Y-62249500D01*
X137131182Y-62249500D01*
X136868818Y-62249500D01*
X136868812Y-62249500D01*
X136707247Y-62273853D01*
X136609385Y-62288604D01*
X136609381Y-62288605D01*
X136609382Y-62288605D01*
X136609376Y-62288606D01*
X136358673Y-62365938D01*
X136122303Y-62479767D01*
X136122302Y-62479768D01*
X135905520Y-62627567D01*
X135713198Y-62806014D01*
X135549614Y-63011143D01*
X135418432Y-63238356D01*
X135322582Y-63482578D01*
X135322576Y-63482597D01*
X135264197Y-63738374D01*
X135264196Y-63738379D01*
X135244592Y-63999995D01*
X135244592Y-64000004D01*
X133755408Y-64000004D01*
X133755408Y-63999995D01*
X133735803Y-63738379D01*
X133735802Y-63738374D01*
X133735802Y-63738370D01*
X133677420Y-63482584D01*
X133581568Y-63238357D01*
X133450386Y-63011143D01*
X133286805Y-62806019D01*
X133286804Y-62806018D01*
X133286801Y-62806014D01*
X133094479Y-62627567D01*
X132966671Y-62540429D01*
X132877704Y-62479772D01*
X132877700Y-62479770D01*
X132877697Y-62479768D01*
X132877696Y-62479767D01*
X132641325Y-62365938D01*
X132641327Y-62365938D01*
X132390623Y-62288606D01*
X132390619Y-62288605D01*
X132390615Y-62288604D01*
X132265823Y-62269794D01*
X132131187Y-62249500D01*
X132131182Y-62249500D01*
X131868818Y-62249500D01*
X131868812Y-62249500D01*
X131707247Y-62273853D01*
X131609385Y-62288604D01*
X131609381Y-62288605D01*
X131609382Y-62288605D01*
X131609376Y-62288606D01*
X131358673Y-62365938D01*
X131122303Y-62479767D01*
X131122302Y-62479768D01*
X130905520Y-62627567D01*
X130713198Y-62806014D01*
X130549614Y-63011143D01*
X130418432Y-63238356D01*
X130322582Y-63482578D01*
X130322576Y-63482597D01*
X130264197Y-63738374D01*
X130264196Y-63738379D01*
X130244592Y-63999995D01*
X130244592Y-64000004D01*
X121510185Y-64000004D01*
X121214136Y-63703956D01*
X121214130Y-63703951D01*
X121214126Y-63703947D01*
X121167450Y-63666331D01*
X121036536Y-63606544D01*
X121036532Y-63606543D01*
X120894077Y-63586063D01*
X120751621Y-63606543D01*
X120751617Y-63606544D01*
X120620706Y-63666330D01*
X120574011Y-63703959D01*
X119092110Y-65185863D01*
X119092101Y-65185873D01*
X119054485Y-65232549D01*
X118994698Y-65363463D01*
X118994697Y-65363467D01*
X118974217Y-65505923D01*
X118994697Y-65648378D01*
X118997197Y-65656891D01*
X118993673Y-65657925D01*
X119001095Y-65709956D01*
X118971999Y-65773479D01*
X118913179Y-65811187D01*
X118898787Y-65814480D01*
X118728532Y-65842890D01*
X118493422Y-65923604D01*
X118493411Y-65923609D01*
X118274797Y-66041916D01*
X118274788Y-66041922D01*
X118078628Y-66194600D01*
X118078618Y-66194609D01*
X117910258Y-66377495D01*
X117774293Y-66585606D01*
X117674437Y-66813257D01*
X117613986Y-67051974D01*
X118664340Y-67051974D01*
X118638533Y-67092130D01*
X118598026Y-67230085D01*
X118598026Y-67373863D01*
X118638533Y-67511818D01*
X118664340Y-67551974D01*
X117613984Y-67551974D01*
X117606414Y-67561700D01*
X117549703Y-67602512D01*
X117488154Y-67607845D01*
X117426309Y-67597526D01*
X117177639Y-67597526D01*
X116932357Y-67638455D01*
X116697171Y-67719195D01*
X116697162Y-67719198D01*
X116478467Y-67837550D01*
X116282231Y-67990287D01*
X116113807Y-68173243D01*
X115977800Y-68381419D01*
X115877910Y-68609144D01*
X115816866Y-68850201D01*
X115816864Y-68850213D01*
X115796331Y-69098020D01*
X115796331Y-69098032D01*
X115810336Y-69267050D01*
X115796255Y-69335486D01*
X115747410Y-69385445D01*
X115679309Y-69401066D01*
X115666353Y-69399599D01*
X115630260Y-69393577D01*
X115630258Y-69393577D01*
X115381588Y-69393577D01*
X115136306Y-69434506D01*
X114901120Y-69515246D01*
X114901111Y-69515249D01*
X114682416Y-69633601D01*
X114486180Y-69786338D01*
X114317756Y-69969294D01*
X114181749Y-70177470D01*
X114081859Y-70405195D01*
X114020815Y-70646252D01*
X114020813Y-70646264D01*
X114000280Y-70894071D01*
X114000280Y-70894082D01*
X109717294Y-70894082D01*
X110463488Y-69885161D01*
X110464408Y-69883953D01*
X111331543Y-68778377D01*
X111332523Y-68777164D01*
X112230534Y-67696646D01*
X112231585Y-67695417D01*
X113159782Y-66640780D01*
X113160917Y-66639527D01*
X114118599Y-65611567D01*
X114119725Y-65610393D01*
X115106093Y-64609966D01*
X115107270Y-64608806D01*
X116121575Y-63636673D01*
X116122791Y-63635540D01*
X117164190Y-62692510D01*
X117165422Y-62691427D01*
X118233130Y-61778211D01*
X118234333Y-61777211D01*
X119327498Y-60894541D01*
X119328702Y-60893597D01*
X120446383Y-60042236D01*
X120447711Y-60041254D01*
X121589020Y-59221874D01*
X121590276Y-59220999D01*
X122754335Y-58434233D01*
X122755737Y-58433316D01*
X122808166Y-58400002D01*
X163895153Y-58400002D01*
X163914526Y-58757314D01*
X163914527Y-58757331D01*
X163972415Y-59110431D01*
X163972421Y-59110457D01*
X164061031Y-59429605D01*
X165644277Y-58773801D01*
X165673604Y-58895956D01*
X165769981Y-59128631D01*
X165835618Y-59235742D01*
X164255079Y-59890423D01*
X164255079Y-59890424D01*
X164368218Y-60103827D01*
X164569033Y-60400007D01*
X164800697Y-60672742D01*
X164800702Y-60672747D01*
X165060486Y-60918828D01*
X165060496Y-60918836D01*
X165345367Y-61135388D01*
X165345370Y-61135390D01*
X165651990Y-61319876D01*
X165976739Y-61470122D01*
X165976744Y-61470123D01*
X166315855Y-61584383D01*
X166665339Y-61661311D01*
X167021075Y-61699999D01*
X167021085Y-61700000D01*
X167378915Y-61700000D01*
X167378924Y-61699999D01*
X167734660Y-61661311D01*
X168084136Y-61584385D01*
X168228297Y-61535812D01*
X167573802Y-59955722D01*
X167695956Y-59926396D01*
X167928631Y-59830019D01*
X168035742Y-59764381D01*
X168690978Y-61346259D01*
X168690979Y-61346260D01*
X168748006Y-61319878D01*
X169054629Y-61135390D01*
X169054632Y-61135388D01*
X169339503Y-60918836D01*
X169339513Y-60918828D01*
X169599297Y-60672747D01*
X169599302Y-60672742D01*
X169830966Y-60400007D01*
X170031781Y-60103827D01*
X170199393Y-59787677D01*
X170199402Y-59787659D01*
X170331850Y-59455239D01*
X170331852Y-59455232D01*
X170427578Y-59110457D01*
X170427584Y-59110431D01*
X170485472Y-58757331D01*
X170485473Y-58757314D01*
X170504846Y-58400002D01*
X170504846Y-58399997D01*
X170485473Y-58042685D01*
X170485472Y-58042668D01*
X170427584Y-57689568D01*
X170427578Y-57689542D01*
X170338967Y-57370394D01*
X170338967Y-57370393D01*
X168755721Y-58026195D01*
X168726396Y-57904044D01*
X168630019Y-57671369D01*
X168564380Y-57564256D01*
X170144919Y-56909575D01*
X170031773Y-56696158D01*
X169830966Y-56399992D01*
X169599302Y-56127257D01*
X169599297Y-56127252D01*
X169339513Y-55881171D01*
X169339503Y-55881163D01*
X169054632Y-55664611D01*
X169054629Y-55664609D01*
X168748009Y-55480123D01*
X168423260Y-55329877D01*
X168423255Y-55329876D01*
X168084144Y-55215616D01*
X167734660Y-55138688D01*
X167378924Y-55100000D01*
X167021075Y-55100000D01*
X166665339Y-55138688D01*
X166315855Y-55215616D01*
X166171701Y-55264186D01*
X166826196Y-56844277D01*
X166704044Y-56873604D01*
X166471369Y-56969981D01*
X166364256Y-57035619D01*
X165709019Y-55453739D01*
X165651987Y-55480125D01*
X165345370Y-55664609D01*
X165345367Y-55664611D01*
X165060496Y-55881163D01*
X165060486Y-55881171D01*
X164800702Y-56127252D01*
X164800697Y-56127257D01*
X164569033Y-56399992D01*
X164368218Y-56696172D01*
X164200606Y-57012322D01*
X164200597Y-57012340D01*
X164068149Y-57344760D01*
X164068147Y-57344767D01*
X163972421Y-57689542D01*
X163972415Y-57689568D01*
X163914527Y-58042668D01*
X163914526Y-58042685D01*
X163895153Y-58399997D01*
X163895153Y-58400002D01*
X122808166Y-58400002D01*
X122808174Y-58399997D01*
X123941534Y-57679844D01*
X123942851Y-57679033D01*
X125149527Y-56959400D01*
X125150962Y-56958572D01*
X126377465Y-56273407D01*
X126378982Y-56272588D01*
X126402987Y-56260056D01*
X127624357Y-55622418D01*
X127625854Y-55621663D01*
X128889169Y-55006978D01*
X128890681Y-55006269D01*
X128904539Y-55000005D01*
X144684357Y-55000005D01*
X144704890Y-55247812D01*
X144704892Y-55247824D01*
X144765936Y-55488881D01*
X144865826Y-55716606D01*
X145001833Y-55924782D01*
X145001836Y-55924785D01*
X145170256Y-56107738D01*
X145366491Y-56260474D01*
X145366493Y-56260475D01*
X145584332Y-56378364D01*
X145585190Y-56378828D01*
X145646839Y-56399992D01*
X145818964Y-56459083D01*
X145820386Y-56459571D01*
X146065665Y-56500500D01*
X146314335Y-56500500D01*
X146559614Y-56459571D01*
X146794810Y-56378828D01*
X147013509Y-56260474D01*
X147209744Y-56107738D01*
X147368771Y-55934988D01*
X147428657Y-55898999D01*
X147498495Y-55901099D01*
X147551228Y-55934988D01*
X147710256Y-56107738D01*
X147906491Y-56260474D01*
X147906493Y-56260475D01*
X148124332Y-56378364D01*
X148125190Y-56378828D01*
X148186839Y-56399992D01*
X148358964Y-56459083D01*
X148360386Y-56459571D01*
X148605665Y-56500500D01*
X148854335Y-56500500D01*
X149099614Y-56459571D01*
X149334810Y-56378828D01*
X149553509Y-56260474D01*
X149749744Y-56107738D01*
X149918164Y-55924785D01*
X149918533Y-55924219D01*
X149918745Y-55924038D01*
X149921322Y-55920729D01*
X149922002Y-55921258D01*
X149971676Y-55878860D01*
X150035138Y-55868697D01*
X150046564Y-55869882D01*
X150786923Y-55129523D01*
X150810507Y-55209844D01*
X150888239Y-55330798D01*
X150996900Y-55424952D01*
X151127685Y-55484680D01*
X151137464Y-55486086D01*
X150399942Y-56223609D01*
X150446768Y-56260055D01*
X150446770Y-56260056D01*
X150665385Y-56378364D01*
X150665396Y-56378369D01*
X150900506Y-56459083D01*
X151145707Y-56500000D01*
X151394293Y-56500000D01*
X151639493Y-56459083D01*
X151874603Y-56378369D01*
X151874614Y-56378364D01*
X152093228Y-56260057D01*
X152093231Y-56260055D01*
X152176601Y-56195165D01*
X152241595Y-56169522D01*
X152310135Y-56183088D01*
X152360460Y-56231556D01*
X152361879Y-56234586D01*
X152361953Y-56234546D01*
X152366206Y-56242335D01*
X152452452Y-56357544D01*
X152452455Y-56357547D01*
X152567664Y-56443793D01*
X152567671Y-56443797D01*
X152702517Y-56494091D01*
X152702516Y-56494091D01*
X152709444Y-56494835D01*
X152762127Y-56500500D01*
X154857872Y-56500499D01*
X154917483Y-56494091D01*
X155052331Y-56443796D01*
X155167546Y-56357546D01*
X155253796Y-56242331D01*
X155304091Y-56107483D01*
X155310500Y-56047873D01*
X155310499Y-53952128D01*
X155304091Y-53892517D01*
X155281024Y-53830672D01*
X155253797Y-53757671D01*
X155253793Y-53757664D01*
X155167547Y-53642455D01*
X155167544Y-53642452D01*
X155052335Y-53556206D01*
X155052328Y-53556202D01*
X154917482Y-53505908D01*
X154917483Y-53505908D01*
X154857883Y-53499501D01*
X154857881Y-53499500D01*
X154857873Y-53499500D01*
X154857864Y-53499500D01*
X152762129Y-53499500D01*
X152762123Y-53499501D01*
X152702516Y-53505908D01*
X152567671Y-53556202D01*
X152567664Y-53556206D01*
X152452455Y-53642452D01*
X152452452Y-53642455D01*
X152366206Y-53757664D01*
X152361953Y-53765454D01*
X152358883Y-53763778D01*
X152327001Y-53806303D01*
X152261519Y-53830672D01*
X152193257Y-53815769D01*
X152176602Y-53804834D01*
X152093237Y-53739948D01*
X152093228Y-53739942D01*
X151874614Y-53621635D01*
X151874603Y-53621630D01*
X151639493Y-53540916D01*
X151394293Y-53500000D01*
X151145707Y-53500000D01*
X150900506Y-53540916D01*
X150665396Y-53621630D01*
X150665390Y-53621632D01*
X150446761Y-53739949D01*
X150399942Y-53776388D01*
X150399942Y-53776390D01*
X151137466Y-54513913D01*
X151127685Y-54515320D01*
X150996900Y-54575048D01*
X150888239Y-54669202D01*
X150810507Y-54790156D01*
X150786923Y-54870475D01*
X150046564Y-54130116D01*
X150035135Y-54131302D01*
X149966423Y-54118637D01*
X149921910Y-54078802D01*
X149921317Y-54079265D01*
X149918768Y-54075991D01*
X149918535Y-54075782D01*
X149918166Y-54075218D01*
X149918165Y-54075217D01*
X149918164Y-54075215D01*
X149749744Y-53892262D01*
X149553509Y-53739526D01*
X149553507Y-53739525D01*
X149553506Y-53739524D01*
X149334811Y-53621172D01*
X149334802Y-53621169D01*
X149099616Y-53540429D01*
X148854335Y-53499500D01*
X148605665Y-53499500D01*
X148360383Y-53540429D01*
X148125197Y-53621169D01*
X148125188Y-53621172D01*
X147906493Y-53739524D01*
X147710257Y-53892261D01*
X147551230Y-54065010D01*
X147491342Y-54101001D01*
X147421504Y-54098900D01*
X147368770Y-54065010D01*
X147264855Y-53952129D01*
X147209744Y-53892262D01*
X147013509Y-53739526D01*
X147013507Y-53739525D01*
X147013506Y-53739524D01*
X146794811Y-53621172D01*
X146794802Y-53621169D01*
X146559616Y-53540429D01*
X146314335Y-53499500D01*
X146065665Y-53499500D01*
X145820383Y-53540429D01*
X145585197Y-53621169D01*
X145585188Y-53621172D01*
X145366493Y-53739524D01*
X145170257Y-53892261D01*
X145001833Y-54075217D01*
X144865826Y-54283393D01*
X144765936Y-54511118D01*
X144704892Y-54752175D01*
X144704890Y-54752187D01*
X144684357Y-54999994D01*
X144684357Y-55000005D01*
X128904539Y-55000005D01*
X130170873Y-54427586D01*
X130172382Y-54426929D01*
X131468450Y-53884700D01*
X131470007Y-53884075D01*
X132780921Y-53378732D01*
X132782400Y-53378186D01*
X134107077Y-52910149D01*
X134108732Y-52909591D01*
X135446033Y-52479255D01*
X135447680Y-52478751D01*
X136796697Y-52086411D01*
X136798268Y-52085978D01*
X138157855Y-51731970D01*
X138159485Y-51731570D01*
X139528555Y-51416175D01*
X139530117Y-51415838D01*
X140907633Y-51139299D01*
X140909191Y-51139009D01*
X142293952Y-50901568D01*
X142295567Y-50901314D01*
X143686475Y-50703158D01*
X143688079Y-50702952D01*
X144961913Y-50558122D01*
X145083984Y-50544244D01*
X145085699Y-50544073D01*
X146485574Y-50424925D01*
X146487165Y-50424812D01*
X147889872Y-50345327D01*
X147891480Y-50345258D01*
X149295832Y-50305500D01*
X149297576Y-50305476D01*
X150702424Y-50305476D01*
X150704167Y-50305500D01*
G37*
%TD.AperFunction*%
%TD*%
M02*
