%TF.GenerationSoftware,KiCad,Pcbnew,7.0.5*%
%TF.CreationDate,2024-01-07T17:07:27+01:00*%
%TF.ProjectId,37c3PCBLEDC100R_Rev.2,33376333-5043-4424-9c45-444331303052,rev?*%
%TF.SameCoordinates,Original*%
%TF.FileFunction,Soldermask,Top*%
%TF.FilePolarity,Negative*%
%FSLAX46Y46*%
G04 Gerber Fmt 4.6, Leading zero omitted, Abs format (unit mm)*
G04 Created by KiCad (PCBNEW 7.0.5) date 2024-01-07 17:07:27*
%MOMM*%
%LPD*%
G01*
G04 APERTURE LIST*
G04 Aperture macros list*
%AMRoundRect*
0 Rectangle with rounded corners*
0 $1 Rounding radius*
0 $2 $3 $4 $5 $6 $7 $8 $9 X,Y pos of 4 corners*
0 Add a 4 corners polygon primitive as box body*
4,1,4,$2,$3,$4,$5,$6,$7,$8,$9,$2,$3,0*
0 Add four circle primitives for the rounded corners*
1,1,$1+$1,$2,$3*
1,1,$1+$1,$4,$5*
1,1,$1+$1,$6,$7*
1,1,$1+$1,$8,$9*
0 Add four rect primitives between the rounded corners*
20,1,$1+$1,$2,$3,$4,$5,0*
20,1,$1+$1,$4,$5,$6,$7,0*
20,1,$1+$1,$6,$7,$8,$9,0*
20,1,$1+$1,$8,$9,$2,$3,0*%
%AMRotRect*
0 Rectangle, with rotation*
0 The origin of the aperture is its center*
0 $1 length*
0 $2 width*
0 $3 Rotation angle, in degrees counterclockwise*
0 Add horizontal line*
21,1,$1,$2,0,0,$3*%
%AMOutline5P*
0 Free polygon, 5 corners , with rotation*
0 The origin of the aperture is its center*
0 number of corners: always 5*
0 $1 to $10 corner X, Y*
0 $11 Rotation angle, in degrees counterclockwise*
0 create outline with 5 corners*
4,1,5,$1,$2,$3,$4,$5,$6,$7,$8,$9,$10,$1,$2,$11*%
%AMOutline6P*
0 Free polygon, 6 corners , with rotation*
0 The origin of the aperture is its center*
0 number of corners: always 6*
0 $1 to $12 corner X, Y*
0 $13 Rotation angle, in degrees counterclockwise*
0 create outline with 6 corners*
4,1,6,$1,$2,$3,$4,$5,$6,$7,$8,$9,$10,$11,$12,$1,$2,$13*%
%AMOutline7P*
0 Free polygon, 7 corners , with rotation*
0 The origin of the aperture is its center*
0 number of corners: always 7*
0 $1 to $14 corner X, Y*
0 $15 Rotation angle, in degrees counterclockwise*
0 create outline with 7 corners*
4,1,7,$1,$2,$3,$4,$5,$6,$7,$8,$9,$10,$11,$12,$13,$14,$1,$2,$15*%
%AMOutline8P*
0 Free polygon, 8 corners , with rotation*
0 The origin of the aperture is its center*
0 number of corners: always 8*
0 $1 to $16 corner X, Y*
0 $17 Rotation angle, in degrees counterclockwise*
0 create outline with 8 corners*
4,1,8,$1,$2,$3,$4,$5,$6,$7,$8,$9,$10,$11,$12,$13,$14,$15,$16,$1,$2,$17*%
G04 Aperture macros list end*
%ADD10C,0.010000*%
%ADD11C,2.000000*%
%ADD12RoundRect,0.213255X-0.436745X-0.661745X0.436745X-0.661745X0.436745X0.661745X-0.436745X0.661745X0*%
%ADD13RoundRect,0.213255X-0.661745X0.436745X-0.661745X-0.436745X0.661745X-0.436745X0.661745X0.436745X0*%
%ADD14RotRect,2.000000X2.000000X225.000000*%
%ADD15C,5.600000*%
%ADD16R,2.000000X2.000000*%
%ADD17O,1.600000X2.000000*%
%ADD18RotRect,2.000000X2.000000X45.000000*%
%ADD19RoundRect,0.150000X0.587500X0.150000X-0.587500X0.150000X-0.587500X-0.150000X0.587500X-0.150000X0*%
%ADD20C,2.500000*%
%ADD21RotRect,2.000000X2.000000X315.000000*%
%ADD22RoundRect,0.213255X0.661745X-0.436745X0.661745X0.436745X-0.661745X0.436745X-0.661745X-0.436745X0*%
%ADD23Outline5P,-1.000000X0.600000X-0.600000X1.000000X1.000000X1.000000X1.000000X-1.000000X-1.000000X-1.000000X0.000000*%
%ADD24RoundRect,0.500000X-0.500000X-0.500000X0.500000X-0.500000X0.500000X0.500000X-0.500000X0.500000X0*%
%ADD25RotRect,2.000000X2.000000X135.000000*%
G04 APERTURE END LIST*
%TO.C,REF\u002A\u002A*%
G36*
X175828217Y-80158377D02*
G01*
X175958999Y-80367596D01*
X176091122Y-80505071D01*
X176242903Y-80582151D01*
X176432656Y-80610183D01*
X176555515Y-80609005D01*
X176718286Y-80605628D01*
X176817503Y-80616122D01*
X176873804Y-80644134D01*
X176894300Y-80668867D01*
X176921009Y-80746514D01*
X176881614Y-80800424D01*
X176771127Y-80832728D01*
X176584562Y-80845553D01*
X176480239Y-80845616D01*
X176127510Y-80840981D01*
X176101340Y-81121234D01*
X176060578Y-81343282D01*
X175985046Y-81571765D01*
X175885930Y-81781405D01*
X175774415Y-81946922D01*
X175705941Y-82014749D01*
X175598863Y-82075852D01*
X175495248Y-82099573D01*
X175419571Y-82084044D01*
X175395493Y-82038436D01*
X175424841Y-81977669D01*
X175500840Y-81884844D01*
X175581526Y-81804224D01*
X175747834Y-81598655D01*
X175840058Y-81354734D01*
X175861937Y-81132768D01*
X175841377Y-80970851D01*
X175787164Y-80769184D01*
X175710503Y-80559991D01*
X175622598Y-80375496D01*
X175568800Y-80289621D01*
X175444368Y-80117848D01*
X175562995Y-80004196D01*
X175681623Y-79890543D01*
X175828217Y-80158377D01*
G37*
G36*
X174679076Y-76039059D02*
G01*
X174831754Y-76045166D01*
X174927105Y-76057391D01*
X174978848Y-76077409D01*
X174999616Y-76103852D01*
X175008132Y-76167945D01*
X174971163Y-76215435D01*
X174879446Y-76249374D01*
X174723717Y-76272811D01*
X174494713Y-76288798D01*
X174428871Y-76291820D01*
X173932555Y-76313022D01*
X173919267Y-76450835D01*
X173913796Y-76546413D01*
X173918346Y-76593776D01*
X173919267Y-76594557D01*
X173964212Y-76598749D01*
X174077302Y-76605922D01*
X174241966Y-76615106D01*
X174441631Y-76625331D01*
X174462605Y-76626360D01*
X174682829Y-76638032D01*
X174832007Y-76649524D01*
X174923844Y-76663697D01*
X174972049Y-76683414D01*
X174990326Y-76711539D01*
X174992655Y-76737062D01*
X174985807Y-76776242D01*
X174955045Y-76802596D01*
X174885038Y-76819996D01*
X174760456Y-76832316D01*
X174573050Y-76843072D01*
X174370548Y-76856085D01*
X174236898Y-76872819D01*
X174156148Y-76896540D01*
X174112341Y-76930511D01*
X174106823Y-76938481D01*
X174082933Y-77030120D01*
X174106823Y-77086895D01*
X174145361Y-77123209D01*
X174217779Y-77148645D01*
X174340032Y-77166467D01*
X174528074Y-77179941D01*
X174573050Y-77182304D01*
X174764217Y-77192774D01*
X174886204Y-77203985D01*
X174954546Y-77220648D01*
X174984778Y-77247471D01*
X174992434Y-77289165D01*
X174992655Y-77309516D01*
X174992655Y-77415526D01*
X174483807Y-77426715D01*
X173974959Y-77437904D01*
X173815944Y-77291064D01*
X173656929Y-77144224D01*
X173656929Y-76726340D01*
X173657829Y-76534657D01*
X173664011Y-76407104D01*
X173680701Y-76323007D01*
X173713123Y-76261688D01*
X173766501Y-76202470D01*
X173796760Y-76172926D01*
X173936592Y-76037396D01*
X174455353Y-76037396D01*
X174679076Y-76039059D01*
G37*
G36*
X171729736Y-74895723D02*
G01*
X171881222Y-74909733D01*
X171974999Y-74940975D01*
X172024562Y-74995908D01*
X172043403Y-75080988D01*
X172045576Y-75150201D01*
X172060333Y-75266321D01*
X172096531Y-75347364D01*
X172103280Y-75354034D01*
X172142072Y-75426191D01*
X172171959Y-75552239D01*
X172189610Y-75701447D01*
X172191691Y-75843081D01*
X172174869Y-75946408D01*
X172168969Y-75959724D01*
X172142387Y-75992944D01*
X172094776Y-76015187D01*
X172011048Y-76028580D01*
X171876117Y-76035256D01*
X171674897Y-76037342D01*
X171618714Y-76037396D01*
X171397374Y-76035678D01*
X171246951Y-76029376D01*
X171153604Y-76016767D01*
X171103489Y-75996130D01*
X171084525Y-75970940D01*
X171075783Y-75907652D01*
X171114218Y-75864482D01*
X171210728Y-75837108D01*
X171376209Y-75821207D01*
X171473271Y-75816747D01*
X171641491Y-75809237D01*
X171742222Y-75798081D01*
X171792749Y-75777234D01*
X171810355Y-75740653D01*
X171812354Y-75698164D01*
X171802318Y-75629895D01*
X171756694Y-75595903D01*
X171652210Y-75580549D01*
X171635440Y-75579276D01*
X171484021Y-75550268D01*
X171396577Y-75499487D01*
X171375437Y-75441417D01*
X171422934Y-75390543D01*
X171541398Y-75361348D01*
X171599979Y-75358932D01*
X171723944Y-75350516D01*
X171788448Y-75318839D01*
X171812234Y-75274503D01*
X171824751Y-75192358D01*
X171791144Y-75140927D01*
X171699539Y-75113842D01*
X171538062Y-75104733D01*
X171495290Y-75104508D01*
X171296864Y-75099910D01*
X171169253Y-75083298D01*
X171098820Y-75050445D01*
X171071931Y-74997125D01*
X171070284Y-74972759D01*
X171077044Y-74936592D01*
X171107348Y-74913245D01*
X171176231Y-74899955D01*
X171298732Y-74893959D01*
X171489884Y-74892492D01*
X171507046Y-74892488D01*
X171729736Y-74895723D01*
G37*
G36*
X173291560Y-76207134D02*
G01*
X173387658Y-76327497D01*
X173433342Y-76433092D01*
X173444909Y-76560996D01*
X173463228Y-76714997D01*
X173523647Y-76816072D01*
X173531586Y-76823562D01*
X173583113Y-76887426D01*
X173606021Y-76974641D01*
X173606978Y-77113424D01*
X173605793Y-77137563D01*
X173594495Y-77273803D01*
X173573725Y-77345010D01*
X173535320Y-77370948D01*
X173508515Y-77373122D01*
X173447698Y-77353597D01*
X173418659Y-77280891D01*
X173412260Y-77224708D01*
X173397725Y-77060707D01*
X173373192Y-76960468D01*
X173320736Y-76908304D01*
X173222434Y-76888531D01*
X173060360Y-76885465D01*
X173024597Y-76885476D01*
X172842744Y-76888880D01*
X172729468Y-76907264D01*
X172668582Y-76952884D01*
X172643899Y-77038000D01*
X172639233Y-77174867D01*
X172639232Y-77177292D01*
X172626296Y-77294983D01*
X172594539Y-77378482D01*
X172588348Y-77385844D01*
X172496509Y-77428374D01*
X172377004Y-77431616D01*
X172277327Y-77395570D01*
X172266077Y-77385844D01*
X172244587Y-77322491D01*
X172228629Y-77193810D01*
X172218202Y-77019099D01*
X172213306Y-76817659D01*
X172213942Y-76608788D01*
X172217822Y-76484874D01*
X172469219Y-76484874D01*
X172498380Y-76544195D01*
X172577753Y-76574513D01*
X172720394Y-76582671D01*
X172840010Y-76579842D01*
X173169283Y-76567446D01*
X173169283Y-76440234D01*
X173169283Y-76313022D01*
X172830631Y-76313022D01*
X172659206Y-76315439D01*
X172555075Y-76325212D01*
X172500799Y-76346124D01*
X172478939Y-76381961D01*
X172477212Y-76389706D01*
X172469219Y-76484874D01*
X172217822Y-76484874D01*
X172220110Y-76411786D01*
X172231809Y-76245951D01*
X172249039Y-76130582D01*
X172266077Y-76088281D01*
X172338686Y-76061220D01*
X172488084Y-76043995D01*
X172706731Y-76037435D01*
X172727587Y-76037396D01*
X173138212Y-76037396D01*
X173291560Y-76207134D01*
G37*
G36*
X175891278Y-79126808D02*
G01*
X175903207Y-79221585D01*
X175888402Y-79354422D01*
X175848143Y-79504555D01*
X175821591Y-79573330D01*
X175742383Y-79718406D01*
X175631431Y-79872673D01*
X175507241Y-80014782D01*
X175388320Y-80123381D01*
X175299867Y-80175220D01*
X175240947Y-80201032D01*
X175259147Y-80228745D01*
X175280906Y-80241615D01*
X175336803Y-80305707D01*
X175386393Y-80414354D01*
X175393587Y-80437985D01*
X175420210Y-80589177D01*
X175434242Y-80790821D01*
X175436753Y-81024460D01*
X175428813Y-81271635D01*
X175411490Y-81513887D01*
X175385856Y-81732758D01*
X175352979Y-81909790D01*
X175313929Y-82026525D01*
X175300276Y-82048164D01*
X175222902Y-82096911D01*
X175143828Y-82082922D01*
X175117931Y-82055633D01*
X175114608Y-81998033D01*
X175126839Y-81875996D01*
X175152268Y-81707980D01*
X175184801Y-81531167D01*
X175234091Y-81246846D01*
X175255829Y-81031445D01*
X175250149Y-80894108D01*
X175228059Y-80793984D01*
X175202888Y-80764619D01*
X175157607Y-80793121D01*
X175138857Y-80809849D01*
X175018281Y-80949797D01*
X174898997Y-81139444D01*
X174799883Y-81345525D01*
X174748193Y-81498312D01*
X174690538Y-81673427D01*
X174630509Y-81775195D01*
X174575263Y-81802223D01*
X174531961Y-81753113D01*
X174507761Y-81626470D01*
X174505009Y-81545725D01*
X174515080Y-81408993D01*
X174550209Y-81271988D01*
X174617771Y-81116811D01*
X174725143Y-80925564D01*
X174829527Y-80758160D01*
X174914590Y-80614868D01*
X174983095Y-80480976D01*
X175015204Y-80400313D01*
X175032912Y-80320683D01*
X175010830Y-80286192D01*
X174929496Y-80277965D01*
X174888877Y-80277797D01*
X174781789Y-80263615D01*
X174746193Y-80249527D01*
X175112800Y-80249527D01*
X175118620Y-80274737D01*
X175141069Y-80277797D01*
X175175972Y-80262282D01*
X175169338Y-80249527D01*
X175119015Y-80244453D01*
X175112800Y-80249527D01*
X174746193Y-80249527D01*
X174694780Y-80229179D01*
X174645552Y-80186655D01*
X174651808Y-80148209D01*
X174680450Y-80134558D01*
X174912266Y-80054638D01*
X175100978Y-79958004D01*
X175264341Y-79830080D01*
X175420110Y-79656289D01*
X175586038Y-79422057D01*
X175628927Y-79355881D01*
X175717774Y-79227490D01*
X175795637Y-79133320D01*
X175847302Y-79091502D01*
X175851336Y-79090855D01*
X175891278Y-79126808D01*
G37*
G36*
X171379805Y-76499572D02*
G01*
X171558152Y-76679884D01*
X171683016Y-76812258D01*
X171762425Y-76907140D01*
X171804408Y-76974979D01*
X171816991Y-77026221D01*
X171811551Y-77061425D01*
X171738604Y-77218830D01*
X171638291Y-77298896D01*
X171508839Y-77301604D01*
X171348472Y-77226938D01*
X171155415Y-77074883D01*
X171133890Y-77055092D01*
X170860403Y-76800668D01*
X169612808Y-76800668D01*
X168365213Y-76800668D01*
X168229090Y-76955704D01*
X168153952Y-77048279D01*
X168115284Y-77128038D01*
X168103773Y-77227675D01*
X168109769Y-77374610D01*
X168120804Y-77503350D01*
X168142287Y-77599778D01*
X168185989Y-77687754D01*
X168263677Y-77791136D01*
X168383642Y-77929842D01*
X168504231Y-78070526D01*
X168606721Y-78197397D01*
X168674968Y-78290182D01*
X168689388Y-78313824D01*
X168710435Y-78398685D01*
X168726134Y-78555927D01*
X168735592Y-78773238D01*
X168738064Y-78983614D01*
X168738828Y-79216301D01*
X168742675Y-79379917D01*
X168751943Y-79490193D01*
X168768964Y-79562864D01*
X168796075Y-79613662D01*
X168835611Y-79658321D01*
X168838658Y-79661378D01*
X168948577Y-79740551D01*
X169085472Y-79802153D01*
X169103683Y-79807628D01*
X169209896Y-79824741D01*
X169378576Y-79837774D01*
X169591649Y-79846699D01*
X169831045Y-79851493D01*
X170078690Y-79852131D01*
X170316513Y-79848589D01*
X170526442Y-79840840D01*
X170690405Y-79828861D01*
X170790330Y-79812627D01*
X170798345Y-79809951D01*
X170884438Y-79760384D01*
X171006799Y-79669352D01*
X171141366Y-79554995D01*
X171163957Y-79534325D01*
X171354387Y-79383046D01*
X171514172Y-79310604D01*
X171643963Y-79317013D01*
X171744414Y-79402289D01*
X171811114Y-79549220D01*
X171815471Y-79595693D01*
X171795490Y-79651615D01*
X171743084Y-79727715D01*
X171650163Y-79834723D01*
X171508639Y-79983369D01*
X171401841Y-80092138D01*
X171214934Y-80277655D01*
X171072280Y-80409312D01*
X170961844Y-80496681D01*
X170871591Y-80549338D01*
X170793808Y-80575880D01*
X170699333Y-80587411D01*
X170535509Y-80596635D01*
X170317584Y-80603557D01*
X170060803Y-80608181D01*
X169780412Y-80610511D01*
X169491658Y-80610552D01*
X169209787Y-80608308D01*
X168950044Y-80603784D01*
X168727677Y-80596985D01*
X168557930Y-80587913D01*
X168456050Y-80576575D01*
X168449685Y-80575200D01*
X168345863Y-80544511D01*
X168282580Y-80514693D01*
X168280416Y-80512747D01*
X168239630Y-80474277D01*
X168149306Y-80390276D01*
X168022294Y-80272663D01*
X167871442Y-80133353D01*
X167852186Y-80115595D01*
X167694312Y-79963547D01*
X167556145Y-79818503D01*
X167452204Y-79696512D01*
X167397007Y-79613623D01*
X167395997Y-79611296D01*
X167377712Y-79545555D01*
X167363419Y-79439994D01*
X167352753Y-79286265D01*
X167345352Y-79076023D01*
X167340851Y-78800924D01*
X167338888Y-78452623D01*
X167338732Y-78296110D01*
X167339228Y-77943147D01*
X167341103Y-77664735D01*
X167344940Y-77450620D01*
X167351318Y-77290548D01*
X167360821Y-77174266D01*
X167374028Y-77091520D01*
X167391522Y-77032056D01*
X167412939Y-76987267D01*
X167470766Y-76910423D01*
X167577124Y-76791180D01*
X167718029Y-76644453D01*
X167879502Y-76485156D01*
X167919166Y-76447278D01*
X168351187Y-76037396D01*
X169634408Y-76037396D01*
X170917630Y-76037396D01*
X171379805Y-76499572D01*
G37*
G36*
X172634441Y-72246194D02*
G01*
X172943196Y-72260349D01*
X173216877Y-72282202D01*
X173435582Y-72311541D01*
X173487313Y-72321730D01*
X174197042Y-72517874D01*
X174863933Y-72785552D01*
X175484376Y-73121158D01*
X176054765Y-73521083D01*
X176571491Y-73981722D01*
X177030948Y-74499466D01*
X177429528Y-75070709D01*
X177763624Y-75691842D01*
X178029628Y-76359258D01*
X178220846Y-77055092D01*
X178259353Y-77297426D01*
X178286075Y-77601453D01*
X178301012Y-77944879D01*
X178304164Y-78305414D01*
X178295530Y-78660763D01*
X178275111Y-78988634D01*
X178242906Y-79266736D01*
X178220846Y-79387313D01*
X178025429Y-80095029D01*
X177758232Y-80760673D01*
X177422944Y-81380501D01*
X177023257Y-81950767D01*
X176562859Y-82467724D01*
X176045443Y-82927628D01*
X175474698Y-83326733D01*
X174854314Y-83661294D01*
X174187983Y-83927564D01*
X173577615Y-84099867D01*
X173374840Y-84135093D01*
X173109538Y-84164313D01*
X172803569Y-84186726D01*
X172478795Y-84201532D01*
X172157076Y-84207932D01*
X171860275Y-84205125D01*
X171610251Y-84192312D01*
X171474015Y-84176842D01*
X171142281Y-84113587D01*
X170787384Y-84026719D01*
X170446771Y-83926214D01*
X170188803Y-83834496D01*
X169521281Y-83526580D01*
X168907644Y-83154249D01*
X168350634Y-82720739D01*
X167852991Y-82229285D01*
X167417456Y-81683124D01*
X167046771Y-81085492D01*
X166743676Y-80439624D01*
X166510913Y-79748756D01*
X166421730Y-79387313D01*
X166383109Y-79144816D01*
X166356314Y-78840639D01*
X166341344Y-78497083D01*
X166340579Y-78409343D01*
X166564171Y-78409343D01*
X166618372Y-79063190D01*
X166741611Y-79693722D01*
X166815798Y-79953065D01*
X167060793Y-80590222D01*
X167379022Y-81190895D01*
X167764573Y-81749065D01*
X168211535Y-82258717D01*
X168713994Y-82713832D01*
X169266039Y-83108394D01*
X169861758Y-83436386D01*
X170486323Y-83688805D01*
X171147564Y-83868763D01*
X171816130Y-83966250D01*
X172497035Y-83981596D01*
X173195292Y-83915128D01*
X173404735Y-83880048D01*
X174074869Y-83714987D01*
X174711446Y-83472280D01*
X175312372Y-83153039D01*
X175875552Y-82758376D01*
X176393403Y-82294913D01*
X176859049Y-81769548D01*
X177252147Y-81203728D01*
X177571274Y-80603190D01*
X177815008Y-79973668D01*
X177981927Y-79320897D01*
X178070609Y-78650613D01*
X178079631Y-77968551D01*
X178007573Y-77280444D01*
X177853011Y-76592029D01*
X177828355Y-76508022D01*
X177600777Y-75896366D01*
X177297063Y-75310156D01*
X176924086Y-74757455D01*
X176488718Y-74246330D01*
X175997831Y-73784845D01*
X175458298Y-73381064D01*
X174876991Y-73043052D01*
X174874814Y-73041956D01*
X174290212Y-72793352D01*
X173667453Y-72613404D01*
X173019327Y-72502966D01*
X172358626Y-72462895D01*
X171698138Y-72494045D01*
X171050653Y-72597272D01*
X170498975Y-72749353D01*
X169860978Y-73007248D01*
X169262372Y-73336829D01*
X168708770Y-73732396D01*
X168205785Y-74188251D01*
X167759029Y-74698694D01*
X167374116Y-75258026D01*
X167056658Y-75860547D01*
X166815798Y-76489340D01*
X166662884Y-77104276D01*
X166579008Y-77750324D01*
X166564171Y-78409343D01*
X166340579Y-78409343D01*
X166338199Y-78136445D01*
X166346879Y-77781027D01*
X166367384Y-77453127D01*
X166399715Y-77175045D01*
X166421730Y-77055092D01*
X166618513Y-76342508D01*
X166888076Y-75672244D01*
X167228681Y-75046867D01*
X167638593Y-74468945D01*
X168116075Y-73941047D01*
X168659390Y-73465738D01*
X169031004Y-73196932D01*
X169475121Y-72934621D01*
X169983270Y-72697842D01*
X170536592Y-72494195D01*
X171116228Y-72331278D01*
X171261102Y-72298225D01*
X171446708Y-72270744D01*
X171696746Y-72252011D01*
X171991315Y-72241815D01*
X172310514Y-72239946D01*
X172634441Y-72246194D01*
G37*
G36*
X170609983Y-76864397D02*
G01*
X170613322Y-76865644D01*
X170652693Y-76906862D01*
X170678761Y-77003550D01*
X170695084Y-77169610D01*
X170696267Y-77189687D01*
X170713303Y-77370605D01*
X170742166Y-77482868D01*
X170785601Y-77541360D01*
X170839235Y-77559263D01*
X170951199Y-77574790D01*
X171126872Y-77588266D01*
X171371632Y-77600023D01*
X171690856Y-77610387D01*
X172056074Y-77619000D01*
X172511459Y-77630815D01*
X172891540Y-77647509D01*
X173205786Y-77671590D01*
X173463670Y-77705566D01*
X173674662Y-77751947D01*
X173848232Y-77813241D01*
X173993852Y-77891956D01*
X174120991Y-77990602D01*
X174239120Y-78111687D01*
X174329437Y-78221202D01*
X174429145Y-78348414D01*
X174354273Y-78221202D01*
X174288921Y-78121291D01*
X174192314Y-77986183D01*
X174095377Y-77858129D01*
X174004287Y-77737531D01*
X173938480Y-77643066D01*
X173911447Y-77594162D01*
X173911353Y-77593104D01*
X173942565Y-77560658D01*
X174018890Y-77567042D01*
X174114358Y-77604827D01*
X174203000Y-77666586D01*
X174217054Y-77680551D01*
X174310373Y-77795115D01*
X174427649Y-77960545D01*
X174553342Y-78152659D01*
X174671911Y-78347274D01*
X174767815Y-78520209D01*
X174803021Y-78592332D01*
X174853115Y-78691443D01*
X174879523Y-78713462D01*
X174885714Y-78679806D01*
X174876476Y-78587545D01*
X174842855Y-78478420D01*
X174778649Y-78338646D01*
X174677662Y-78154440D01*
X174559935Y-77955388D01*
X174466267Y-77793418D01*
X174395663Y-77658229D01*
X174355993Y-77565803D01*
X174351991Y-77533208D01*
X174404389Y-77532344D01*
X174497085Y-77567111D01*
X174520592Y-77579151D01*
X174644668Y-77681532D01*
X174775460Y-77852232D01*
X174903230Y-78076376D01*
X175018239Y-78339085D01*
X175018469Y-78339691D01*
X175078343Y-78479443D01*
X175124091Y-78542968D01*
X175157314Y-78539949D01*
X175171820Y-78485093D01*
X175154291Y-78374226D01*
X175103033Y-78198021D01*
X175085813Y-78145835D01*
X175020983Y-77945883D01*
X174984547Y-77812819D01*
X174974609Y-77734317D01*
X174989271Y-77698052D01*
X175015882Y-77691152D01*
X175090653Y-77727663D01*
X175175719Y-77822236D01*
X175254695Y-77952432D01*
X175311089Y-78095435D01*
X175361923Y-78244457D01*
X175408350Y-78310609D01*
X175451724Y-78295633D01*
X175458671Y-78285500D01*
X175518643Y-78249779D01*
X175570981Y-78242404D01*
X175627806Y-78254056D01*
X175639767Y-78305184D01*
X175627552Y-78374914D01*
X175620514Y-78490437D01*
X175655985Y-78543808D01*
X175684240Y-78580455D01*
X175673171Y-78645434D01*
X175619128Y-78759902D01*
X175618482Y-78761132D01*
X175568046Y-78860774D01*
X175558260Y-78893293D01*
X175587999Y-78865372D01*
X175604078Y-78846662D01*
X175676626Y-78777767D01*
X175730921Y-78751253D01*
X175774967Y-78781876D01*
X175772447Y-78864624D01*
X175730284Y-78985806D01*
X175655403Y-79131738D01*
X175554730Y-79288730D01*
X175435190Y-79443097D01*
X175317710Y-79567978D01*
X175139451Y-79721483D01*
X174977910Y-79820230D01*
X174843616Y-79871216D01*
X174637188Y-79918311D01*
X174444380Y-79936914D01*
X174285444Y-79926969D01*
X174180625Y-79888416D01*
X174164285Y-79873162D01*
X174134176Y-79816006D01*
X174159078Y-79771540D01*
X174248457Y-79733401D01*
X174411778Y-79695226D01*
X174436008Y-79690492D01*
X174710216Y-79616283D01*
X174946271Y-79500190D01*
X175170552Y-79327322D01*
X175296455Y-79204709D01*
X175406846Y-79089347D01*
X175459567Y-79030442D01*
X175456814Y-79024382D01*
X175400782Y-79067552D01*
X175358861Y-79102003D01*
X175211373Y-79210586D01*
X175048801Y-79310793D01*
X174979532Y-79346624D01*
X174780891Y-79423053D01*
X174572179Y-79475074D01*
X174370822Y-79501617D01*
X174194245Y-79501612D01*
X174059872Y-79473986D01*
X173985129Y-79417670D01*
X173980632Y-79408008D01*
X173985634Y-79347736D01*
X174057061Y-79300307D01*
X174201612Y-79262721D01*
X174355849Y-79239931D01*
X174668880Y-79177195D01*
X174946631Y-79073140D01*
X175167064Y-78936230D01*
X175184379Y-78921688D01*
X175331887Y-78794135D01*
X174992655Y-78952911D01*
X174804762Y-79035599D01*
X174651791Y-79085682D01*
X174495037Y-79112643D01*
X174295795Y-79125969D01*
X174284597Y-79126424D01*
X174104144Y-79131879D01*
X173986570Y-79127970D01*
X173910105Y-79110556D01*
X173852982Y-79075495D01*
X173810920Y-79036311D01*
X173774604Y-79002290D01*
X173734890Y-78976172D01*
X173680253Y-78956497D01*
X173599164Y-78941803D01*
X173480096Y-78930629D01*
X173311523Y-78921514D01*
X173081917Y-78912998D01*
X172779751Y-78903618D01*
X172759212Y-78903000D01*
X172369384Y-78895009D01*
X171999001Y-78894519D01*
X171658036Y-78901023D01*
X171356467Y-78914017D01*
X171104266Y-78932993D01*
X170911409Y-78957446D01*
X170787871Y-78986870D01*
X170753394Y-79004731D01*
X170713746Y-79082190D01*
X170688550Y-79238447D01*
X170679763Y-79380480D01*
X170672067Y-79544644D01*
X170659952Y-79642415D01*
X170636729Y-79692180D01*
X170595712Y-79712323D01*
X170556935Y-79718172D01*
X170492858Y-79719463D01*
X170456151Y-79691339D01*
X170434514Y-79614306D01*
X170419281Y-79500056D01*
X170406708Y-79241117D01*
X170441353Y-79043874D01*
X170528194Y-78896482D01*
X170672209Y-78787097D01*
X170731052Y-78758244D01*
X170784718Y-78739994D01*
X170861875Y-78724824D01*
X170971039Y-78712295D01*
X171120722Y-78701965D01*
X171319440Y-78693393D01*
X171575707Y-78686139D01*
X171898035Y-78679763D01*
X172294940Y-78673822D01*
X172384808Y-78672638D01*
X172731580Y-78667242D01*
X173040514Y-78660658D01*
X173303711Y-78653187D01*
X173513272Y-78645130D01*
X173661297Y-78636788D01*
X173739888Y-78628463D01*
X173743186Y-78620874D01*
X173666804Y-78612389D01*
X173516580Y-78602943D01*
X173303467Y-78592963D01*
X173038420Y-78582874D01*
X172732394Y-78573102D01*
X172396342Y-78564074D01*
X172123397Y-78557884D01*
X170650571Y-78527163D01*
X170412195Y-78643790D01*
X170307505Y-78701236D01*
X170209705Y-78771911D01*
X170105549Y-78868511D01*
X169981790Y-79003736D01*
X169825181Y-79190285D01*
X169764513Y-79264682D01*
X169583467Y-79481871D01*
X169443890Y-79634324D01*
X169339243Y-79727220D01*
X169262986Y-79765732D01*
X169208578Y-79755036D01*
X169182517Y-79725268D01*
X169193726Y-79670947D01*
X169251461Y-79565086D01*
X169346702Y-79420232D01*
X169470428Y-79248928D01*
X169613617Y-79063722D01*
X169767249Y-78877158D01*
X169904493Y-78721194D01*
X170049827Y-78568955D01*
X170156916Y-78475626D01*
X174462605Y-78475626D01*
X174483807Y-78496828D01*
X174505009Y-78475626D01*
X174483807Y-78454424D01*
X174462605Y-78475626D01*
X170156916Y-78475626D01*
X170163464Y-78469919D01*
X170264773Y-78409581D01*
X170366688Y-78375030D01*
X170469867Y-78360532D01*
X170645089Y-78348700D01*
X170879634Y-78339501D01*
X171160780Y-78332898D01*
X171475806Y-78328858D01*
X171811991Y-78327346D01*
X172156613Y-78328327D01*
X172496952Y-78331766D01*
X172820285Y-78337629D01*
X173113893Y-78345881D01*
X173365052Y-78356488D01*
X173561043Y-78369415D01*
X173686023Y-78384070D01*
X173854507Y-78408398D01*
X173945260Y-78410582D01*
X173956712Y-78393343D01*
X173951547Y-78390818D01*
X174420201Y-78390818D01*
X174441403Y-78412020D01*
X174462605Y-78390818D01*
X174441403Y-78369616D01*
X174420201Y-78390818D01*
X173951547Y-78390818D01*
X173887290Y-78359405D01*
X173735422Y-78311488D01*
X173728977Y-78309698D01*
X173640343Y-78291743D01*
X173508968Y-78276177D01*
X173327908Y-78262658D01*
X173090217Y-78250844D01*
X172788952Y-78240394D01*
X172417168Y-78230966D01*
X171967921Y-78222220D01*
X171939566Y-78221730D01*
X171528845Y-78214357D01*
X171194423Y-78207403D01*
X170927797Y-78200347D01*
X170720463Y-78192673D01*
X170563918Y-78183861D01*
X170449657Y-78173392D01*
X170369178Y-78160750D01*
X170313977Y-78145414D01*
X170275551Y-78126867D01*
X170264608Y-78119605D01*
X170197638Y-78058753D01*
X170097820Y-77951460D01*
X169974913Y-77809992D01*
X169838677Y-77646614D01*
X169698873Y-77473589D01*
X169565261Y-77303184D01*
X169447600Y-77147662D01*
X169355650Y-77019288D01*
X169299172Y-76930327D01*
X169287925Y-76893045D01*
X169288390Y-76892852D01*
X169384939Y-76887269D01*
X169491373Y-76937693D01*
X169616154Y-77050460D01*
X169767740Y-77231906D01*
X169802865Y-77278121D01*
X169994432Y-77526535D01*
X170150525Y-77711981D01*
X170280411Y-77843535D01*
X170393356Y-77930273D01*
X170498629Y-77981272D01*
X170530852Y-77991163D01*
X170621578Y-78003436D01*
X170789613Y-78013438D01*
X171027486Y-78020993D01*
X171327724Y-78025929D01*
X171682854Y-78028071D01*
X172079689Y-78027276D01*
X172474452Y-78025674D01*
X172794475Y-78025914D01*
X173049811Y-78028379D01*
X173250516Y-78033451D01*
X173406643Y-78041514D01*
X173528247Y-78052952D01*
X173625384Y-78068147D01*
X173708107Y-78087483D01*
X173715968Y-78089658D01*
X173879835Y-78131158D01*
X173965910Y-78141699D01*
X173975421Y-78121114D01*
X173909594Y-78069236D01*
X173902075Y-78064350D01*
X173820414Y-78015114D01*
X173737909Y-77975841D01*
X173643928Y-77945297D01*
X173527844Y-77922244D01*
X173379027Y-77905447D01*
X173186847Y-77893669D01*
X172940675Y-77885676D01*
X172629883Y-77880230D01*
X172286485Y-77876489D01*
X171866906Y-77870957D01*
X171523105Y-77862161D01*
X171246080Y-77848912D01*
X171026826Y-77830024D01*
X170856340Y-77804309D01*
X170725619Y-77770581D01*
X170625658Y-77727652D01*
X170547454Y-77674337D01*
X170512950Y-77642666D01*
X170467256Y-77585469D01*
X170442988Y-77513739D01*
X170435895Y-77403793D01*
X170441168Y-77242863D01*
X170458971Y-77042512D01*
X170490535Y-76918141D01*
X170539620Y-76861515D01*
X170609983Y-76864397D01*
G37*
D10*
X151119803Y-118900640D02*
X151288676Y-119796427D01*
X151911796Y-120053298D01*
X152534916Y-120310168D01*
X153282453Y-119801849D01*
X153491802Y-119660316D01*
X153681043Y-119533945D01*
X153841343Y-119428507D01*
X153963874Y-119349770D01*
X154039802Y-119303505D01*
X154060480Y-119293529D01*
X154097731Y-119319186D01*
X154177332Y-119390115D01*
X154290361Y-119497257D01*
X154427895Y-119631550D01*
X154581012Y-119783934D01*
X154740789Y-119945347D01*
X154898305Y-120106730D01*
X155044637Y-120259022D01*
X155170863Y-120393162D01*
X155268060Y-120500089D01*
X155327307Y-120570742D01*
X155341471Y-120594388D01*
X155321087Y-120637979D01*
X155263941Y-120733481D01*
X155176041Y-120871550D01*
X155063396Y-121042845D01*
X154932013Y-121238025D01*
X154855882Y-121349352D01*
X154717118Y-121552633D01*
X154593811Y-121736073D01*
X154491945Y-121890542D01*
X154417501Y-122006909D01*
X154376461Y-122076042D01*
X154370294Y-122090570D01*
X154384274Y-122131860D01*
X154422382Y-122228092D01*
X154478867Y-122365734D01*
X154547980Y-122531258D01*
X154623970Y-122711132D01*
X154701089Y-122891828D01*
X154773585Y-123059814D01*
X154835709Y-123201560D01*
X154881712Y-123303537D01*
X154905843Y-123352214D01*
X154907267Y-123354130D01*
X154945158Y-123363425D01*
X155046069Y-123384160D01*
X155199540Y-123414298D01*
X155395112Y-123451801D01*
X155622325Y-123494629D01*
X155754891Y-123519326D01*
X155997679Y-123565553D01*
X156216974Y-123609540D01*
X156401681Y-123648881D01*
X156540705Y-123681169D01*
X156622952Y-123703997D01*
X156639485Y-123711240D01*
X156655678Y-123760261D01*
X156668744Y-123870977D01*
X156678691Y-124030438D01*
X156685528Y-124225700D01*
X156689264Y-124443814D01*
X156689907Y-124671835D01*
X156687468Y-124896815D01*
X156681953Y-125105809D01*
X156673374Y-125285868D01*
X156661737Y-125424047D01*
X156647052Y-125507398D01*
X156638245Y-125524750D01*
X156585599Y-125545548D01*
X156474043Y-125575282D01*
X156318335Y-125610459D01*
X156133229Y-125647586D01*
X156068613Y-125659597D01*
X155757071Y-125716662D01*
X155510976Y-125762618D01*
X155322195Y-125799293D01*
X155182598Y-125828513D01*
X155084052Y-125852104D01*
X155018426Y-125871892D01*
X154977589Y-125889706D01*
X154953409Y-125907370D01*
X154950026Y-125910861D01*
X154916255Y-125967100D01*
X154864737Y-126076547D01*
X154800617Y-126225800D01*
X154729039Y-126401459D01*
X154655146Y-126590121D01*
X154584083Y-126778385D01*
X154520993Y-126952848D01*
X154471021Y-127100108D01*
X154439312Y-127206764D01*
X154431008Y-127259413D01*
X154431700Y-127261257D01*
X154459836Y-127304292D01*
X154523665Y-127398978D01*
X154616480Y-127535460D01*
X154731573Y-127703882D01*
X154862237Y-127894390D01*
X154899448Y-127948529D01*
X155032129Y-128144804D01*
X155148883Y-128323886D01*
X155243349Y-128475492D01*
X155309168Y-128589338D01*
X155339978Y-128655141D01*
X155341471Y-128663225D01*
X155315584Y-128705715D01*
X155244054Y-128789891D01*
X155136076Y-128906705D01*
X155000846Y-129047110D01*
X154847558Y-129202061D01*
X154685409Y-129362509D01*
X154523593Y-129519409D01*
X154371306Y-129663713D01*
X154237743Y-129786376D01*
X154132100Y-129878350D01*
X154063572Y-129930589D01*
X154044614Y-129939118D01*
X154000487Y-129919029D01*
X153910142Y-129864849D01*
X153788295Y-129785704D01*
X153694546Y-129722001D01*
X153524678Y-129605110D01*
X153323512Y-129467476D01*
X153121733Y-129330063D01*
X153013250Y-129256519D01*
X152646058Y-129008155D01*
X152337826Y-129174813D01*
X152197404Y-129247822D01*
X152077996Y-129304571D01*
X151997202Y-129336937D01*
X151976636Y-129341441D01*
X151951906Y-129308189D01*
X151903118Y-129214224D01*
X151833913Y-129068213D01*
X151747935Y-128878824D01*
X151648824Y-128654724D01*
X151540224Y-128404581D01*
X151425775Y-128137063D01*
X151309120Y-127860836D01*
X151193901Y-127584568D01*
X151083760Y-127316927D01*
X150982339Y-127066580D01*
X150893280Y-126842195D01*
X150820225Y-126652439D01*
X150766816Y-126505980D01*
X150736695Y-126411485D01*
X150731851Y-126379031D01*
X150770245Y-126337636D01*
X150854308Y-126270438D01*
X150966467Y-126191400D01*
X150975881Y-126185147D01*
X151265768Y-125953103D01*
X151499512Y-125682386D01*
X151675087Y-125381653D01*
X151790469Y-125059561D01*
X151843630Y-124724765D01*
X151832547Y-124385922D01*
X151755192Y-124051688D01*
X151609540Y-123730719D01*
X151566688Y-123660495D01*
X151343802Y-123376927D01*
X151080491Y-123149218D01*
X150785865Y-122978551D01*
X150469041Y-122866112D01*
X150139130Y-122813083D01*
X149805246Y-122820651D01*
X149476503Y-122889998D01*
X149162014Y-123022309D01*
X148870893Y-123218768D01*
X148780840Y-123298506D01*
X148551653Y-123548108D01*
X148384646Y-123810868D01*
X148270085Y-124105399D01*
X148206281Y-124397075D01*
X148190530Y-124725012D01*
X148243051Y-125054577D01*
X148358510Y-125374630D01*
X148531571Y-125674032D01*
X148756899Y-125941643D01*
X149029160Y-126166325D01*
X149064942Y-126190008D01*
X149178302Y-126267568D01*
X149264478Y-126334768D01*
X149305677Y-126377675D01*
X149306276Y-126379031D01*
X149297431Y-126425446D01*
X149262369Y-126530786D01*
X149204733Y-126686388D01*
X149128166Y-126883584D01*
X149036314Y-127113710D01*
X148932817Y-127368101D01*
X148821321Y-127638090D01*
X148705468Y-127915012D01*
X148588903Y-128190201D01*
X148475267Y-128454993D01*
X148368206Y-128700721D01*
X148271362Y-128918721D01*
X148188379Y-129100326D01*
X148122901Y-129236871D01*
X148078569Y-129319690D01*
X148060717Y-129341441D01*
X148006166Y-129324504D01*
X147904095Y-129279077D01*
X147772105Y-129213280D01*
X147699526Y-129174813D01*
X147391295Y-129008155D01*
X147024103Y-129256519D01*
X146836660Y-129383754D01*
X146631443Y-129523773D01*
X146439133Y-129655612D01*
X146342807Y-129722001D01*
X146207327Y-129812976D01*
X146092607Y-129885071D01*
X146013612Y-129929154D01*
X145987954Y-129938473D01*
X145950609Y-129913334D01*
X145867958Y-129843154D01*
X145748015Y-129735220D01*
X145598791Y-129596818D01*
X145428301Y-129435235D01*
X145320474Y-129331488D01*
X145131828Y-129146135D01*
X144968795Y-128980351D01*
X144837968Y-128841227D01*
X144745935Y-128735856D01*
X144699287Y-128671329D01*
X144694812Y-128658234D01*
X144715580Y-128608425D01*
X144772969Y-128507713D01*
X144860613Y-128366295D01*
X144972146Y-128194367D01*
X145101203Y-128002124D01*
X145137904Y-127948529D01*
X145271632Y-127753733D01*
X145391607Y-127578353D01*
X145491121Y-127432243D01*
X145563467Y-127325258D01*
X145601936Y-127267255D01*
X145605653Y-127261257D01*
X145600095Y-127215032D01*
X145570593Y-127113398D01*
X145522291Y-126969758D01*
X145460333Y-126797514D01*
X145389863Y-126610066D01*
X145316025Y-126420818D01*
X145243963Y-126243171D01*
X145178822Y-126090527D01*
X145125745Y-125976288D01*
X145089877Y-125913856D01*
X145087327Y-125910861D01*
X145065394Y-125893019D01*
X145028348Y-125875374D01*
X144968059Y-125856101D01*
X144876396Y-125833374D01*
X144745226Y-125805364D01*
X144566418Y-125770247D01*
X144331842Y-125726195D01*
X144033365Y-125671382D01*
X143968740Y-125659597D01*
X143777206Y-125622591D01*
X143610231Y-125586389D01*
X143482568Y-125554485D01*
X143408976Y-125530372D01*
X143399108Y-125524750D01*
X143382847Y-125474910D01*
X143369630Y-125363532D01*
X143359464Y-125203563D01*
X143352360Y-125007950D01*
X143348326Y-124789640D01*
X143347370Y-124561579D01*
X143349502Y-124336714D01*
X143354731Y-124127991D01*
X143363065Y-123948358D01*
X143374513Y-123810762D01*
X143389084Y-123728148D01*
X143397868Y-123711240D01*
X143446770Y-123694184D01*
X143558127Y-123666436D01*
X143720844Y-123630403D01*
X143923826Y-123588493D01*
X144155979Y-123543111D01*
X144282462Y-123519326D01*
X144522445Y-123474465D01*
X144736451Y-123433825D01*
X144914022Y-123399446D01*
X145044698Y-123373365D01*
X145118018Y-123357621D01*
X145130085Y-123354130D01*
X145150481Y-123314779D01*
X145193594Y-123219993D01*
X145253679Y-123083315D01*
X145324987Y-122918286D01*
X145401773Y-122738447D01*
X145478290Y-122557340D01*
X145548790Y-122388507D01*
X145607527Y-122245488D01*
X145648754Y-122141826D01*
X145666724Y-122091061D01*
X145667059Y-122088842D01*
X145646687Y-122048796D01*
X145589573Y-121956639D01*
X145501721Y-121821533D01*
X145389133Y-121652635D01*
X145257811Y-121459105D01*
X145181471Y-121347941D01*
X145042364Y-121144116D01*
X144918812Y-120959063D01*
X144816842Y-120802146D01*
X144742483Y-120682724D01*
X144701763Y-120610160D01*
X144695882Y-120593893D01*
X144721163Y-120556030D01*
X144791052Y-120475186D01*
X144896623Y-120360419D01*
X145028948Y-120220785D01*
X145179099Y-120065342D01*
X145338148Y-119903146D01*
X145497167Y-119743254D01*
X145647229Y-119594724D01*
X145779406Y-119466613D01*
X145884770Y-119367977D01*
X145954393Y-119307873D01*
X145977685Y-119293529D01*
X146015610Y-119313699D01*
X146106317Y-119370363D01*
X146240989Y-119457753D01*
X146410805Y-119570100D01*
X146606946Y-119701638D01*
X146754900Y-119801849D01*
X147502436Y-120310168D01*
X148125556Y-120053298D01*
X148748676Y-119796427D01*
X149086424Y-118004853D01*
X150950929Y-118004853D01*
X151119803Y-118900640D01*
G36*
X151119803Y-118900640D02*
G01*
X151288676Y-119796427D01*
X151911796Y-120053298D01*
X152534916Y-120310168D01*
X153282453Y-119801849D01*
X153491802Y-119660316D01*
X153681043Y-119533945D01*
X153841343Y-119428507D01*
X153963874Y-119349770D01*
X154039802Y-119303505D01*
X154060480Y-119293529D01*
X154097731Y-119319186D01*
X154177332Y-119390115D01*
X154290361Y-119497257D01*
X154427895Y-119631550D01*
X154581012Y-119783934D01*
X154740789Y-119945347D01*
X154898305Y-120106730D01*
X155044637Y-120259022D01*
X155170863Y-120393162D01*
X155268060Y-120500089D01*
X155327307Y-120570742D01*
X155341471Y-120594388D01*
X155321087Y-120637979D01*
X155263941Y-120733481D01*
X155176041Y-120871550D01*
X155063396Y-121042845D01*
X154932013Y-121238025D01*
X154855882Y-121349352D01*
X154717118Y-121552633D01*
X154593811Y-121736073D01*
X154491945Y-121890542D01*
X154417501Y-122006909D01*
X154376461Y-122076042D01*
X154370294Y-122090570D01*
X154384274Y-122131860D01*
X154422382Y-122228092D01*
X154478867Y-122365734D01*
X154547980Y-122531258D01*
X154623970Y-122711132D01*
X154701089Y-122891828D01*
X154773585Y-123059814D01*
X154835709Y-123201560D01*
X154881712Y-123303537D01*
X154905843Y-123352214D01*
X154907267Y-123354130D01*
X154945158Y-123363425D01*
X155046069Y-123384160D01*
X155199540Y-123414298D01*
X155395112Y-123451801D01*
X155622325Y-123494629D01*
X155754891Y-123519326D01*
X155997679Y-123565553D01*
X156216974Y-123609540D01*
X156401681Y-123648881D01*
X156540705Y-123681169D01*
X156622952Y-123703997D01*
X156639485Y-123711240D01*
X156655678Y-123760261D01*
X156668744Y-123870977D01*
X156678691Y-124030438D01*
X156685528Y-124225700D01*
X156689264Y-124443814D01*
X156689907Y-124671835D01*
X156687468Y-124896815D01*
X156681953Y-125105809D01*
X156673374Y-125285868D01*
X156661737Y-125424047D01*
X156647052Y-125507398D01*
X156638245Y-125524750D01*
X156585599Y-125545548D01*
X156474043Y-125575282D01*
X156318335Y-125610459D01*
X156133229Y-125647586D01*
X156068613Y-125659597D01*
X155757071Y-125716662D01*
X155510976Y-125762618D01*
X155322195Y-125799293D01*
X155182598Y-125828513D01*
X155084052Y-125852104D01*
X155018426Y-125871892D01*
X154977589Y-125889706D01*
X154953409Y-125907370D01*
X154950026Y-125910861D01*
X154916255Y-125967100D01*
X154864737Y-126076547D01*
X154800617Y-126225800D01*
X154729039Y-126401459D01*
X154655146Y-126590121D01*
X154584083Y-126778385D01*
X154520993Y-126952848D01*
X154471021Y-127100108D01*
X154439312Y-127206764D01*
X154431008Y-127259413D01*
X154431700Y-127261257D01*
X154459836Y-127304292D01*
X154523665Y-127398978D01*
X154616480Y-127535460D01*
X154731573Y-127703882D01*
X154862237Y-127894390D01*
X154899448Y-127948529D01*
X155032129Y-128144804D01*
X155148883Y-128323886D01*
X155243349Y-128475492D01*
X155309168Y-128589338D01*
X155339978Y-128655141D01*
X155341471Y-128663225D01*
X155315584Y-128705715D01*
X155244054Y-128789891D01*
X155136076Y-128906705D01*
X155000846Y-129047110D01*
X154847558Y-129202061D01*
X154685409Y-129362509D01*
X154523593Y-129519409D01*
X154371306Y-129663713D01*
X154237743Y-129786376D01*
X154132100Y-129878350D01*
X154063572Y-129930589D01*
X154044614Y-129939118D01*
X154000487Y-129919029D01*
X153910142Y-129864849D01*
X153788295Y-129785704D01*
X153694546Y-129722001D01*
X153524678Y-129605110D01*
X153323512Y-129467476D01*
X153121733Y-129330063D01*
X153013250Y-129256519D01*
X152646058Y-129008155D01*
X152337826Y-129174813D01*
X152197404Y-129247822D01*
X152077996Y-129304571D01*
X151997202Y-129336937D01*
X151976636Y-129341441D01*
X151951906Y-129308189D01*
X151903118Y-129214224D01*
X151833913Y-129068213D01*
X151747935Y-128878824D01*
X151648824Y-128654724D01*
X151540224Y-128404581D01*
X151425775Y-128137063D01*
X151309120Y-127860836D01*
X151193901Y-127584568D01*
X151083760Y-127316927D01*
X150982339Y-127066580D01*
X150893280Y-126842195D01*
X150820225Y-126652439D01*
X150766816Y-126505980D01*
X150736695Y-126411485D01*
X150731851Y-126379031D01*
X150770245Y-126337636D01*
X150854308Y-126270438D01*
X150966467Y-126191400D01*
X150975881Y-126185147D01*
X151265768Y-125953103D01*
X151499512Y-125682386D01*
X151675087Y-125381653D01*
X151790469Y-125059561D01*
X151843630Y-124724765D01*
X151832547Y-124385922D01*
X151755192Y-124051688D01*
X151609540Y-123730719D01*
X151566688Y-123660495D01*
X151343802Y-123376927D01*
X151080491Y-123149218D01*
X150785865Y-122978551D01*
X150469041Y-122866112D01*
X150139130Y-122813083D01*
X149805246Y-122820651D01*
X149476503Y-122889998D01*
X149162014Y-123022309D01*
X148870893Y-123218768D01*
X148780840Y-123298506D01*
X148551653Y-123548108D01*
X148384646Y-123810868D01*
X148270085Y-124105399D01*
X148206281Y-124397075D01*
X148190530Y-124725012D01*
X148243051Y-125054577D01*
X148358510Y-125374630D01*
X148531571Y-125674032D01*
X148756899Y-125941643D01*
X149029160Y-126166325D01*
X149064942Y-126190008D01*
X149178302Y-126267568D01*
X149264478Y-126334768D01*
X149305677Y-126377675D01*
X149306276Y-126379031D01*
X149297431Y-126425446D01*
X149262369Y-126530786D01*
X149204733Y-126686388D01*
X149128166Y-126883584D01*
X149036314Y-127113710D01*
X148932817Y-127368101D01*
X148821321Y-127638090D01*
X148705468Y-127915012D01*
X148588903Y-128190201D01*
X148475267Y-128454993D01*
X148368206Y-128700721D01*
X148271362Y-128918721D01*
X148188379Y-129100326D01*
X148122901Y-129236871D01*
X148078569Y-129319690D01*
X148060717Y-129341441D01*
X148006166Y-129324504D01*
X147904095Y-129279077D01*
X147772105Y-129213280D01*
X147699526Y-129174813D01*
X147391295Y-129008155D01*
X147024103Y-129256519D01*
X146836660Y-129383754D01*
X146631443Y-129523773D01*
X146439133Y-129655612D01*
X146342807Y-129722001D01*
X146207327Y-129812976D01*
X146092607Y-129885071D01*
X146013612Y-129929154D01*
X145987954Y-129938473D01*
X145950609Y-129913334D01*
X145867958Y-129843154D01*
X145748015Y-129735220D01*
X145598791Y-129596818D01*
X145428301Y-129435235D01*
X145320474Y-129331488D01*
X145131828Y-129146135D01*
X144968795Y-128980351D01*
X144837968Y-128841227D01*
X144745935Y-128735856D01*
X144699287Y-128671329D01*
X144694812Y-128658234D01*
X144715580Y-128608425D01*
X144772969Y-128507713D01*
X144860613Y-128366295D01*
X144972146Y-128194367D01*
X145101203Y-128002124D01*
X145137904Y-127948529D01*
X145271632Y-127753733D01*
X145391607Y-127578353D01*
X145491121Y-127432243D01*
X145563467Y-127325258D01*
X145601936Y-127267255D01*
X145605653Y-127261257D01*
X145600095Y-127215032D01*
X145570593Y-127113398D01*
X145522291Y-126969758D01*
X145460333Y-126797514D01*
X145389863Y-126610066D01*
X145316025Y-126420818D01*
X145243963Y-126243171D01*
X145178822Y-126090527D01*
X145125745Y-125976288D01*
X145089877Y-125913856D01*
X145087327Y-125910861D01*
X145065394Y-125893019D01*
X145028348Y-125875374D01*
X144968059Y-125856101D01*
X144876396Y-125833374D01*
X144745226Y-125805364D01*
X144566418Y-125770247D01*
X144331842Y-125726195D01*
X144033365Y-125671382D01*
X143968740Y-125659597D01*
X143777206Y-125622591D01*
X143610231Y-125586389D01*
X143482568Y-125554485D01*
X143408976Y-125530372D01*
X143399108Y-125524750D01*
X143382847Y-125474910D01*
X143369630Y-125363532D01*
X143359464Y-125203563D01*
X143352360Y-125007950D01*
X143348326Y-124789640D01*
X143347370Y-124561579D01*
X143349502Y-124336714D01*
X143354731Y-124127991D01*
X143363065Y-123948358D01*
X143374513Y-123810762D01*
X143389084Y-123728148D01*
X143397868Y-123711240D01*
X143446770Y-123694184D01*
X143558127Y-123666436D01*
X143720844Y-123630403D01*
X143923826Y-123588493D01*
X144155979Y-123543111D01*
X144282462Y-123519326D01*
X144522445Y-123474465D01*
X144736451Y-123433825D01*
X144914022Y-123399446D01*
X145044698Y-123373365D01*
X145118018Y-123357621D01*
X145130085Y-123354130D01*
X145150481Y-123314779D01*
X145193594Y-123219993D01*
X145253679Y-123083315D01*
X145324987Y-122918286D01*
X145401773Y-122738447D01*
X145478290Y-122557340D01*
X145548790Y-122388507D01*
X145607527Y-122245488D01*
X145648754Y-122141826D01*
X145666724Y-122091061D01*
X145667059Y-122088842D01*
X145646687Y-122048796D01*
X145589573Y-121956639D01*
X145501721Y-121821533D01*
X145389133Y-121652635D01*
X145257811Y-121459105D01*
X145181471Y-121347941D01*
X145042364Y-121144116D01*
X144918812Y-120959063D01*
X144816842Y-120802146D01*
X144742483Y-120682724D01*
X144701763Y-120610160D01*
X144695882Y-120593893D01*
X144721163Y-120556030D01*
X144791052Y-120475186D01*
X144896623Y-120360419D01*
X145028948Y-120220785D01*
X145179099Y-120065342D01*
X145338148Y-119903146D01*
X145497167Y-119743254D01*
X145647229Y-119594724D01*
X145779406Y-119466613D01*
X145884770Y-119367977D01*
X145954393Y-119307873D01*
X145977685Y-119293529D01*
X146015610Y-119313699D01*
X146106317Y-119370363D01*
X146240989Y-119457753D01*
X146410805Y-119570100D01*
X146606946Y-119701638D01*
X146754900Y-119801849D01*
X147502436Y-120310168D01*
X148125556Y-120053298D01*
X148748676Y-119796427D01*
X149086424Y-118004853D01*
X150950929Y-118004853D01*
X151119803Y-118900640D01*
G37*
%TD*%
D11*
%TO.C,R1*%
X141000000Y-64000000D03*
D12*
X145700000Y-64000000D03*
X148800000Y-64000000D03*
D11*
X153500000Y-64000000D03*
%TD*%
%TO.C,R2*%
X128750000Y-78750000D03*
D13*
X128750000Y-83450000D03*
X128750000Y-86550000D03*
D11*
X128750000Y-91250000D03*
%TD*%
%TO.C,D4*%
X180901974Y-132698026D03*
D14*
X179105923Y-134494077D03*
D11*
X182698026Y-130901974D03*
X184494077Y-129105923D03*
%TD*%
D15*
%TO.C,H2*%
X167200000Y-58400000D03*
%TD*%
D11*
%TO.C,D7*%
X105000000Y-98730000D03*
D16*
X105000000Y-96190000D03*
D11*
X105000000Y-101270000D03*
X105000000Y-103810000D03*
%TD*%
D16*
%TO.C,U1*%
X158870000Y-88580000D03*
D17*
X156330000Y-88580000D03*
X153790000Y-88580000D03*
X151250000Y-88580000D03*
X148710000Y-88580000D03*
X146170000Y-88580000D03*
X143630000Y-88580000D03*
X141090000Y-88580000D03*
X141090000Y-111440000D03*
X143630000Y-111440000D03*
X146170000Y-111440000D03*
X148710000Y-111440000D03*
X151250000Y-111440000D03*
X153790000Y-111440000D03*
X156330000Y-111440000D03*
X158870000Y-111440000D03*
%TD*%
D11*
%TO.C,D5*%
X148730000Y-145000000D03*
D16*
X146190000Y-145000000D03*
D11*
X151270000Y-145000000D03*
X153810000Y-145000000D03*
%TD*%
D15*
%TO.C,H3*%
X108400000Y-82800000D03*
%TD*%
D11*
%TO.C,D8*%
X119098026Y-67301974D03*
D18*
X120894077Y-65505923D03*
D11*
X117301974Y-69098026D03*
X115505923Y-70894077D03*
%TD*%
D19*
%TO.C,Q1*%
X127837500Y-75050000D03*
X127837500Y-73150000D03*
X125962500Y-74100000D03*
%TD*%
D20*
%TO.C,TP2*%
X132000000Y-64000000D03*
%TD*%
D11*
%TO.C,D3*%
X195000000Y-101270000D03*
D16*
X195000000Y-103810000D03*
D11*
X195000000Y-98730000D03*
X195000000Y-96190000D03*
%TD*%
%TO.C,D1*%
X151270000Y-55000000D03*
D16*
X153810000Y-55000000D03*
D11*
X148730000Y-55000000D03*
X146190000Y-55000000D03*
%TD*%
%TO.C,D2*%
X182698026Y-69098026D03*
D21*
X184494077Y-70894077D03*
D11*
X180901974Y-67301974D03*
X179105923Y-65505923D03*
%TD*%
%TO.C,R3*%
X124750000Y-91250000D03*
D22*
X124750000Y-86550000D03*
X124750000Y-83450000D03*
D11*
X124750000Y-78750000D03*
%TD*%
D15*
%TO.C,H1*%
X132800000Y-141600000D03*
%TD*%
D20*
%TO.C,TP1*%
X137000000Y-64000000D03*
%TD*%
D11*
%TO.C,A1*%
X146170000Y-73070000D03*
X146170000Y-75610000D03*
X146170000Y-78150000D03*
X146170000Y-80690000D03*
X148710000Y-73070000D03*
X148710000Y-75610000D03*
X148710000Y-78150000D03*
X148710000Y-80690000D03*
X151250000Y-73070000D03*
X151250000Y-75610000D03*
X151250000Y-78150000D03*
X151250000Y-80690000D03*
X153790000Y-73070000D03*
X153790000Y-75610000D03*
X153790000Y-78150000D03*
X153790000Y-80690000D03*
X156330000Y-73070000D03*
X156330000Y-75610000D03*
X156330000Y-78150000D03*
X156330000Y-80690000D03*
X156330000Y-83230000D03*
X153790000Y-83230000D03*
X151250000Y-83230000D03*
X148710000Y-83230000D03*
X146170000Y-83230000D03*
D23*
X158870000Y-73070000D03*
X158870000Y-75610000D03*
X158870000Y-78150000D03*
X158870000Y-80690000D03*
X158870000Y-83230000D03*
D24*
X143630000Y-73070000D03*
X143630000Y-75610000D03*
X143630000Y-78150000D03*
X143630000Y-80690000D03*
X143630000Y-83230000D03*
%TD*%
D15*
%TO.C,H4*%
X191600000Y-117200000D03*
%TD*%
D11*
%TO.C,D6*%
X117301974Y-130901974D03*
D25*
X115505923Y-129105923D03*
D11*
X119098026Y-132698026D03*
X120894077Y-134494077D03*
%TD*%
M02*
