M48
; DRILL file {KiCad 7.0.5} date Sun Jan  7 17:07:31 2024
; FORMAT={-:-/ absolute / inch / decimal}
; #@! TF.CreationDate,2024-01-07T17:07:31+01:00
; #@! TF.GenerationSoftware,Kicad,Pcbnew,7.0.5
; #@! TF.FileFunction,MixedPlating,1,2
FMAT,2
INCH
; #@! TA.AperFunction,Plated,PTH,ComponentDrill
T1C0.0335
; #@! TA.AperFunction,Plated,PTH,ComponentDrill
T2C0.0394
; #@! TA.AperFunction,Plated,PTH,ComponentDrill
T3C0.0472
; #@! TA.AperFunction,Plated,PTH,ComponentDrill
T4C0.1260
%
G90
G05
T1
X4.9114Y-3.1004
X4.9114Y-3.5925
X5.0689Y-3.1004
X5.0689Y-3.5925
X5.5512Y-2.5197
X6.0433Y-2.5197
T2
X4.1339Y-3.787
X4.1339Y-3.887
X4.1339Y-3.987
X4.1339Y-4.087
X4.5475Y-2.7911
X4.5475Y-5.0829
X4.6182Y-2.7204
X4.6182Y-5.1536
X4.6889Y-2.6497
X4.6889Y-5.2243
X4.7596Y-2.579
X4.7596Y-5.295
X5.5547Y-3.4874
X5.5547Y-4.3874
X5.6547Y-2.8768
X5.6547Y-2.9768
X5.6547Y-3.0768
X5.6547Y-3.1768
X5.6547Y-3.2768
X5.6547Y-3.4874
X5.6547Y-4.3874
X5.7547Y-2.8768
X5.7547Y-2.9768
X5.7547Y-3.0768
X5.7547Y-3.1768
X5.7547Y-3.2768
X5.7547Y-3.4874
X5.7547Y-4.3874
X5.7555Y-2.1654
X5.7555Y-5.7087
X5.8547Y-2.8768
X5.8547Y-2.9768
X5.8547Y-3.0768
X5.8547Y-3.1768
X5.8547Y-3.2768
X5.8547Y-3.4874
X5.8547Y-4.3874
X5.8555Y-2.1654
X5.8555Y-5.7087
X5.9547Y-2.8768
X5.9547Y-2.9768
X5.9547Y-3.0768
X5.9547Y-3.1768
X5.9547Y-3.2768
X5.9547Y-3.4874
X5.9547Y-4.3874
X5.9555Y-2.1654
X5.9555Y-5.7087
X6.0547Y-2.8768
X6.0547Y-2.9768
X6.0547Y-3.0768
X6.0547Y-3.1768
X6.0547Y-3.2768
X6.0547Y-3.4874
X6.0547Y-4.3874
X6.0555Y-2.1654
X6.0555Y-5.7087
X6.1547Y-2.8768
X6.1547Y-2.9768
X6.1547Y-3.0768
X6.1547Y-3.1768
X6.1547Y-3.2768
X6.1547Y-3.4874
X6.1547Y-4.3874
X6.2547Y-2.8768
X6.2547Y-2.9768
X6.2547Y-3.0768
X6.2547Y-3.1768
X6.2547Y-3.2768
X6.2547Y-3.4874
X6.2547Y-4.3874
X7.0514Y-2.579
X7.0514Y-5.295
X7.1221Y-2.6497
X7.1221Y-5.2243
X7.1928Y-2.7204
X7.1928Y-5.1536
X7.2635Y-2.7911
X7.2635Y-5.0829
X7.6772Y-3.787
X7.6772Y-3.887
X7.6772Y-3.987
X7.6772Y-4.087
T3
X5.1969Y-2.5197
X5.3937Y-2.5197
T4
X4.2677Y-3.2598
X5.2283Y-5.5748
X6.5827Y-2.2992
X7.5433Y-4.6142
T0
M30
